{
    "asset" : {
        "generator" : "Khronos glTF Blender I/O v3.3.36",
        "version" : "2.0"
    },
    "extensionsUsed" : [
        "KHR_materials_specular",
        "KHR_materials_ior"
    ],
    "scene" : 0,
    "scenes" : [
        {
            "name" : "Scene",
            "nodes" : [
                0,
                1,
                2,
                3,
                4,
                5,
                6,
                7,
                8,
                9,
                10,
                11,
                12,
                13,
                14,
                15,
                16
            ]
        }
    ],
    "nodes" : [
        {
            "mesh" : 0,
            "name" : "stg040_o37_Mesh_0000"
        },
        {
            "mesh" : 1,
            "name" : "stg040_o37_Mesh_0001"
        },
        {
            "mesh" : 2,
            "name" : "stg040_o37_Mesh_0002"
        },
        {
            "mesh" : 3,
            "name" : "stg040_o37_Mesh_0003"
        },
        {
            "mesh" : 4,
            "name" : "stg040_o37_Mesh_0004"
        },
        {
            "mesh" : 5,
            "name" : "stg040_o37_Mesh_0005"
        },
        {
            "mesh" : 6,
            "name" : "stg040_o37_Mesh_0006"
        },
        {
            "mesh" : 7,
            "name" : "stg040_o37_Mesh_0007"
        },
        {
            "mesh" : 8,
            "name" : "stg040_o37_Mesh_0008"
        },
        {
            "mesh" : 9,
            "name" : "stg040_o37_Mesh_0009"
        },
        {
            "mesh" : 10,
            "name" : "stg040_o37_Mesh_0010"
        },
        {
            "mesh" : 11,
            "name" : "stg040_o37_Mesh_0013"
        },
        {
            "mesh" : 12,
            "name" : "stg040_o37_Mesh_0014"
        },
        {
            "mesh" : 13,
            "name" : "stg040_o37_Mesh_0015"
        },
        {
            "mesh" : 14,
            "name" : "stg040_o37_Mesh_0016"
        },
        {
            "mesh" : 15,
            "name" : "stg040_o37_Mesh_0017"
        },
        {
            "mesh" : 16,
            "name" : "stg040_o37_Mesh_0018"
        }
    ],
    "materials" : [
        {
            "extensions" : {
                "KHR_materials_specular" : {
                    "specularColorFactor" : [
                        0,
                        0,
                        0
                    ]
                },
                "KHR_materials_ior" : {
                    "ior" : 1.4500000476837158
                }
            },
            "name" : "Engraving Atlas",
            "pbrMetallicRoughness" : {
                "baseColorFactor" : [
                    0.800000011920929,
                    0.800000011920929,
                    0.800000011920929,
                    1
                ],
                "metallicFactor" : 0
            }
        },
        {
            "extensions" : {
                "KHR_materials_specular" : {
                    "specularColorFactor" : [
                        0,
                        0,
                        0
                    ]
                },
                "KHR_materials_ior" : {
                    "ior" : 1.4500000476837158
                }
            },
            "name" : "Engraving",
            "pbrMetallicRoughness" : {
                "baseColorFactor" : [
                    0.800000011920929,
                    0.800000011920929,
                    0.800000011920929,
                    1
                ],
                "metallicFactor" : 0
            }
        },
        {
            "extensions" : {
                "KHR_materials_specular" : {
                    "specularColorFactor" : [
                        0,
                        0,
                        0
                    ]
                },
                "KHR_materials_ior" : {
                    "ior" : 1.4500000476837158
                }
            },
            "name" : "Triangle Atlas",
            "pbrMetallicRoughness" : {
                "baseColorFactor" : [
                    0.800000011920929,
                    0.800000011920929,
                    0.800000011920929,
                    1
                ],
                "metallicFactor" : 0
            }
        },
        {
            "extensions" : {
                "KHR_materials_specular" : {
                    "specularColorFactor" : [
                        0,
                        0,
                        0
                    ]
                },
                "KHR_materials_ior" : {
                    "ior" : 1.4500000476837158
                }
            },
            "name" : "Brick Atlas",
            "pbrMetallicRoughness" : {
                "baseColorFactor" : [
                    0.800000011920929,
                    0.800000011920929,
                    0.800000011920929,
                    1
                ],
                "metallicFactor" : 0
            }
        },
        {
            "extensions" : {
                "KHR_materials_specular" : {
                    "specularColorFactor" : [
                        0,
                        0,
                        0
                    ]
                },
                "KHR_materials_ior" : {
                    "ior" : 1.4500000476837158
                }
            },
            "name" : "Cross White Atlas",
            "pbrMetallicRoughness" : {
                "baseColorFactor" : [
                    0.800000011920929,
                    0.800000011920929,
                    0.800000011920929,
                    1
                ],
                "metallicFactor" : 0
            }
        },
        {
            "extensions" : {
                "KHR_materials_specular" : {
                    "specularColorFactor" : [
                        0,
                        0,
                        0
                    ]
                },
                "KHR_materials_ior" : {
                    "ior" : 1.4500000476837158
                }
            },
            "name" : "Window Atlas",
            "pbrMetallicRoughness" : {
                "baseColorFactor" : [
                    0.800000011920929,
                    0.800000011920929,
                    0.800000011920929,
                    1
                ],
                "metallicFactor" : 0
            }
        },
        {
            "extensions" : {
                "KHR_materials_specular" : {
                    "specularColorFactor" : [
                        0,
                        0,
                        0
                    ]
                },
                "KHR_materials_ior" : {
                    "ior" : 1.4500000476837158
                }
            },
            "name" : "Arch Blue Atlas",
            "pbrMetallicRoughness" : {
                "baseColorFactor" : [
                    0.800000011920929,
                    0.800000011920929,
                    0.800000011920929,
                    1
                ],
                "metallicFactor" : 0
            }
        },
        {
            "extensions" : {
                "KHR_materials_specular" : {
                    "specularColorFactor" : [
                        0,
                        0,
                        0
                    ]
                },
                "KHR_materials_ior" : {
                    "ior" : 1.4500000476837158
                }
            },
            "name" : "Window Blue Atlas",
            "pbrMetallicRoughness" : {
                "baseColorFactor" : [
                    0.800000011920929,
                    0.800000011920929,
                    0.800000011920929,
                    1
                ],
                "metallicFactor" : 0
            }
        },
        {
            "extensions" : {
                "KHR_materials_specular" : {
                    "specularColorFactor" : [
                        0,
                        0,
                        0
                    ]
                },
                "KHR_materials_ior" : {
                    "ior" : 1.4500000476837158
                }
            },
            "name" : "Drywall",
            "pbrMetallicRoughness" : {
                "baseColorFactor" : [
                    0.800000011920929,
                    0.800000011920929,
                    0.800000011920929,
                    1
                ],
                "metallicFactor" : 0
            }
        },
        {
            "extensions" : {
                "KHR_materials_specular" : {
                    "specularColorFactor" : [
                        0,
                        0,
                        0
                    ]
                },
                "KHR_materials_ior" : {
                    "ior" : 1.4500000476837158
                }
            },
            "name" : "Drywall Chipped",
            "pbrMetallicRoughness" : {
                "baseColorFactor" : [
                    0.800000011920929,
                    0.800000011920929,
                    0.800000011920929,
                    1
                ],
                "metallicFactor" : 0
            }
        },
        {
            "extensions" : {
                "KHR_materials_specular" : {
                    "specularColorFactor" : [
                        0,
                        0,
                        0
                    ]
                },
                "KHR_materials_ior" : {
                    "ior" : 1.4500000476837158
                }
            },
            "name" : "Tile Rock",
            "pbrMetallicRoughness" : {
                "baseColorFactor" : [
                    0.800000011920929,
                    0.800000011920929,
                    0.800000011920929,
                    1
                ],
                "metallicFactor" : 0
            }
        },
        {
            "extensions" : {
                "KHR_materials_specular" : {
                    "specularColorFactor" : [
                        0,
                        0,
                        0
                    ]
                },
                "KHR_materials_ior" : {
                    "ior" : 1.4500000476837158
                }
            },
            "name" : "Star Orange",
            "pbrMetallicRoughness" : {
                "baseColorFactor" : [
                    0.800000011920929,
                    0.800000011920929,
                    0.800000011920929,
                    1
                ],
                "metallicFactor" : 0
            }
        },
        {
            "extensions" : {
                "KHR_materials_specular" : {
                    "specularColorFactor" : [
                        0,
                        0,
                        0
                    ]
                },
                "KHR_materials_ior" : {
                    "ior" : 1.4500000476837158
                }
            },
            "name" : "Diamond Orange",
            "pbrMetallicRoughness" : {
                "baseColorFactor" : [
                    0.800000011920929,
                    0.800000011920929,
                    0.800000011920929,
                    1
                ],
                "metallicFactor" : 0
            }
        },
        {
            "extensions" : {
                "KHR_materials_specular" : {
                    "specularColorFactor" : [
                        0,
                        0,
                        0
                    ]
                },
                "KHR_materials_ior" : {
                    "ior" : 1.4500000476837158
                }
            },
            "name" : "Tile White",
            "pbrMetallicRoughness" : {
                "baseColorFactor" : [
                    0.800000011920929,
                    0.800000011920929,
                    0.800000011920929,
                    1
                ],
                "metallicFactor" : 0
            }
        },
        {
            "extensions" : {
                "KHR_materials_specular" : {
                    "specularColorFactor" : [
                        0,
                        0,
                        0
                    ]
                },
                "KHR_materials_ior" : {
                    "ior" : 1.4500000476837158
                }
            },
            "name" : "Brick Random Vertical",
            "pbrMetallicRoughness" : {
                "baseColorFactor" : [
                    0.800000011920929,
                    0.800000011920929,
                    0.800000011920929,
                    1
                ],
                "metallicFactor" : 0
            }
        },
        {
            "extensions" : {
                "KHR_materials_specular" : {
                    "specularColorFactor" : [
                        0,
                        0,
                        0
                    ]
                },
                "KHR_materials_ior" : {
                    "ior" : 1.4500000476837158
                }
            },
            "name" : "Octagram Red Blue",
            "pbrMetallicRoughness" : {
                "baseColorFactor" : [
                    0.800000011920929,
                    0.800000011920929,
                    0.800000011920929,
                    1
                ],
                "metallicFactor" : 0
            }
        },
        {
            "extensions" : {
                "KHR_materials_specular" : {
                    "specularColorFactor" : [
                        0,
                        0,
                        0
                    ]
                },
                "KHR_materials_ior" : {
                    "ior" : 1.4500000476837158
                }
            },
            "name" : "Brick Gray Small",
            "pbrMetallicRoughness" : {
                "baseColorFactor" : [
                    0.800000011920929,
                    0.800000011920929,
                    0.800000011920929,
                    1
                ],
                "metallicFactor" : 0
            }
        }
    ],
    "meshes" : [
        {
            "name" : "stg040_o37_Mesh_0000",
            "primitives" : [
                {
                    "attributes" : {
                        "POSITION" : 0,
                        "NORMAL" : 1,
                        "TEXCOORD_0" : 2,
                        "COLOR_0" : 3
                    },
                    "indices" : 4,
                    "material" : 0
                }
            ]
        },
        {
            "name" : "stg040_o37_Mesh_0001",
            "primitives" : [
                {
                    "attributes" : {
                        "POSITION" : 5,
                        "NORMAL" : 6,
                        "TEXCOORD_0" : 7,
                        "COLOR_0" : 8
                    },
                    "indices" : 9,
                    "material" : 1
                }
            ]
        },
        {
            "name" : "stg040_o37_Mesh_0002",
            "primitives" : [
                {
                    "attributes" : {
                        "POSITION" : 10,
                        "NORMAL" : 11,
                        "TEXCOORD_0" : 12,
                        "COLOR_0" : 13
                    },
                    "indices" : 14,
                    "material" : 2
                }
            ]
        },
        {
            "name" : "stg040_o37_Mesh_0003",
            "primitives" : [
                {
                    "attributes" : {
                        "POSITION" : 15,
                        "NORMAL" : 16,
                        "TEXCOORD_0" : 17,
                        "COLOR_0" : 18
                    },
                    "indices" : 19,
                    "material" : 3
                }
            ]
        },
        {
            "name" : "stg040_o37_Mesh_0004",
            "primitives" : [
                {
                    "attributes" : {
                        "POSITION" : 20,
                        "NORMAL" : 21,
                        "TEXCOORD_0" : 22,
                        "COLOR_0" : 23
                    },
                    "indices" : 24,
                    "material" : 4
                }
            ]
        },
        {
            "name" : "stg040_o37_Mesh_0005",
            "primitives" : [
                {
                    "attributes" : {
                        "POSITION" : 25,
                        "NORMAL" : 26,
                        "TEXCOORD_0" : 27,
                        "COLOR_0" : 28
                    },
                    "indices" : 29,
                    "material" : 5
                }
            ]
        },
        {
            "name" : "stg040_o37_Mesh_0006",
            "primitives" : [
                {
                    "attributes" : {
                        "POSITION" : 30,
                        "NORMAL" : 31,
                        "TEXCOORD_0" : 32,
                        "COLOR_0" : 33
                    },
                    "indices" : 34,
                    "material" : 6
                }
            ]
        },
        {
            "name" : "stg040_o37_Mesh_0007",
            "primitives" : [
                {
                    "attributes" : {
                        "POSITION" : 35,
                        "NORMAL" : 36,
                        "TEXCOORD_0" : 37,
                        "COLOR_0" : 38
                    },
                    "indices" : 39,
                    "material" : 7
                }
            ]
        },
        {
            "name" : "stg040_o37_Mesh_0008",
            "primitives" : [
                {
                    "attributes" : {
                        "POSITION" : 40,
                        "NORMAL" : 41,
                        "TEXCOORD_0" : 42,
                        "COLOR_0" : 43
                    },
                    "indices" : 44,
                    "material" : 8
                }
            ]
        },
        {
            "name" : "stg040_o37_Mesh_0009",
            "primitives" : [
                {
                    "attributes" : {
                        "POSITION" : 45,
                        "NORMAL" : 46,
                        "TEXCOORD_0" : 47,
                        "COLOR_0" : 48
                    },
                    "indices" : 49,
                    "material" : 9
                }
            ]
        },
        {
            "name" : "stg040_o37_Mesh_0010",
            "primitives" : [
                {
                    "attributes" : {
                        "POSITION" : 50,
                        "NORMAL" : 51,
                        "TEXCOORD_0" : 52,
                        "COLOR_0" : 53
                    },
                    "indices" : 54,
                    "material" : 10
                }
            ]
        },
        {
            "name" : "stg040_o37_Mesh_0013",
            "primitives" : [
                {
                    "attributes" : {
                        "POSITION" : 55,
                        "NORMAL" : 56,
                        "TEXCOORD_0" : 57,
                        "COLOR_0" : 58
                    },
                    "indices" : 59,
                    "material" : 11
                }
            ]
        },
        {
            "name" : "stg040_o37_Mesh_0014",
            "primitives" : [
                {
                    "attributes" : {
                        "POSITION" : 60,
                        "NORMAL" : 61,
                        "TEXCOORD_0" : 62,
                        "COLOR_0" : 63
                    },
                    "indices" : 64,
                    "material" : 12
                }
            ]
        },
        {
            "name" : "stg040_o37_Mesh_0015",
            "primitives" : [
                {
                    "attributes" : {
                        "POSITION" : 65,
                        "NORMAL" : 66,
                        "TEXCOORD_0" : 67,
                        "COLOR_0" : 68
                    },
                    "indices" : 69,
                    "material" : 13
                }
            ]
        },
        {
            "name" : "stg040_o37_Mesh_0016",
            "primitives" : [
                {
                    "attributes" : {
                        "POSITION" : 70,
                        "NORMAL" : 71,
                        "TEXCOORD_0" : 72,
                        "COLOR_0" : 73
                    },
                    "indices" : 74,
                    "material" : 14
                }
            ]
        },
        {
            "name" : "stg040_o37_Mesh_0017",
            "primitives" : [
                {
                    "attributes" : {
                        "POSITION" : 75,
                        "NORMAL" : 76,
                        "TEXCOORD_0" : 77,
                        "COLOR_0" : 78
                    },
                    "indices" : 79,
                    "material" : 15
                }
            ]
        },
        {
            "name" : "stg040_o37_Mesh_0018",
            "primitives" : [
                {
                    "attributes" : {
                        "POSITION" : 80,
                        "NORMAL" : 81,
                        "TEXCOORD_0" : 82,
                        "COLOR_0" : 83
                    },
                    "indices" : 84,
                    "material" : 16
                }
            ]
        }
    ],
    "accessors" : [
        {
            "bufferView" : 0,
            "componentType" : 5126,
            "count" : 314,
            "max" : [
                910.2338256835938,
                2.5275511741638184,
                -488.1716003417969
            ],
            "min" : [
                889.7666015625,
                1.5491609573364258,
                -630.012939453125
            ],
            "type" : "VEC3"
        },
        {
            "bufferView" : 1,
            "componentType" : 5126,
            "count" : 314,
            "type" : "VEC3"
        },
        {
            "bufferView" : 2,
            "componentType" : 5126,
            "count" : 314,
            "type" : "VEC2"
        },
        {
            "bufferView" : 3,
            "componentType" : 5123,
            "count" : 314,
            "normalized" : true,
            "type" : "VEC4"
        },
        {
            "bufferView" : 4,
            "componentType" : 5123,
            "count" : 708,
            "type" : "SCALAR"
        },
        {
            "bufferView" : 5,
            "componentType" : 5126,
            "count" : 376,
            "max" : [
                910.2338256835938,
                1.549179196357727,
                -484.1457214355469
            ],
            "min" : [
                889.7666015625,
                8.255517604993656e-05,
                -630.0128784179688
            ],
            "type" : "VEC3"
        },
        {
            "bufferView" : 6,
            "componentType" : 5126,
            "count" : 376,
            "type" : "VEC3"
        },
        {
            "bufferView" : 7,
            "componentType" : 5126,
            "count" : 376,
            "type" : "VEC2"
        },
        {
            "bufferView" : 8,
            "componentType" : 5123,
            "count" : 376,
            "normalized" : true,
            "type" : "VEC4"
        },
        {
            "bufferView" : 9,
            "componentType" : 5123,
            "count" : 588,
            "type" : "SCALAR"
        },
        {
            "bufferView" : 10,
            "componentType" : 5126,
            "count" : 2724,
            "max" : [
                910.2338256835938,
                13.044997215270996,
                -484.2209777832031
            ],
            "min" : [
                889.7666015625,
                6.895648402860388e-05,
                -630.012939453125
            ],
            "type" : "VEC3"
        },
        {
            "bufferView" : 11,
            "componentType" : 5126,
            "count" : 2724,
            "type" : "VEC3"
        },
        {
            "bufferView" : 12,
            "componentType" : 5126,
            "count" : 2724,
            "type" : "VEC2"
        },
        {
            "bufferView" : 13,
            "componentType" : 5123,
            "count" : 2724,
            "normalized" : true,
            "type" : "VEC4"
        },
        {
            "bufferView" : 14,
            "componentType" : 5123,
            "count" : 5787,
            "type" : "SCALAR"
        },
        {
            "bufferView" : 15,
            "componentType" : 5126,
            "count" : 423,
            "max" : [
                910.2338256835938,
                12.23024845123291,
                -488.1716003417969
            ],
            "min" : [
                889.7666015625,
                6.895875412737951e-05,
                -630.012939453125
            ],
            "type" : "VEC3"
        },
        {
            "bufferView" : 16,
            "componentType" : 5126,
            "count" : 423,
            "type" : "VEC3"
        },
        {
            "bufferView" : 17,
            "componentType" : 5126,
            "count" : 423,
            "type" : "VEC2"
        },
        {
            "bufferView" : 18,
            "componentType" : 5123,
            "count" : 423,
            "normalized" : true,
            "type" : "VEC4"
        },
        {
            "bufferView" : 19,
            "componentType" : 5123,
            "count" : 780,
            "type" : "SCALAR"
        },
        {
            "bufferView" : 20,
            "componentType" : 5126,
            "count" : 325,
            "max" : [
                910.2338256835938,
                6.930197238922119,
                -484.3037414550781
            ],
            "min" : [
                889.7666015625,
                6.905455666128546e-05,
                -612.3297119140625
            ],
            "type" : "VEC3"
        },
        {
            "bufferView" : 21,
            "componentType" : 5126,
            "count" : 325,
            "type" : "VEC3"
        },
        {
            "bufferView" : 22,
            "componentType" : 5126,
            "count" : 325,
            "type" : "VEC2"
        },
        {
            "bufferView" : 23,
            "componentType" : 5123,
            "count" : 325,
            "normalized" : true,
            "type" : "VEC4"
        },
        {
            "bufferView" : 24,
            "componentType" : 5123,
            "count" : 540,
            "type" : "SCALAR"
        },
        {
            "bufferView" : 25,
            "componentType" : 5126,
            "count" : 78,
            "max" : [
                909.0299072265625,
                6.930201530456543,
                -497.0131530761719
            ],
            "min" : [
                890.9705200195312,
                8.097598765743896e-05,
                -620.4188842773438
            ],
            "type" : "VEC3"
        },
        {
            "bufferView" : 26,
            "componentType" : 5126,
            "count" : 78,
            "type" : "VEC3"
        },
        {
            "bufferView" : 27,
            "componentType" : 5126,
            "count" : 78,
            "type" : "VEC2"
        },
        {
            "bufferView" : 28,
            "componentType" : 5123,
            "count" : 78,
            "normalized" : true,
            "type" : "VEC4"
        },
        {
            "bufferView" : 29,
            "componentType" : 5123,
            "count" : 180,
            "type" : "SCALAR"
        },
        {
            "bufferView" : 30,
            "componentType" : 5126,
            "count" : 175,
            "max" : [
                909.66943359375,
                12.230525016784668,
                -507.3595886230469
            ],
            "min" : [
                890.3309936523438,
                7.26375675201416,
                -597.656494140625
            ],
            "type" : "VEC3"
        },
        {
            "bufferView" : 31,
            "componentType" : 5126,
            "count" : 175,
            "type" : "VEC3"
        },
        {
            "bufferView" : 32,
            "componentType" : 5126,
            "count" : 175,
            "type" : "VEC2"
        },
        {
            "bufferView" : 33,
            "componentType" : 5123,
            "count" : 175,
            "normalized" : true,
            "type" : "VEC4"
        },
        {
            "bufferView" : 34,
            "componentType" : 5123,
            "count" : 456,
            "type" : "SCALAR"
        },
        {
            "bufferView" : 35,
            "componentType" : 5126,
            "count" : 225,
            "max" : [
                910.2338256835938,
                12.80040454864502,
                -492.4982604980469
            ],
            "min" : [
                889.7666015625,
                2.772120475769043,
                -624.1812744140625
            ],
            "type" : "VEC3"
        },
        {
            "bufferView" : 36,
            "componentType" : 5126,
            "count" : 225,
            "type" : "VEC3"
        },
        {
            "bufferView" : 37,
            "componentType" : 5126,
            "count" : 225,
            "type" : "VEC2"
        },
        {
            "bufferView" : 38,
            "componentType" : 5123,
            "count" : 225,
            "normalized" : true,
            "type" : "VEC4"
        },
        {
            "bufferView" : 39,
            "componentType" : 5123,
            "count" : 552,
            "type" : "SCALAR"
        },
        {
            "bufferView" : 40,
            "componentType" : 5126,
            "count" : 515,
            "max" : [
                910.2338256835938,
                13.04499626159668,
                -484.4089050292969
            ],
            "min" : [
                889.7666015625,
                2.0383472442626953,
                -630.012939453125
            ],
            "type" : "VEC3"
        },
        {
            "bufferView" : 41,
            "componentType" : 5126,
            "count" : 515,
            "type" : "VEC3"
        },
        {
            "bufferView" : 42,
            "componentType" : 5126,
            "count" : 515,
            "type" : "VEC2"
        },
        {
            "bufferView" : 43,
            "componentType" : 5123,
            "count" : 515,
            "normalized" : true,
            "type" : "VEC4"
        },
        {
            "bufferView" : 44,
            "componentType" : 5123,
            "count" : 1053,
            "type" : "SCALAR"
        },
        {
            "bufferView" : 45,
            "componentType" : 5126,
            "count" : 32,
            "max" : [
                909.0299072265625,
                6.196425914764404,
                -488.1715393066406
            ],
            "min" : [
                890.9705200195312,
                2.5275278091430664,
                -628.508056640625
            ],
            "type" : "VEC3"
        },
        {
            "bufferView" : 46,
            "componentType" : 5126,
            "count" : 32,
            "type" : "VEC3"
        },
        {
            "bufferView" : 47,
            "componentType" : 5126,
            "count" : 32,
            "type" : "VEC2"
        },
        {
            "bufferView" : 48,
            "componentType" : 5123,
            "count" : 32,
            "normalized" : true,
            "type" : "VEC4"
        },
        {
            "bufferView" : 49,
            "componentType" : 5123,
            "count" : 78,
            "type" : "SCALAR"
        },
        {
            "bufferView" : 50,
            "componentType" : 5126,
            "count" : 74,
            "max" : [
                910.2338256835938,
                13.044997215270996,
                -488.1249084472656
            ],
            "min" : [
                889.7666015625,
                13.044973373413086,
                -630.012939453125
            ],
            "type" : "VEC3"
        },
        {
            "bufferView" : 51,
            "componentType" : 5126,
            "count" : 74,
            "type" : "VEC3"
        },
        {
            "bufferView" : 52,
            "componentType" : 5126,
            "count" : 74,
            "type" : "VEC2"
        },
        {
            "bufferView" : 53,
            "componentType" : 5123,
            "count" : 74,
            "normalized" : true,
            "type" : "VEC4"
        },
        {
            "bufferView" : 54,
            "componentType" : 5123,
            "count" : 192,
            "type" : "SCALAR"
        },
        {
            "bufferView" : 55,
            "componentType" : 5126,
            "count" : 48,
            "max" : [
                907.2615356445312,
                8.734552102396265e-05,
                -484.40911865234375
            ],
            "min" : [
                892.7388916015625,
                7.202132110251114e-05,
                -601.0426635742188
            ],
            "type" : "VEC3"
        },
        {
            "bufferView" : 56,
            "componentType" : 5126,
            "count" : 48,
            "type" : "VEC3"
        },
        {
            "bufferView" : 57,
            "componentType" : 5126,
            "count" : 48,
            "type" : "VEC2"
        },
        {
            "bufferView" : 58,
            "componentType" : 5123,
            "count" : 48,
            "normalized" : true,
            "type" : "VEC4"
        },
        {
            "bufferView" : 59,
            "componentType" : 5123,
            "count" : 108,
            "type" : "SCALAR"
        },
        {
            "bufferView" : 60,
            "componentType" : 5126,
            "count" : 46,
            "max" : [
                907.2615356445312,
                8.663447806611657e-05,
                -488.7735595703125
            ],
            "min" : [
                892.7388916015625,
                6.905455666128546e-05,
                -596.6783447265625
            ],
            "type" : "VEC3"
        },
        {
            "bufferView" : 61,
            "componentType" : 5126,
            "count" : 46,
            "type" : "VEC3"
        },
        {
            "bufferView" : 62,
            "componentType" : 5126,
            "count" : 46,
            "type" : "VEC2"
        },
        {
            "bufferView" : 63,
            "componentType" : 5123,
            "count" : 46,
            "normalized" : true,
            "type" : "VEC4"
        },
        {
            "bufferView" : 64,
            "componentType" : 5123,
            "count" : 78,
            "type" : "SCALAR"
        },
        {
            "bufferView" : 65,
            "componentType" : 5126,
            "count" : 24,
            "max" : [
                901.88134765625,
                8.918441744754091e-05,
                -488.7735595703125
            ],
            "min" : [
                898.1190795898438,
                6.905455666128546e-05,
                -612.3297119140625
            ],
            "type" : "VEC3"
        },
        {
            "bufferView" : 66,
            "componentType" : 5126,
            "count" : 24,
            "type" : "VEC3"
        },
        {
            "bufferView" : 67,
            "componentType" : 5126,
            "count" : 24,
            "type" : "VEC2"
        },
        {
            "bufferView" : 68,
            "componentType" : 5123,
            "count" : 24,
            "normalized" : true,
            "type" : "VEC4"
        },
        {
            "bufferView" : 69,
            "componentType" : 5123,
            "count" : 36,
            "type" : "SCALAR"
        },
        {
            "bufferView" : 70,
            "componentType" : 5126,
            "count" : 32,
            "max" : [
                908.8041381835938,
                0.00012001814320683479,
                -613.4622802734375
            ],
            "min" : [
                891.1964111328125,
                0.00011518540850374848,
                -629.7869873046875
            ],
            "type" : "VEC3"
        },
        {
            "bufferView" : 71,
            "componentType" : 5126,
            "count" : 32,
            "type" : "VEC3"
        },
        {
            "bufferView" : 72,
            "componentType" : 5126,
            "count" : 32,
            "type" : "VEC2"
        },
        {
            "bufferView" : 73,
            "componentType" : 5123,
            "count" : 32,
            "normalized" : true,
            "type" : "VEC4"
        },
        {
            "bufferView" : 74,
            "componentType" : 5123,
            "count" : 72,
            "type" : "SCALAR"
        },
        {
            "bufferView" : 75,
            "componentType" : 5126,
            "count" : 32,
            "max" : [
                905.1171264648438,
                0.0001195440418086946,
                -616.6188354492188
            ],
            "min" : [
                894.8834228515625,
                0.00011725474905688316,
                -626.8524780273438
            ],
            "type" : "VEC3"
        },
        {
            "bufferView" : 76,
            "componentType" : 5126,
            "count" : 32,
            "type" : "VEC3"
        },
        {
            "bufferView" : 77,
            "componentType" : 5126,
            "count" : 32,
            "type" : "VEC2"
        },
        {
            "bufferView" : 78,
            "componentType" : 5123,
            "count" : 32,
            "normalized" : true,
            "type" : "VEC4"
        },
        {
            "bufferView" : 79,
            "componentType" : 5123,
            "count" : 66,
            "type" : "SCALAR"
        },
        {
            "bufferView" : 80,
            "componentType" : 5126,
            "count" : 8,
            "max" : [
                907.2615356445312,
                8.918441744754091e-05,
                -601.6446533203125
            ],
            "min" : [
                892.7388916015625,
                8.744359365664423e-05,
                -612.3297119140625
            ],
            "type" : "VEC3"
        },
        {
            "bufferView" : 81,
            "componentType" : 5126,
            "count" : 8,
            "type" : "VEC3"
        },
        {
            "bufferView" : 82,
            "componentType" : 5126,
            "count" : 8,
            "type" : "VEC2"
        },
        {
            "bufferView" : 83,
            "componentType" : 5123,
            "count" : 8,
            "normalized" : true,
            "type" : "VEC4"
        },
        {
            "bufferView" : 84,
            "componentType" : 5123,
            "count" : 12,
            "type" : "SCALAR"
        }
    ],
    "bufferViews" : [
        {
            "buffer" : 0,
            "byteLength" : 3768,
            "byteOffset" : 0,
            "target" : 34962
        },
        {
            "buffer" : 0,
            "byteLength" : 3768,
            "byteOffset" : 3768,
            "target" : 34962
        },
        {
            "buffer" : 0,
            "byteLength" : 2512,
            "byteOffset" : 7536,
            "target" : 34962
        },
        {
            "buffer" : 0,
            "byteLength" : 2512,
            "byteOffset" : 10048,
            "target" : 34962
        },
        {
            "buffer" : 0,
            "byteLength" : 1416,
            "byteOffset" : 12560,
            "target" : 34963
        },
        {
            "buffer" : 0,
            "byteLength" : 4512,
            "byteOffset" : 13976,
            "target" : 34962
        },
        {
            "buffer" : 0,
            "byteLength" : 4512,
            "byteOffset" : 18488,
            "target" : 34962
        },
        {
            "buffer" : 0,
            "byteLength" : 3008,
            "byteOffset" : 23000,
            "target" : 34962
        },
        {
            "buffer" : 0,
            "byteLength" : 3008,
            "byteOffset" : 26008,
            "target" : 34962
        },
        {
            "buffer" : 0,
            "byteLength" : 1176,
            "byteOffset" : 29016,
            "target" : 34963
        },
        {
            "buffer" : 0,
            "byteLength" : 32688,
            "byteOffset" : 30192,
            "target" : 34962
        },
        {
            "buffer" : 0,
            "byteLength" : 32688,
            "byteOffset" : 62880,
            "target" : 34962
        },
        {
            "buffer" : 0,
            "byteLength" : 21792,
            "byteOffset" : 95568,
            "target" : 34962
        },
        {
            "buffer" : 0,
            "byteLength" : 21792,
            "byteOffset" : 117360,
            "target" : 34962
        },
        {
            "buffer" : 0,
            "byteLength" : 11574,
            "byteOffset" : 139152,
            "target" : 34963
        },
        {
            "buffer" : 0,
            "byteLength" : 5076,
            "byteOffset" : 150728,
            "target" : 34962
        },
        {
            "buffer" : 0,
            "byteLength" : 5076,
            "byteOffset" : 155804,
            "target" : 34962
        },
        {
            "buffer" : 0,
            "byteLength" : 3384,
            "byteOffset" : 160880,
            "target" : 34962
        },
        {
            "buffer" : 0,
            "byteLength" : 3384,
            "byteOffset" : 164264,
            "target" : 34962
        },
        {
            "buffer" : 0,
            "byteLength" : 1560,
            "byteOffset" : 167648,
            "target" : 34963
        },
        {
            "buffer" : 0,
            "byteLength" : 3900,
            "byteOffset" : 169208,
            "target" : 34962
        },
        {
            "buffer" : 0,
            "byteLength" : 3900,
            "byteOffset" : 173108,
            "target" : 34962
        },
        {
            "buffer" : 0,
            "byteLength" : 2600,
            "byteOffset" : 177008,
            "target" : 34962
        },
        {
            "buffer" : 0,
            "byteLength" : 2600,
            "byteOffset" : 179608,
            "target" : 34962
        },
        {
            "buffer" : 0,
            "byteLength" : 1080,
            "byteOffset" : 182208,
            "target" : 34963
        },
        {
            "buffer" : 0,
            "byteLength" : 936,
            "byteOffset" : 183288,
            "target" : 34962
        },
        {
            "buffer" : 0,
            "byteLength" : 936,
            "byteOffset" : 184224,
            "target" : 34962
        },
        {
            "buffer" : 0,
            "byteLength" : 624,
            "byteOffset" : 185160,
            "target" : 34962
        },
        {
            "buffer" : 0,
            "byteLength" : 624,
            "byteOffset" : 185784,
            "target" : 34962
        },
        {
            "buffer" : 0,
            "byteLength" : 360,
            "byteOffset" : 186408,
            "target" : 34963
        },
        {
            "buffer" : 0,
            "byteLength" : 2100,
            "byteOffset" : 186768,
            "target" : 34962
        },
        {
            "buffer" : 0,
            "byteLength" : 2100,
            "byteOffset" : 188868,
            "target" : 34962
        },
        {
            "buffer" : 0,
            "byteLength" : 1400,
            "byteOffset" : 190968,
            "target" : 34962
        },
        {
            "buffer" : 0,
            "byteLength" : 1400,
            "byteOffset" : 192368,
            "target" : 34962
        },
        {
            "buffer" : 0,
            "byteLength" : 912,
            "byteOffset" : 193768,
            "target" : 34963
        },
        {
            "buffer" : 0,
            "byteLength" : 2700,
            "byteOffset" : 194680,
            "target" : 34962
        },
        {
            "buffer" : 0,
            "byteLength" : 2700,
            "byteOffset" : 197380,
            "target" : 34962
        },
        {
            "buffer" : 0,
            "byteLength" : 1800,
            "byteOffset" : 200080,
            "target" : 34962
        },
        {
            "buffer" : 0,
            "byteLength" : 1800,
            "byteOffset" : 201880,
            "target" : 34962
        },
        {
            "buffer" : 0,
            "byteLength" : 1104,
            "byteOffset" : 203680,
            "target" : 34963
        },
        {
            "buffer" : 0,
            "byteLength" : 6180,
            "byteOffset" : 204784,
            "target" : 34962
        },
        {
            "buffer" : 0,
            "byteLength" : 6180,
            "byteOffset" : 210964,
            "target" : 34962
        },
        {
            "buffer" : 0,
            "byteLength" : 4120,
            "byteOffset" : 217144,
            "target" : 34962
        },
        {
            "buffer" : 0,
            "byteLength" : 4120,
            "byteOffset" : 221264,
            "target" : 34962
        },
        {
            "buffer" : 0,
            "byteLength" : 2106,
            "byteOffset" : 225384,
            "target" : 34963
        },
        {
            "buffer" : 0,
            "byteLength" : 384,
            "byteOffset" : 227492,
            "target" : 34962
        },
        {
            "buffer" : 0,
            "byteLength" : 384,
            "byteOffset" : 227876,
            "target" : 34962
        },
        {
            "buffer" : 0,
            "byteLength" : 256,
            "byteOffset" : 228260,
            "target" : 34962
        },
        {
            "buffer" : 0,
            "byteLength" : 256,
            "byteOffset" : 228516,
            "target" : 34962
        },
        {
            "buffer" : 0,
            "byteLength" : 156,
            "byteOffset" : 228772,
            "target" : 34963
        },
        {
            "buffer" : 0,
            "byteLength" : 888,
            "byteOffset" : 228928,
            "target" : 34962
        },
        {
            "buffer" : 0,
            "byteLength" : 888,
            "byteOffset" : 229816,
            "target" : 34962
        },
        {
            "buffer" : 0,
            "byteLength" : 592,
            "byteOffset" : 230704,
            "target" : 34962
        },
        {
            "buffer" : 0,
            "byteLength" : 592,
            "byteOffset" : 231296,
            "target" : 34962
        },
        {
            "buffer" : 0,
            "byteLength" : 384,
            "byteOffset" : 231888,
            "target" : 34963
        },
        {
            "buffer" : 0,
            "byteLength" : 576,
            "byteOffset" : 232272,
            "target" : 34962
        },
        {
            "buffer" : 0,
            "byteLength" : 576,
            "byteOffset" : 232848,
            "target" : 34962
        },
        {
            "buffer" : 0,
            "byteLength" : 384,
            "byteOffset" : 233424,
            "target" : 34962
        },
        {
            "buffer" : 0,
            "byteLength" : 384,
            "byteOffset" : 233808,
            "target" : 34962
        },
        {
            "buffer" : 0,
            "byteLength" : 216,
            "byteOffset" : 234192,
            "target" : 34963
        },
        {
            "buffer" : 0,
            "byteLength" : 552,
            "byteOffset" : 234408,
            "target" : 34962
        },
        {
            "buffer" : 0,
            "byteLength" : 552,
            "byteOffset" : 234960,
            "target" : 34962
        },
        {
            "buffer" : 0,
            "byteLength" : 368,
            "byteOffset" : 235512,
            "target" : 34962
        },
        {
            "buffer" : 0,
            "byteLength" : 368,
            "byteOffset" : 235880,
            "target" : 34962
        },
        {
            "buffer" : 0,
            "byteLength" : 156,
            "byteOffset" : 236248,
            "target" : 34963
        },
        {
            "buffer" : 0,
            "byteLength" : 288,
            "byteOffset" : 236404,
            "target" : 34962
        },
        {
            "buffer" : 0,
            "byteLength" : 288,
            "byteOffset" : 236692,
            "target" : 34962
        },
        {
            "buffer" : 0,
            "byteLength" : 192,
            "byteOffset" : 236980,
            "target" : 34962
        },
        {
            "buffer" : 0,
            "byteLength" : 192,
            "byteOffset" : 237172,
            "target" : 34962
        },
        {
            "buffer" : 0,
            "byteLength" : 72,
            "byteOffset" : 237364,
            "target" : 34963
        },
        {
            "buffer" : 0,
            "byteLength" : 384,
            "byteOffset" : 237436,
            "target" : 34962
        },
        {
            "buffer" : 0,
            "byteLength" : 384,
            "byteOffset" : 237820,
            "target" : 34962
        },
        {
            "buffer" : 0,
            "byteLength" : 256,
            "byteOffset" : 238204,
            "target" : 34962
        },
        {
            "buffer" : 0,
            "byteLength" : 256,
            "byteOffset" : 238460,
            "target" : 34962
        },
        {
            "buffer" : 0,
            "byteLength" : 144,
            "byteOffset" : 238716,
            "target" : 34963
        },
        {
            "buffer" : 0,
            "byteLength" : 384,
            "byteOffset" : 238860,
            "target" : 34962
        },
        {
            "buffer" : 0,
            "byteLength" : 384,
            "byteOffset" : 239244,
            "target" : 34962
        },
        {
            "buffer" : 0,
            "byteLength" : 256,
            "byteOffset" : 239628,
            "target" : 34962
        },
        {
            "buffer" : 0,
            "byteLength" : 256,
            "byteOffset" : 239884,
            "target" : 34962
        },
        {
            "buffer" : 0,
            "byteLength" : 132,
            "byteOffset" : 240140,
            "target" : 34963
        },
        {
            "buffer" : 0,
            "byteLength" : 96,
            "byteOffset" : 240272,
            "target" : 34962
        },
        {
            "buffer" : 0,
            "byteLength" : 96,
            "byteOffset" : 240368,
            "target" : 34962
        },
        {
            "buffer" : 0,
            "byteLength" : 64,
            "byteOffset" : 240464,
            "target" : 34962
        },
        {
            "buffer" : 0,
            "byteLength" : 64,
            "byteOffset" : 240528,
            "target" : 34962
        },
        {
            "buffer" : 0,
            "byteLength" : 24,
            "byteOffset" : 240592,
            "target" : 34963
        }
    ],
    "buffers" : [
        {
            "byteLength" : 240616,
            "uri" : "data:application/octet-stream;base64,"
        }
    ]
}
