{
    "asset" : {
        "generator" : "Khronos glTF Blender I/O v3.3.36",
        "version" : "2.0"
    },
    "extensionsUsed" : [
        "KHR_materials_specular",
        "KHR_materials_ior"
    ],
    "scene" : 0,
    "scenes" : [
        {
            "name" : "Scene",
            "nodes" : [
                14
            ]
        }
    ],
    "nodes" : [
        {
            "mesh" : 0,
            "name" : "SpacePillarBrokenFloorCollision1",
            "translation" : [
                0,
                1.140447974205017,
                -0.002414108021184802
            ]
        },
        {
            "mesh" : 1,
            "name" : "SpacePillarBrokenFloorCollision2",
            "translation" : [
                0.0066931103356182575,
                3.99666166305542,
                0.0027999915182590485
            ]
        },
        {
            "mesh" : 2,
            "name" : "SpacePillarBrokenFloorCollision3",
            "translation" : [
                0.06770820170640945,
                6.782847881317139,
                0.004412167705595493
            ]
        },
        {
            "mesh" : 3,
            "name" : "SpacePillarBrokenFloorCollision4",
            "translation" : [
                -0.16814501583576202,
                8.921794891357422,
                0.03414344787597656
            ]
        },
        {
            "name" : "piece3",
            "rotation" : [
                0.003966567572206259,
                0.002243220107629895,
                0.000408317893743515,
                0.9999895691871643
            ],
            "scale" : [
                0.9999999403953552,
                1,
                1
            ],
            "translation" : [
                0.06770819425582886,
                6.7828474044799805,
                0.004387620370835066
            ]
        },
        {
            "name" : "piece2",
            "rotation" : [
                0.00325532304123044,
                0.0014174607349559665,
                0.0006729798624292016,
                0.9999935030937195
            ],
            "translation" : [
                0.006693110801279545,
                3.996661424636841,
                0.002785519929602742
            ]
        },
        {
            "name" : "piece1",
            "rotation" : [
                0.0017462469404563308,
                -1.1082784222667179e-16,
                1.112164318261145e-16,
                0.9999985694885254
            ],
            "translation" : [
                2.3841863594498136e-07,
                1.1404480934143066,
                -0.002418235642835498
            ]
        },
        {
            "name" : "piece4",
            "rotation" : [
                0.0017466128338128328,
                -2.2305638935904426e-07,
                -2.653310673395026e-07,
                0.9999985694885254
            ],
            "translation" : [
                -0.16814500093460083,
                8.921794891357422,
                0.0341111496090889
            ]
        },
        {
            "children" : [
                4,
                5,
                6,
                7
            ],
            "name" : "root",
            "rotation" : [
                1.8288694718648912e-06,
                0,
                0,
                1
            ]
        },
        {
            "mesh" : 4,
            "name" : "SpacePillarBrokenMesh",
            "skin" : 0
        },
        {
            "mesh" : 5,
            "name" : "SpacePillarBrokenWallCollision1",
            "translation" : [
                0,
                1.140447974205017,
                -0.002414108021184802
            ]
        },
        {
            "mesh" : 6,
            "name" : "SpacePillarBrokenWallCollision2",
            "translation" : [
                0.0066931103356182575,
                3.99666166305542,
                0.0027999915182590485
            ]
        },
        {
            "mesh" : 7,
            "name" : "SpacePillarBrokenWallCollision3",
            "translation" : [
                0.06770820170640945,
                6.782847881317139,
                0.004412167705595493
            ]
        },
        {
            "mesh" : 8,
            "name" : "SpacePillarBrokenWallCollision4",
            "translation" : [
                -0.16814501583576202,
                8.921794891357422,
                0.03414344787597656
            ]
        },
        {
            "children" : [
                0,
                1,
                2,
                3,
                9,
                10,
                11,
                12,
                13,
                8
            ],
            "name" : "SpacePillarBrokenRoot"
        }
    ],
    "animations" : [
        {
            "channels" : [
                {
                    "sampler" : 0,
                    "target" : {
                        "node" : 8,
                        "path" : "translation"
                    }
                },
                {
                    "sampler" : 1,
                    "target" : {
                        "node" : 8,
                        "path" : "rotation"
                    }
                },
                {
                    "sampler" : 2,
                    "target" : {
                        "node" : 8,
                        "path" : "scale"
                    }
                },
                {
                    "sampler" : 3,
                    "target" : {
                        "node" : 4,
                        "path" : "translation"
                    }
                },
                {
                    "sampler" : 4,
                    "target" : {
                        "node" : 4,
                        "path" : "rotation"
                    }
                },
                {
                    "sampler" : 5,
                    "target" : {
                        "node" : 4,
                        "path" : "scale"
                    }
                },
                {
                    "sampler" : 6,
                    "target" : {
                        "node" : 5,
                        "path" : "translation"
                    }
                },
                {
                    "sampler" : 7,
                    "target" : {
                        "node" : 5,
                        "path" : "rotation"
                    }
                },
                {
                    "sampler" : 8,
                    "target" : {
                        "node" : 5,
                        "path" : "scale"
                    }
                },
                {
                    "sampler" : 9,
                    "target" : {
                        "node" : 6,
                        "path" : "translation"
                    }
                },
                {
                    "sampler" : 10,
                    "target" : {
                        "node" : 6,
                        "path" : "rotation"
                    }
                },
                {
                    "sampler" : 11,
                    "target" : {
                        "node" : 6,
                        "path" : "scale"
                    }
                },
                {
                    "sampler" : 12,
                    "target" : {
                        "node" : 7,
                        "path" : "translation"
                    }
                },
                {
                    "sampler" : 13,
                    "target" : {
                        "node" : 7,
                        "path" : "rotation"
                    }
                },
                {
                    "sampler" : 14,
                    "target" : {
                        "node" : 7,
                        "path" : "scale"
                    }
                }
            ],
            "name" : "event",
            "samplers" : [
                {
                    "input" : 76,
                    "interpolation" : "LINEAR",
                    "output" : 77
                },
                {
                    "input" : 76,
                    "interpolation" : "LINEAR",
                    "output" : 78
                },
                {
                    "input" : 76,
                    "interpolation" : "LINEAR",
                    "output" : 79
                },
                {
                    "input" : 76,
                    "interpolation" : "LINEAR",
                    "output" : 80
                },
                {
                    "input" : 76,
                    "interpolation" : "LINEAR",
                    "output" : 81
                },
                {
                    "input" : 76,
                    "interpolation" : "LINEAR",
                    "output" : 82
                },
                {
                    "input" : 76,
                    "interpolation" : "LINEAR",
                    "output" : 83
                },
                {
                    "input" : 76,
                    "interpolation" : "LINEAR",
                    "output" : 84
                },
                {
                    "input" : 76,
                    "interpolation" : "LINEAR",
                    "output" : 85
                },
                {
                    "input" : 76,
                    "interpolation" : "LINEAR",
                    "output" : 86
                },
                {
                    "input" : 76,
                    "interpolation" : "LINEAR",
                    "output" : 87
                },
                {
                    "input" : 76,
                    "interpolation" : "LINEAR",
                    "output" : 88
                },
                {
                    "input" : 76,
                    "interpolation" : "LINEAR",
                    "output" : 89
                },
                {
                    "input" : 76,
                    "interpolation" : "LINEAR",
                    "output" : 90
                },
                {
                    "input" : 76,
                    "interpolation" : "LINEAR",
                    "output" : 91
                }
            ]
        },
        {
            "channels" : [
                {
                    "sampler" : 0,
                    "target" : {
                        "node" : 8,
                        "path" : "translation"
                    }
                },
                {
                    "sampler" : 1,
                    "target" : {
                        "node" : 8,
                        "path" : "rotation"
                    }
                },
                {
                    "sampler" : 2,
                    "target" : {
                        "node" : 8,
                        "path" : "scale"
                    }
                },
                {
                    "sampler" : 3,
                    "target" : {
                        "node" : 4,
                        "path" : "translation"
                    }
                },
                {
                    "sampler" : 4,
                    "target" : {
                        "node" : 4,
                        "path" : "rotation"
                    }
                },
                {
                    "sampler" : 5,
                    "target" : {
                        "node" : 4,
                        "path" : "scale"
                    }
                },
                {
                    "sampler" : 6,
                    "target" : {
                        "node" : 5,
                        "path" : "translation"
                    }
                },
                {
                    "sampler" : 7,
                    "target" : {
                        "node" : 5,
                        "path" : "rotation"
                    }
                },
                {
                    "sampler" : 8,
                    "target" : {
                        "node" : 5,
                        "path" : "scale"
                    }
                },
                {
                    "sampler" : 9,
                    "target" : {
                        "node" : 6,
                        "path" : "translation"
                    }
                },
                {
                    "sampler" : 10,
                    "target" : {
                        "node" : 6,
                        "path" : "rotation"
                    }
                },
                {
                    "sampler" : 11,
                    "target" : {
                        "node" : 6,
                        "path" : "scale"
                    }
                },
                {
                    "sampler" : 12,
                    "target" : {
                        "node" : 7,
                        "path" : "translation"
                    }
                },
                {
                    "sampler" : 13,
                    "target" : {
                        "node" : 7,
                        "path" : "rotation"
                    }
                },
                {
                    "sampler" : 14,
                    "target" : {
                        "node" : 7,
                        "path" : "scale"
                    }
                }
            ],
            "name" : "event-deactivate",
            "samplers" : [
                {
                    "input" : 76,
                    "interpolation" : "LINEAR",
                    "output" : 92
                },
                {
                    "input" : 76,
                    "interpolation" : "LINEAR",
                    "output" : 93
                },
                {
                    "input" : 76,
                    "interpolation" : "LINEAR",
                    "output" : 94
                },
                {
                    "input" : 76,
                    "interpolation" : "LINEAR",
                    "output" : 95
                },
                {
                    "input" : 76,
                    "interpolation" : "LINEAR",
                    "output" : 96
                },
                {
                    "input" : 76,
                    "interpolation" : "LINEAR",
                    "output" : 97
                },
                {
                    "input" : 76,
                    "interpolation" : "LINEAR",
                    "output" : 98
                },
                {
                    "input" : 76,
                    "interpolation" : "LINEAR",
                    "output" : 99
                },
                {
                    "input" : 76,
                    "interpolation" : "LINEAR",
                    "output" : 100
                },
                {
                    "input" : 76,
                    "interpolation" : "LINEAR",
                    "output" : 101
                },
                {
                    "input" : 76,
                    "interpolation" : "LINEAR",
                    "output" : 102
                },
                {
                    "input" : 76,
                    "interpolation" : "LINEAR",
                    "output" : 103
                },
                {
                    "input" : 76,
                    "interpolation" : "LINEAR",
                    "output" : 104
                },
                {
                    "input" : 76,
                    "interpolation" : "LINEAR",
                    "output" : 105
                },
                {
                    "input" : 76,
                    "interpolation" : "LINEAR",
                    "output" : 106
                }
            ]
        },
        {
            "channels" : [
                {
                    "sampler" : 0,
                    "target" : {
                        "node" : 8,
                        "path" : "translation"
                    }
                },
                {
                    "sampler" : 1,
                    "target" : {
                        "node" : 8,
                        "path" : "rotation"
                    }
                },
                {
                    "sampler" : 2,
                    "target" : {
                        "node" : 8,
                        "path" : "scale"
                    }
                },
                {
                    "sampler" : 3,
                    "target" : {
                        "node" : 4,
                        "path" : "translation"
                    }
                },
                {
                    "sampler" : 4,
                    "target" : {
                        "node" : 4,
                        "path" : "rotation"
                    }
                },
                {
                    "sampler" : 5,
                    "target" : {
                        "node" : 4,
                        "path" : "scale"
                    }
                },
                {
                    "sampler" : 6,
                    "target" : {
                        "node" : 5,
                        "path" : "translation"
                    }
                },
                {
                    "sampler" : 7,
                    "target" : {
                        "node" : 5,
                        "path" : "rotation"
                    }
                },
                {
                    "sampler" : 8,
                    "target" : {
                        "node" : 5,
                        "path" : "scale"
                    }
                },
                {
                    "sampler" : 9,
                    "target" : {
                        "node" : 6,
                        "path" : "translation"
                    }
                },
                {
                    "sampler" : 10,
                    "target" : {
                        "node" : 6,
                        "path" : "rotation"
                    }
                },
                {
                    "sampler" : 11,
                    "target" : {
                        "node" : 6,
                        "path" : "scale"
                    }
                },
                {
                    "sampler" : 12,
                    "target" : {
                        "node" : 7,
                        "path" : "translation"
                    }
                },
                {
                    "sampler" : 13,
                    "target" : {
                        "node" : 7,
                        "path" : "rotation"
                    }
                },
                {
                    "sampler" : 14,
                    "target" : {
                        "node" : 7,
                        "path" : "scale"
                    }
                }
            ],
            "name" : "RESET",
            "samplers" : [
                {
                    "input" : 107,
                    "interpolation" : "LINEAR",
                    "output" : 108
                },
                {
                    "input" : 107,
                    "interpolation" : "LINEAR",
                    "output" : 109
                },
                {
                    "input" : 107,
                    "interpolation" : "LINEAR",
                    "output" : 110
                },
                {
                    "input" : 107,
                    "interpolation" : "LINEAR",
                    "output" : 111
                },
                {
                    "input" : 107,
                    "interpolation" : "LINEAR",
                    "output" : 112
                },
                {
                    "input" : 107,
                    "interpolation" : "LINEAR",
                    "output" : 113
                },
                {
                    "input" : 107,
                    "interpolation" : "LINEAR",
                    "output" : 114
                },
                {
                    "input" : 107,
                    "interpolation" : "LINEAR",
                    "output" : 115
                },
                {
                    "input" : 107,
                    "interpolation" : "LINEAR",
                    "output" : 116
                },
                {
                    "input" : 107,
                    "interpolation" : "LINEAR",
                    "output" : 117
                },
                {
                    "input" : 107,
                    "interpolation" : "LINEAR",
                    "output" : 118
                },
                {
                    "input" : 107,
                    "interpolation" : "LINEAR",
                    "output" : 119
                },
                {
                    "input" : 107,
                    "interpolation" : "LINEAR",
                    "output" : 120
                },
                {
                    "input" : 107,
                    "interpolation" : "LINEAR",
                    "output" : 121
                },
                {
                    "input" : 107,
                    "interpolation" : "LINEAR",
                    "output" : 122
                }
            ]
        }
    ],
    "materials" : [
        {
            "alphaCutoff" : 0.5,
            "alphaMode" : "MASK",
            "extensions" : {
                "KHR_materials_specular" : {
                    "specularColorFactor" : [
                        0,
                        0,
                        0
                    ]
                },
                "KHR_materials_ior" : {
                    "ior" : 1.4500000476837158
                }
            },
            "name" : "Staircase",
            "pbrMetallicRoughness" : {
                "baseColorFactor" : [
                    0.800000011920929,
                    0.800000011920929,
                    0.800000011920929,
                    1
                ],
                "metallicFactor" : 0
            }
        },
        {
            "extensions" : {
                "KHR_materials_specular" : {
                    "specularColorFactor" : [
                        0,
                        0,
                        0
                    ]
                },
                "KHR_materials_ior" : {
                    "ior" : 1.4500000476837158
                }
            },
            "name" : "Space Pillar",
            "pbrMetallicRoughness" : {
                "baseColorFactor" : [
                    0.800000011920929,
                    0.800000011920929,
                    0.800000011920929,
                    1
                ],
                "metallicFactor" : 0
            }
        },
        {
            "doubleSided" : true,
            "extensions" : {
                "KHR_materials_specular" : {
                    "specularColorFactor" : [
                        0,
                        0,
                        0
                    ]
                },
                "KHR_materials_ior" : {
                    "ior" : 1.4500000476837158
                }
            },
            "name" : "Space Specular",
            "pbrMetallicRoughness" : {
                "baseColorFactor" : [
                    0.800000011920929,
                    0.800000011920929,
                    0.800000011920929,
                    1
                ],
                "metallicFactor" : 0
            }
        },
        {
            "extensions" : {
                "KHR_materials_specular" : {
                    "specularColorFactor" : [
                        0,
                        0,
                        0
                    ]
                },
                "KHR_materials_ior" : {
                    "ior" : 1.4500000476837158
                }
            },
            "name" : "Space Pillar Tip",
            "pbrMetallicRoughness" : {
                "baseColorFactor" : [
                    0.800000011920929,
                    0.800000011920929,
                    0.800000011920929,
                    1
                ],
                "metallicFactor" : 0
            }
        },
        {
            "extensions" : {
                "KHR_materials_specular" : {
                    "specularColorFactor" : [
                        0,
                        0,
                        0
                    ]
                },
                "KHR_materials_ior" : {
                    "ior" : 1.4500000476837158
                }
            },
            "name" : "Space Pillar Trim",
            "pbrMetallicRoughness" : {
                "baseColorFactor" : [
                    0.800000011920929,
                    0.800000011920929,
                    0.800000011920929,
                    1
                ],
                "metallicFactor" : 0
            }
        }
    ],
    "meshes" : [
        {
            "name" : "SpacePillarBrokenFloorCollision1",
            "primitives" : [
                {
                    "attributes" : {
                        "POSITION" : 0,
                        "NORMAL" : 1,
                        "TEXCOORD_0" : 2,
                        "COLOR_0" : 3
                    },
                    "indices" : 4
                }
            ]
        },
        {
            "name" : "SpacePillarBrokenFloorCollision2",
            "primitives" : [
                {
                    "attributes" : {
                        "POSITION" : 5,
                        "NORMAL" : 6,
                        "TEXCOORD_0" : 7,
                        "COLOR_0" : 8
                    },
                    "indices" : 9
                }
            ]
        },
        {
            "name" : "SpacePillarBrokenFloorCollision3",
            "primitives" : [
                {
                    "attributes" : {
                        "POSITION" : 10,
                        "NORMAL" : 11,
                        "TEXCOORD_0" : 12,
                        "COLOR_0" : 13
                    },
                    "indices" : 14
                }
            ]
        },
        {
            "name" : "SpacePillarBrokenFloorCollision4",
            "primitives" : [
                {
                    "attributes" : {
                        "POSITION" : 15,
                        "NORMAL" : 16,
                        "TEXCOORD_0" : 17,
                        "COLOR_0" : 18
                    },
                    "indices" : 19
                }
            ]
        },
        {
            "name" : "SpacePillarBrokenMesh",
            "primitives" : [
                {
                    "attributes" : {
                        "POSITION" : 20,
                        "NORMAL" : 21,
                        "TEXCOORD_0" : 22,
                        "COLOR_0" : 23,
                        "JOINTS_0" : 24,
                        "WEIGHTS_0" : 25
                    },
                    "indices" : 26,
                    "material" : 0
                },
                {
                    "attributes" : {
                        "POSITION" : 27,
                        "NORMAL" : 28,
                        "TEXCOORD_0" : 29,
                        "COLOR_0" : 30,
                        "JOINTS_0" : 31,
                        "WEIGHTS_0" : 32
                    },
                    "indices" : 33,
                    "material" : 1
                },
                {
                    "attributes" : {
                        "POSITION" : 34,
                        "NORMAL" : 35,
                        "TEXCOORD_0" : 36,
                        "COLOR_0" : 37,
                        "JOINTS_0" : 38,
                        "WEIGHTS_0" : 39
                    },
                    "indices" : 40,
                    "material" : 2
                },
                {
                    "attributes" : {
                        "POSITION" : 41,
                        "NORMAL" : 42,
                        "TEXCOORD_0" : 43,
                        "COLOR_0" : 44,
                        "JOINTS_0" : 45,
                        "WEIGHTS_0" : 46
                    },
                    "indices" : 47,
                    "material" : 3
                },
                {
                    "attributes" : {
                        "POSITION" : 48,
                        "NORMAL" : 49,
                        "TEXCOORD_0" : 50,
                        "COLOR_0" : 51,
                        "JOINTS_0" : 52,
                        "WEIGHTS_0" : 53
                    },
                    "indices" : 54,
                    "material" : 4
                }
            ]
        },
        {
            "name" : "SpacePillarBrokenWallCollision1",
            "primitives" : [
                {
                    "attributes" : {
                        "POSITION" : 56,
                        "NORMAL" : 57,
                        "TEXCOORD_0" : 58,
                        "COLOR_0" : 59
                    },
                    "indices" : 60
                }
            ]
        },
        {
            "name" : "SpacePillarBrokenWallCollision2",
            "primitives" : [
                {
                    "attributes" : {
                        "POSITION" : 61,
                        "NORMAL" : 62,
                        "TEXCOORD_0" : 63,
                        "COLOR_0" : 64
                    },
                    "indices" : 65
                }
            ]
        },
        {
            "name" : "SpacePillarBrokenWallCollision3",
            "primitives" : [
                {
                    "attributes" : {
                        "POSITION" : 66,
                        "NORMAL" : 67,
                        "TEXCOORD_0" : 68,
                        "COLOR_0" : 69
                    },
                    "indices" : 70
                }
            ]
        },
        {
            "name" : "SpacePillarBrokenWallCollision4",
            "primitives" : [
                {
                    "attributes" : {
                        "POSITION" : 71,
                        "NORMAL" : 72,
                        "TEXCOORD_0" : 73,
                        "COLOR_0" : 74
                    },
                    "indices" : 75
                }
            ]
        }
    ],
    "skins" : [
        {
            "inverseBindMatrices" : 55,
            "joints" : [
                8,
                4,
                5,
                6,
                7
            ],
            "name" : "SpacePillarBrokenRoot"
        }
    ],
    "accessors" : [
        {
            "bufferView" : 0,
            "componentType" : 5126,
            "count" : 16,
            "max" : [
                0.36158502101898193,
                1.1137168407440186,
                0.623257577419281
            ],
            "min" : [
                -0.3615850806236267,
                -1.1405208110809326,
                0.433696985244751
            ],
            "type" : "VEC3"
        },
        {
            "bufferView" : 1,
            "componentType" : 5126,
            "count" : 16,
            "type" : "VEC3"
        },
        {
            "bufferView" : 2,
            "componentType" : 5126,
            "count" : 16,
            "type" : "VEC2"
        },
        {
            "bufferView" : 3,
            "componentType" : 5123,
            "count" : 16,
            "normalized" : true,
            "type" : "VEC4"
        },
        {
            "bufferView" : 4,
            "componentType" : 5123,
            "count" : 24,
            "type" : "SCALAR"
        },
        {
            "bufferView" : 5,
            "componentType" : 5126,
            "count" : 4,
            "max" : [
                0.2545984983444214,
                1.1421945095062256,
                0.4429802894592285
            ],
            "min" : [
                -0.2513371706008911,
                -1.7682430744171143,
                0.42277073860168457
            ],
            "type" : "VEC3"
        },
        {
            "bufferView" : 6,
            "componentType" : 5126,
            "count" : 4,
            "type" : "VEC3"
        },
        {
            "bufferView" : 7,
            "componentType" : 5126,
            "count" : 4,
            "type" : "VEC2"
        },
        {
            "bufferView" : 8,
            "componentType" : 5123,
            "count" : 4,
            "normalized" : true,
            "type" : "VEC4"
        },
        {
            "bufferView" : 9,
            "componentType" : 5123,
            "count" : 6,
            "type" : "SCALAR"
        },
        {
            "bufferView" : 10,
            "componentType" : 5126,
            "count" : 12,
            "max" : [
                0.4710008502006531,
                1.3332910537719727,
                0.9182038307189941
            ],
            "min" : [
                -0.5297564268112183,
                -1.8337321281433105,
                0.4193992614746094
            ],
            "type" : "VEC3"
        },
        {
            "bufferView" : 11,
            "componentType" : 5126,
            "count" : 12,
            "type" : "VEC3"
        },
        {
            "bufferView" : 12,
            "componentType" : 5126,
            "count" : 12,
            "type" : "VEC2"
        },
        {
            "bufferView" : 13,
            "componentType" : 5123,
            "count" : 12,
            "normalized" : true,
            "type" : "VEC4"
        },
        {
            "bufferView" : 14,
            "componentType" : 5123,
            "count" : 18,
            "type" : "SCALAR"
        },
        {
            "bufferView" : 15,
            "componentType" : 5126,
            "count" : 15,
            "max" : [
                0.4668198823928833,
                1.0524730682373047,
                -0.05604362487792969
            ],
            "min" : [
                -0.31926095485687256,
                -0.7974338531494141,
                -0.8784151077270508
            ],
            "type" : "VEC3"
        },
        {
            "bufferView" : 16,
            "componentType" : 5126,
            "count" : 15,
            "type" : "VEC3"
        },
        {
            "bufferView" : 17,
            "componentType" : 5126,
            "count" : 15,
            "type" : "VEC2"
        },
        {
            "bufferView" : 18,
            "componentType" : 5123,
            "count" : 15,
            "normalized" : true,
            "type" : "VEC4"
        },
        {
            "bufferView" : 19,
            "componentType" : 5123,
            "count" : 21,
            "type" : "SCALAR"
        },
        {
            "bufferView" : 20,
            "componentType" : 5126,
            "count" : 340,
            "max" : [
                1.048147201538086,
                1.7993086576461792,
                -0.6286962032318115
            ],
            "min" : [
                -1.0504326820373535,
                -0.020911898463964462,
                -9.879829406738281
            ],
            "type" : "VEC3"
        },
        {
            "bufferView" : 21,
            "componentType" : 5126,
            "count" : 340,
            "type" : "VEC3"
        },
        {
            "bufferView" : 22,
            "componentType" : 5126,
            "count" : 340,
            "type" : "VEC2"
        },
        {
            "bufferView" : 23,
            "componentType" : 5123,
            "count" : 340,
            "normalized" : true,
            "type" : "VEC4"
        },
        {
            "bufferView" : 24,
            "componentType" : 5121,
            "count" : 340,
            "type" : "VEC4"
        },
        {
            "bufferView" : 25,
            "componentType" : 5126,
            "count" : 340,
            "type" : "VEC4"
        },
        {
            "bufferView" : 26,
            "componentType" : 5123,
            "count" : 642,
            "type" : "SCALAR"
        },
        {
            "bufferView" : 27,
            "componentType" : 5126,
            "count" : 80,
            "max" : [
                0.5126455426216125,
                1.325945258140564,
                -1.4480243921279907
            ],
            "min" : [
                -0.5089340209960938,
                0.19194012880325317,
                -6.931974411010742
            ],
            "type" : "VEC3"
        },
        {
            "bufferView" : 28,
            "componentType" : 5126,
            "count" : 80,
            "type" : "VEC3"
        },
        {
            "bufferView" : 29,
            "componentType" : 5126,
            "count" : 80,
            "type" : "VEC2"
        },
        {
            "bufferView" : 30,
            "componentType" : 5123,
            "count" : 80,
            "normalized" : true,
            "type" : "VEC4"
        },
        {
            "bufferView" : 31,
            "componentType" : 5121,
            "count" : 80,
            "type" : "VEC4"
        },
        {
            "bufferView" : 32,
            "componentType" : 5126,
            "count" : 80,
            "type" : "VEC4"
        },
        {
            "bufferView" : 33,
            "componentType" : 5123,
            "count" : 204,
            "type" : "SCALAR"
        },
        {
            "bufferView" : 34,
            "componentType" : 5126,
            "count" : 423,
            "max" : [
                1.067418098449707,
                1.7989814281463623,
                -0.6286962032318115
            ],
            "min" : [
                -1.0619481801986694,
                -0.03419877216219902,
                -10.642739295959473
            ],
            "type" : "VEC3"
        },
        {
            "bufferView" : 35,
            "componentType" : 5126,
            "count" : 423,
            "type" : "VEC3"
        },
        {
            "bufferView" : 36,
            "componentType" : 5126,
            "count" : 423,
            "type" : "VEC2"
        },
        {
            "bufferView" : 37,
            "componentType" : 5123,
            "count" : 423,
            "normalized" : true,
            "type" : "VEC4"
        },
        {
            "bufferView" : 38,
            "componentType" : 5121,
            "count" : 423,
            "type" : "VEC4"
        },
        {
            "bufferView" : 39,
            "componentType" : 5126,
            "count" : 423,
            "type" : "VEC4"
        },
        {
            "bufferView" : 40,
            "componentType" : 5123,
            "count" : 759,
            "type" : "SCALAR"
        },
        {
            "bufferView" : 41,
            "componentType" : 5126,
            "count" : 24,
            "max" : [
                0.28279587626457214,
                1.1232343912124634,
                -9.8781156539917
            ],
            "min" : [
                -0.2827951908111572,
                0.6334212422370911,
                -10.641815185546875
            ],
            "type" : "VEC3"
        },
        {
            "bufferView" : 42,
            "componentType" : 5126,
            "count" : 24,
            "type" : "VEC3"
        },
        {
            "bufferView" : 43,
            "componentType" : 5126,
            "count" : 24,
            "type" : "VEC2"
        },
        {
            "bufferView" : 44,
            "componentType" : 5123,
            "count" : 24,
            "normalized" : true,
            "type" : "VEC4"
        },
        {
            "bufferView" : 45,
            "componentType" : 5121,
            "count" : 24,
            "type" : "VEC4"
        },
        {
            "bufferView" : 46,
            "componentType" : 5126,
            "count" : 24,
            "type" : "VEC4"
        },
        {
            "bufferView" : 47,
            "componentType" : 5123,
            "count" : 36,
            "type" : "SCALAR"
        },
        {
            "bufferView" : 48,
            "componentType" : 5126,
            "count" : 74,
            "max" : [
                0.8467091917991638,
                1.6247773170471191,
                -7.140740394592285
            ],
            "min" : [
                -0.8489915728569031,
                0.1392745077610016,
                -9.282244682312012
            ],
            "type" : "VEC3"
        },
        {
            "bufferView" : 49,
            "componentType" : 5126,
            "count" : 74,
            "type" : "VEC3"
        },
        {
            "bufferView" : 50,
            "componentType" : 5126,
            "count" : 74,
            "type" : "VEC2"
        },
        {
            "bufferView" : 51,
            "componentType" : 5123,
            "count" : 74,
            "normalized" : true,
            "type" : "VEC4"
        },
        {
            "bufferView" : 52,
            "componentType" : 5121,
            "count" : 74,
            "type" : "VEC4"
        },
        {
            "bufferView" : 53,
            "componentType" : 5126,
            "count" : 74,
            "type" : "VEC4"
        },
        {
            "bufferView" : 54,
            "componentType" : 5123,
            "count" : 174,
            "type" : "SCALAR"
        },
        {
            "bufferView" : 55,
            "componentType" : 5126,
            "count" : 5,
            "type" : "MAT4"
        },
        {
            "bufferView" : 56,
            "componentType" : 5126,
            "count" : 74,
            "max" : [
                0.7231700420379639,
                1.1398506164550781,
                0.623257577419281
            ],
            "min" : [
                -0.7231700420379639,
                -1.1405208110809326,
                -0.6302589774131775
            ],
            "type" : "VEC3"
        },
        {
            "bufferView" : 57,
            "componentType" : 5126,
            "count" : 74,
            "type" : "VEC3"
        },
        {
            "bufferView" : 58,
            "componentType" : 5126,
            "count" : 74,
            "type" : "VEC2"
        },
        {
            "bufferView" : 59,
            "componentType" : 5123,
            "count" : 74,
            "normalized" : true,
            "type" : "VEC4"
        },
        {
            "bufferView" : 60,
            "componentType" : 5123,
            "count" : 150,
            "type" : "SCALAR"
        },
        {
            "bufferView" : 61,
            "componentType" : 5126,
            "count" : 34,
            "max" : [
                0.5044089555740356,
                1.8727295398712158,
                0.4429802894592285
            ],
            "min" : [
                -0.5042600035667419,
                -1.870917797088623,
                -0.44669151306152344
            ],
            "type" : "VEC3"
        },
        {
            "bufferView" : 62,
            "componentType" : 5126,
            "count" : 34,
            "type" : "VEC3"
        },
        {
            "bufferView" : 63,
            "componentType" : 5126,
            "count" : 34,
            "type" : "VEC2"
        },
        {
            "bufferView" : 64,
            "componentType" : 5123,
            "count" : 34,
            "normalized" : true,
            "type" : "VEC4"
        },
        {
            "bufferView" : 65,
            "componentType" : 5123,
            "count" : 54,
            "type" : "SCALAR"
        },
        {
            "bufferView" : 66,
            "componentType" : 5126,
            "count" : 104,
            "max" : [
                0.992127001285553,
                1.8364896774291992,
                0.9182038307189941
            ],
            "min" : [
                -0.9940668940544128,
                -1.8337321281433105,
                -0.901123046875
            ],
            "type" : "VEC3"
        },
        {
            "bufferView" : 67,
            "componentType" : 5126,
            "count" : 104,
            "type" : "VEC3"
        },
        {
            "bufferView" : 68,
            "componentType" : 5126,
            "count" : 104,
            "type" : "VEC2"
        },
        {
            "bufferView" : 69,
            "componentType" : 5123,
            "count" : 104,
            "normalized" : true,
            "type" : "VEC4"
        },
        {
            "bufferView" : 70,
            "componentType" : 5123,
            "count" : 174,
            "type" : "SCALAR"
        },
        {
            "bufferView" : 71,
            "componentType" : 5126,
            "count" : 178,
            "max" : [
                0.8908026814460754,
                1.0524730682373047,
                0.8741540908813477
            ],
            "min" : [
                -0.8822878003120422,
                -1.052154541015625,
                -0.8784151077270508
            ],
            "type" : "VEC3"
        },
        {
            "bufferView" : 72,
            "componentType" : 5126,
            "count" : 178,
            "type" : "VEC3"
        },
        {
            "bufferView" : 73,
            "componentType" : 5126,
            "count" : 178,
            "type" : "VEC2"
        },
        {
            "bufferView" : 74,
            "componentType" : 5123,
            "count" : 178,
            "normalized" : true,
            "type" : "VEC4"
        },
        {
            "bufferView" : 75,
            "componentType" : 5123,
            "count" : 306,
            "type" : "SCALAR"
        },
        {
            "bufferView" : 76,
            "componentType" : 5126,
            "count" : 31,
            "max" : [
                1
            ],
            "min" : [
                0
            ],
            "type" : "SCALAR"
        },
        {
            "bufferView" : 77,
            "componentType" : 5126,
            "count" : 31,
            "type" : "VEC3"
        },
        {
            "bufferView" : 78,
            "componentType" : 5126,
            "count" : 31,
            "type" : "VEC4"
        },
        {
            "bufferView" : 79,
            "componentType" : 5126,
            "count" : 31,
            "type" : "VEC3"
        },
        {
            "bufferView" : 80,
            "componentType" : 5126,
            "count" : 31,
            "type" : "VEC3"
        },
        {
            "bufferView" : 81,
            "componentType" : 5126,
            "count" : 31,
            "type" : "VEC4"
        },
        {
            "bufferView" : 82,
            "componentType" : 5126,
            "count" : 31,
            "type" : "VEC3"
        },
        {
            "bufferView" : 83,
            "componentType" : 5126,
            "count" : 31,
            "type" : "VEC3"
        },
        {
            "bufferView" : 84,
            "componentType" : 5126,
            "count" : 31,
            "type" : "VEC4"
        },
        {
            "bufferView" : 85,
            "componentType" : 5126,
            "count" : 31,
            "type" : "VEC3"
        },
        {
            "bufferView" : 86,
            "componentType" : 5126,
            "count" : 31,
            "type" : "VEC3"
        },
        {
            "bufferView" : 87,
            "componentType" : 5126,
            "count" : 31,
            "type" : "VEC4"
        },
        {
            "bufferView" : 88,
            "componentType" : 5126,
            "count" : 31,
            "type" : "VEC3"
        },
        {
            "bufferView" : 89,
            "componentType" : 5126,
            "count" : 31,
            "type" : "VEC3"
        },
        {
            "bufferView" : 90,
            "componentType" : 5126,
            "count" : 31,
            "type" : "VEC4"
        },
        {
            "bufferView" : 91,
            "componentType" : 5126,
            "count" : 31,
            "type" : "VEC3"
        },
        {
            "bufferView" : 92,
            "componentType" : 5126,
            "count" : 31,
            "type" : "VEC3"
        },
        {
            "bufferView" : 93,
            "componentType" : 5126,
            "count" : 31,
            "type" : "VEC4"
        },
        {
            "bufferView" : 94,
            "componentType" : 5126,
            "count" : 31,
            "type" : "VEC3"
        },
        {
            "bufferView" : 95,
            "componentType" : 5126,
            "count" : 31,
            "type" : "VEC3"
        },
        {
            "bufferView" : 96,
            "componentType" : 5126,
            "count" : 31,
            "type" : "VEC4"
        },
        {
            "bufferView" : 97,
            "componentType" : 5126,
            "count" : 31,
            "type" : "VEC3"
        },
        {
            "bufferView" : 98,
            "componentType" : 5126,
            "count" : 31,
            "type" : "VEC3"
        },
        {
            "bufferView" : 99,
            "componentType" : 5126,
            "count" : 31,
            "type" : "VEC4"
        },
        {
            "bufferView" : 100,
            "componentType" : 5126,
            "count" : 31,
            "type" : "VEC3"
        },
        {
            "bufferView" : 101,
            "componentType" : 5126,
            "count" : 31,
            "type" : "VEC3"
        },
        {
            "bufferView" : 102,
            "componentType" : 5126,
            "count" : 31,
            "type" : "VEC4"
        },
        {
            "bufferView" : 103,
            "componentType" : 5126,
            "count" : 31,
            "type" : "VEC3"
        },
        {
            "bufferView" : 104,
            "componentType" : 5126,
            "count" : 31,
            "type" : "VEC3"
        },
        {
            "bufferView" : 105,
            "componentType" : 5126,
            "count" : 31,
            "type" : "VEC4"
        },
        {
            "bufferView" : 106,
            "componentType" : 5126,
            "count" : 31,
            "type" : "VEC3"
        },
        {
            "bufferView" : 107,
            "componentType" : 5126,
            "count" : 1,
            "max" : [
                0
            ],
            "min" : [
                0
            ],
            "type" : "SCALAR"
        },
        {
            "bufferView" : 108,
            "componentType" : 5126,
            "count" : 1,
            "type" : "VEC3"
        },
        {
            "bufferView" : 109,
            "componentType" : 5126,
            "count" : 1,
            "type" : "VEC4"
        },
        {
            "bufferView" : 110,
            "componentType" : 5126,
            "count" : 1,
            "type" : "VEC3"
        },
        {
            "bufferView" : 111,
            "componentType" : 5126,
            "count" : 1,
            "type" : "VEC3"
        },
        {
            "bufferView" : 112,
            "componentType" : 5126,
            "count" : 1,
            "type" : "VEC4"
        },
        {
            "bufferView" : 113,
            "componentType" : 5126,
            "count" : 1,
            "type" : "VEC3"
        },
        {
            "bufferView" : 114,
            "componentType" : 5126,
            "count" : 1,
            "type" : "VEC3"
        },
        {
            "bufferView" : 115,
            "componentType" : 5126,
            "count" : 1,
            "type" : "VEC4"
        },
        {
            "bufferView" : 116,
            "componentType" : 5126,
            "count" : 1,
            "type" : "VEC3"
        },
        {
            "bufferView" : 117,
            "componentType" : 5126,
            "count" : 1,
            "type" : "VEC3"
        },
        {
            "bufferView" : 118,
            "componentType" : 5126,
            "count" : 1,
            "type" : "VEC4"
        },
        {
            "bufferView" : 119,
            "componentType" : 5126,
            "count" : 1,
            "type" : "VEC3"
        },
        {
            "bufferView" : 120,
            "componentType" : 5126,
            "count" : 1,
            "type" : "VEC3"
        },
        {
            "bufferView" : 121,
            "componentType" : 5126,
            "count" : 1,
            "type" : "VEC4"
        },
        {
            "bufferView" : 122,
            "componentType" : 5126,
            "count" : 1,
            "type" : "VEC3"
        }
    ],
    "bufferViews" : [
        {
            "buffer" : 0,
            "byteLength" : 192,
            "byteOffset" : 0,
            "target" : 34962
        },
        {
            "buffer" : 0,
            "byteLength" : 192,
            "byteOffset" : 192,
            "target" : 34962
        },
        {
            "buffer" : 0,
            "byteLength" : 128,
            "byteOffset" : 384,
            "target" : 34962
        },
        {
            "buffer" : 0,
            "byteLength" : 128,
            "byteOffset" : 512,
            "target" : 34962
        },
        {
            "buffer" : 0,
            "byteLength" : 48,
            "byteOffset" : 640,
            "target" : 34963
        },
        {
            "buffer" : 0,
            "byteLength" : 48,
            "byteOffset" : 688,
            "target" : 34962
        },
        {
            "buffer" : 0,
            "byteLength" : 48,
            "byteOffset" : 736,
            "target" : 34962
        },
        {
            "buffer" : 0,
            "byteLength" : 32,
            "byteOffset" : 784,
            "target" : 34962
        },
        {
            "buffer" : 0,
            "byteLength" : 32,
            "byteOffset" : 816,
            "target" : 34962
        },
        {
            "buffer" : 0,
            "byteLength" : 12,
            "byteOffset" : 848,
            "target" : 34963
        },
        {
            "buffer" : 0,
            "byteLength" : 144,
            "byteOffset" : 860,
            "target" : 34962
        },
        {
            "buffer" : 0,
            "byteLength" : 144,
            "byteOffset" : 1004,
            "target" : 34962
        },
        {
            "buffer" : 0,
            "byteLength" : 96,
            "byteOffset" : 1148,
            "target" : 34962
        },
        {
            "buffer" : 0,
            "byteLength" : 96,
            "byteOffset" : 1244,
            "target" : 34962
        },
        {
            "buffer" : 0,
            "byteLength" : 36,
            "byteOffset" : 1340,
            "target" : 34963
        },
        {
            "buffer" : 0,
            "byteLength" : 180,
            "byteOffset" : 1376,
            "target" : 34962
        },
        {
            "buffer" : 0,
            "byteLength" : 180,
            "byteOffset" : 1556,
            "target" : 34962
        },
        {
            "buffer" : 0,
            "byteLength" : 120,
            "byteOffset" : 1736,
            "target" : 34962
        },
        {
            "buffer" : 0,
            "byteLength" : 120,
            "byteOffset" : 1856,
            "target" : 34962
        },
        {
            "buffer" : 0,
            "byteLength" : 42,
            "byteOffset" : 1976,
            "target" : 34963
        },
        {
            "buffer" : 0,
            "byteLength" : 4080,
            "byteOffset" : 2020,
            "target" : 34962
        },
        {
            "buffer" : 0,
            "byteLength" : 4080,
            "byteOffset" : 6100,
            "target" : 34962
        },
        {
            "buffer" : 0,
            "byteLength" : 2720,
            "byteOffset" : 10180,
            "target" : 34962
        },
        {
            "buffer" : 0,
            "byteLength" : 2720,
            "byteOffset" : 12900,
            "target" : 34962
        },
        {
            "buffer" : 0,
            "byteLength" : 1360,
            "byteOffset" : 15620,
            "target" : 34962
        },
        {
            "buffer" : 0,
            "byteLength" : 5440,
            "byteOffset" : 16980,
            "target" : 34962
        },
        {
            "buffer" : 0,
            "byteLength" : 1284,
            "byteOffset" : 22420,
            "target" : 34963
        },
        {
            "buffer" : 0,
            "byteLength" : 960,
            "byteOffset" : 23704,
            "target" : 34962
        },
        {
            "buffer" : 0,
            "byteLength" : 960,
            "byteOffset" : 24664,
            "target" : 34962
        },
        {
            "buffer" : 0,
            "byteLength" : 640,
            "byteOffset" : 25624,
            "target" : 34962
        },
        {
            "buffer" : 0,
            "byteLength" : 640,
            "byteOffset" : 26264,
            "target" : 34962
        },
        {
            "buffer" : 0,
            "byteLength" : 320,
            "byteOffset" : 26904,
            "target" : 34962
        },
        {
            "buffer" : 0,
            "byteLength" : 1280,
            "byteOffset" : 27224,
            "target" : 34962
        },
        {
            "buffer" : 0,
            "byteLength" : 408,
            "byteOffset" : 28504,
            "target" : 34963
        },
        {
            "buffer" : 0,
            "byteLength" : 5076,
            "byteOffset" : 28912,
            "target" : 34962
        },
        {
            "buffer" : 0,
            "byteLength" : 5076,
            "byteOffset" : 33988,
            "target" : 34962
        },
        {
            "buffer" : 0,
            "byteLength" : 3384,
            "byteOffset" : 39064,
            "target" : 34962
        },
        {
            "buffer" : 0,
            "byteLength" : 3384,
            "byteOffset" : 42448,
            "target" : 34962
        },
        {
            "buffer" : 0,
            "byteLength" : 1692,
            "byteOffset" : 45832,
            "target" : 34962
        },
        {
            "buffer" : 0,
            "byteLength" : 6768,
            "byteOffset" : 47524,
            "target" : 34962
        },
        {
            "buffer" : 0,
            "byteLength" : 1518,
            "byteOffset" : 54292,
            "target" : 34963
        },
        {
            "buffer" : 0,
            "byteLength" : 288,
            "byteOffset" : 55812,
            "target" : 34962
        },
        {
            "buffer" : 0,
            "byteLength" : 288,
            "byteOffset" : 56100,
            "target" : 34962
        },
        {
            "buffer" : 0,
            "byteLength" : 192,
            "byteOffset" : 56388,
            "target" : 34962
        },
        {
            "buffer" : 0,
            "byteLength" : 192,
            "byteOffset" : 56580,
            "target" : 34962
        },
        {
            "buffer" : 0,
            "byteLength" : 96,
            "byteOffset" : 56772,
            "target" : 34962
        },
        {
            "buffer" : 0,
            "byteLength" : 384,
            "byteOffset" : 56868,
            "target" : 34962
        },
        {
            "buffer" : 0,
            "byteLength" : 72,
            "byteOffset" : 57252,
            "target" : 34963
        },
        {
            "buffer" : 0,
            "byteLength" : 888,
            "byteOffset" : 57324,
            "target" : 34962
        },
        {
            "buffer" : 0,
            "byteLength" : 888,
            "byteOffset" : 58212,
            "target" : 34962
        },
        {
            "buffer" : 0,
            "byteLength" : 592,
            "byteOffset" : 59100,
            "target" : 34962
        },
        {
            "buffer" : 0,
            "byteLength" : 592,
            "byteOffset" : 59692,
            "target" : 34962
        },
        {
            "buffer" : 0,
            "byteLength" : 296,
            "byteOffset" : 60284,
            "target" : 34962
        },
        {
            "buffer" : 0,
            "byteLength" : 1184,
            "byteOffset" : 60580,
            "target" : 34962
        },
        {
            "buffer" : 0,
            "byteLength" : 348,
            "byteOffset" : 61764,
            "target" : 34963
        },
        {
            "buffer" : 0,
            "byteLength" : 320,
            "byteOffset" : 62112
        },
        {
            "buffer" : 0,
            "byteLength" : 888,
            "byteOffset" : 62432,
            "target" : 34962
        },
        {
            "buffer" : 0,
            "byteLength" : 888,
            "byteOffset" : 63320,
            "target" : 34962
        },
        {
            "buffer" : 0,
            "byteLength" : 592,
            "byteOffset" : 64208,
            "target" : 34962
        },
        {
            "buffer" : 0,
            "byteLength" : 592,
            "byteOffset" : 64800,
            "target" : 34962
        },
        {
            "buffer" : 0,
            "byteLength" : 300,
            "byteOffset" : 65392,
            "target" : 34963
        },
        {
            "buffer" : 0,
            "byteLength" : 408,
            "byteOffset" : 65692,
            "target" : 34962
        },
        {
            "buffer" : 0,
            "byteLength" : 408,
            "byteOffset" : 66100,
            "target" : 34962
        },
        {
            "buffer" : 0,
            "byteLength" : 272,
            "byteOffset" : 66508,
            "target" : 34962
        },
        {
            "buffer" : 0,
            "byteLength" : 272,
            "byteOffset" : 66780,
            "target" : 34962
        },
        {
            "buffer" : 0,
            "byteLength" : 108,
            "byteOffset" : 67052,
            "target" : 34963
        },
        {
            "buffer" : 0,
            "byteLength" : 1248,
            "byteOffset" : 67160,
            "target" : 34962
        },
        {
            "buffer" : 0,
            "byteLength" : 1248,
            "byteOffset" : 68408,
            "target" : 34962
        },
        {
            "buffer" : 0,
            "byteLength" : 832,
            "byteOffset" : 69656,
            "target" : 34962
        },
        {
            "buffer" : 0,
            "byteLength" : 832,
            "byteOffset" : 70488,
            "target" : 34962
        },
        {
            "buffer" : 0,
            "byteLength" : 348,
            "byteOffset" : 71320,
            "target" : 34963
        },
        {
            "buffer" : 0,
            "byteLength" : 2136,
            "byteOffset" : 71668,
            "target" : 34962
        },
        {
            "buffer" : 0,
            "byteLength" : 2136,
            "byteOffset" : 73804,
            "target" : 34962
        },
        {
            "buffer" : 0,
            "byteLength" : 1424,
            "byteOffset" : 75940,
            "target" : 34962
        },
        {
            "buffer" : 0,
            "byteLength" : 1424,
            "byteOffset" : 77364,
            "target" : 34962
        },
        {
            "buffer" : 0,
            "byteLength" : 612,
            "byteOffset" : 78788,
            "target" : 34963
        },
        {
            "buffer" : 0,
            "byteLength" : 124,
            "byteOffset" : 79400
        },
        {
            "buffer" : 0,
            "byteLength" : 372,
            "byteOffset" : 79524
        },
        {
            "buffer" : 0,
            "byteLength" : 496,
            "byteOffset" : 79896
        },
        {
            "buffer" : 0,
            "byteLength" : 372,
            "byteOffset" : 80392
        },
        {
            "buffer" : 0,
            "byteLength" : 372,
            "byteOffset" : 80764
        },
        {
            "buffer" : 0,
            "byteLength" : 496,
            "byteOffset" : 81136
        },
        {
            "buffer" : 0,
            "byteLength" : 372,
            "byteOffset" : 81632
        },
        {
            "buffer" : 0,
            "byteLength" : 372,
            "byteOffset" : 82004
        },
        {
            "buffer" : 0,
            "byteLength" : 496,
            "byteOffset" : 82376
        },
        {
            "buffer" : 0,
            "byteLength" : 372,
            "byteOffset" : 82872
        },
        {
            "buffer" : 0,
            "byteLength" : 372,
            "byteOffset" : 83244
        },
        {
            "buffer" : 0,
            "byteLength" : 496,
            "byteOffset" : 83616
        },
        {
            "buffer" : 0,
            "byteLength" : 372,
            "byteOffset" : 84112
        },
        {
            "buffer" : 0,
            "byteLength" : 372,
            "byteOffset" : 84484
        },
        {
            "buffer" : 0,
            "byteLength" : 496,
            "byteOffset" : 84856
        },
        {
            "buffer" : 0,
            "byteLength" : 372,
            "byteOffset" : 85352
        },
        {
            "buffer" : 0,
            "byteLength" : 372,
            "byteOffset" : 85724
        },
        {
            "buffer" : 0,
            "byteLength" : 496,
            "byteOffset" : 86096
        },
        {
            "buffer" : 0,
            "byteLength" : 372,
            "byteOffset" : 86592
        },
        {
            "buffer" : 0,
            "byteLength" : 372,
            "byteOffset" : 86964
        },
        {
            "buffer" : 0,
            "byteLength" : 496,
            "byteOffset" : 87336
        },
        {
            "buffer" : 0,
            "byteLength" : 372,
            "byteOffset" : 87832
        },
        {
            "buffer" : 0,
            "byteLength" : 372,
            "byteOffset" : 88204
        },
        {
            "buffer" : 0,
            "byteLength" : 496,
            "byteOffset" : 88576
        },
        {
            "buffer" : 0,
            "byteLength" : 372,
            "byteOffset" : 89072
        },
        {
            "buffer" : 0,
            "byteLength" : 372,
            "byteOffset" : 89444
        },
        {
            "buffer" : 0,
            "byteLength" : 496,
            "byteOffset" : 89816
        },
        {
            "buffer" : 0,
            "byteLength" : 372,
            "byteOffset" : 90312
        },
        {
            "buffer" : 0,
            "byteLength" : 372,
            "byteOffset" : 90684
        },
        {
            "buffer" : 0,
            "byteLength" : 496,
            "byteOffset" : 91056
        },
        {
            "buffer" : 0,
            "byteLength" : 372,
            "byteOffset" : 91552
        },
        {
            "buffer" : 0,
            "byteLength" : 4,
            "byteOffset" : 91924
        },
        {
            "buffer" : 0,
            "byteLength" : 12,
            "byteOffset" : 91928
        },
        {
            "buffer" : 0,
            "byteLength" : 16,
            "byteOffset" : 91940
        },
        {
            "buffer" : 0,
            "byteLength" : 12,
            "byteOffset" : 91956
        },
        {
            "buffer" : 0,
            "byteLength" : 12,
            "byteOffset" : 91968
        },
        {
            "buffer" : 0,
            "byteLength" : 16,
            "byteOffset" : 91980
        },
        {
            "buffer" : 0,
            "byteLength" : 12,
            "byteOffset" : 91996
        },
        {
            "buffer" : 0,
            "byteLength" : 12,
            "byteOffset" : 92008
        },
        {
            "buffer" : 0,
            "byteLength" : 16,
            "byteOffset" : 92020
        },
        {
            "buffer" : 0,
            "byteLength" : 12,
            "byteOffset" : 92036
        },
        {
            "buffer" : 0,
            "byteLength" : 12,
            "byteOffset" : 92048
        },
        {
            "buffer" : 0,
            "byteLength" : 16,
            "byteOffset" : 92060
        },
        {
            "buffer" : 0,
            "byteLength" : 12,
            "byteOffset" : 92076
        },
        {
            "buffer" : 0,
            "byteLength" : 12,
            "byteOffset" : 92088
        },
        {
            "buffer" : 0,
            "byteLength" : 16,
            "byteOffset" : 92100
        },
        {
            "buffer" : 0,
            "byteLength" : 12,
            "byteOffset" : 92116
        }
    ],
    "buffers" : [
        {
            "byteLength" : 92128,
            "uri" : "data:application/octet-stream;base64,"
        }
    ]
}
