{
    "asset" : {
        "generator" : "Khronos glTF Blender I/O v3.3.36",
        "version" : "2.0"
    },
    "extensionsUsed" : [
        "KHR_materials_specular",
        "KHR_materials_ior"
    ],
    "scene" : 0,
    "scenes" : [
        {
            "name" : "Scene",
            "nodes" : [
                0,
                1,
                2,
                3,
                4
            ]
        }
    ],
    "nodes" : [
        {
            "mesh" : 0,
            "name" : "SpacePlatformPiece1",
            "translation" : [
                -1.4068293571472168,
                -2.5131706934189424e-05,
                1.3747498989105225
            ]
        },
        {
            "mesh" : 1,
            "name" : "SpacePlatformPiece2",
            "translation" : [
                1.4412003755569458,
                -1.569300002302043e-05,
                1.3641200065612793
            ]
        },
        {
            "mesh" : 2,
            "name" : "SpacePlatformPiece3",
            "translation" : [
                1.2513389587402344,
                1.7094824215746485e-05,
                -1.1827884912490845
            ]
        },
        {
            "mesh" : 3,
            "name" : "SpacePlatformPiece4",
            "translation" : [
                -1.2668700218200684,
                2.7640207918011583e-05,
                -1.2172722816467285
            ]
        },
        {
            "mesh" : 4,
            "name" : "SpacePlatformPiece5",
            "translation" : [
                0.11641387641429901,
                2.0776005840161815e-06,
                0.3325386643409729
            ]
        }
    ],
    "materials" : [
        {
            "alphaCutoff" : 0.5,
            "alphaMode" : "MASK",
            "extensions" : {
                "KHR_materials_specular" : {
                    "specularColorFactor" : [
                        0,
                        0,
                        0
                    ]
                },
                "KHR_materials_ior" : {
                    "ior" : 1.4500000476837158
                }
            },
            "name" : "Staircase",
            "pbrMetallicRoughness" : {
                "baseColorFactor" : [
                    0.800000011920929,
                    0.800000011920929,
                    0.800000011920929,
                    1
                ],
                "metallicFactor" : 0
            }
        },
        {
            "extensions" : {
                "KHR_materials_specular" : {
                    "specularColorFactor" : [
                        0,
                        0,
                        0
                    ]
                },
                "KHR_materials_ior" : {
                    "ior" : 1.4500000476837158
                }
            },
            "name" : "Space Star Clover Clear",
            "pbrMetallicRoughness" : {
                "baseColorFactor" : [
                    0.800000011920929,
                    0.800000011920929,
                    0.800000011920929,
                    1
                ],
                "metallicFactor" : 0
            }
        },
        {
            "extensions" : {
                "KHR_materials_specular" : {
                    "specularColorFactor" : [
                        0,
                        0,
                        0
                    ]
                },
                "KHR_materials_ior" : {
                    "ior" : 1.4500000476837158
                }
            },
            "name" : "Space Clear Trim",
            "pbrMetallicRoughness" : {
                "baseColorFactor" : [
                    0.800000011920929,
                    0.800000011920929,
                    0.800000011920929,
                    1
                ],
                "metallicFactor" : 0
            }
        },
        {
            "extensions" : {
                "KHR_materials_specular" : {
                    "specularColorFactor" : [
                        0,
                        0,
                        0
                    ]
                },
                "KHR_materials_ior" : {
                    "ior" : 1.4500000476837158
                }
            },
            "name" : "Space Gate Trim",
            "pbrMetallicRoughness" : {
                "baseColorFactor" : [
                    0.800000011920929,
                    0.800000011920929,
                    0.800000011920929,
                    1
                ],
                "metallicFactor" : 0
            }
        }
    ],
    "meshes" : [
        {
            "name" : "SpacePlatformPiece1",
            "primitives" : [
                {
                    "attributes" : {
                        "POSITION" : 0,
                        "NORMAL" : 1,
                        "TEXCOORD_0" : 2,
                        "COLOR_0" : 3
                    },
                    "indices" : 4,
                    "material" : 0
                },
                {
                    "attributes" : {
                        "POSITION" : 5,
                        "NORMAL" : 6,
                        "TEXCOORD_0" : 7,
                        "COLOR_0" : 8
                    },
                    "indices" : 9,
                    "material" : 1
                },
                {
                    "attributes" : {
                        "POSITION" : 10,
                        "NORMAL" : 11,
                        "TEXCOORD_0" : 12,
                        "COLOR_0" : 13
                    },
                    "indices" : 14,
                    "material" : 2
                },
                {
                    "attributes" : {
                        "POSITION" : 15,
                        "NORMAL" : 16,
                        "TEXCOORD_0" : 17,
                        "COLOR_0" : 18
                    },
                    "indices" : 19,
                    "material" : 3
                }
            ]
        },
        {
            "name" : "SpacePlatformPiece2",
            "primitives" : [
                {
                    "attributes" : {
                        "POSITION" : 20,
                        "NORMAL" : 21,
                        "TEXCOORD_0" : 22,
                        "COLOR_0" : 23
                    },
                    "indices" : 24,
                    "material" : 0
                },
                {
                    "attributes" : {
                        "POSITION" : 25,
                        "NORMAL" : 26,
                        "TEXCOORD_0" : 27,
                        "COLOR_0" : 28
                    },
                    "indices" : 29,
                    "material" : 1
                },
                {
                    "attributes" : {
                        "POSITION" : 30,
                        "NORMAL" : 31,
                        "TEXCOORD_0" : 32,
                        "COLOR_0" : 33
                    },
                    "indices" : 34,
                    "material" : 2
                },
                {
                    "attributes" : {
                        "POSITION" : 35,
                        "NORMAL" : 36,
                        "TEXCOORD_0" : 37,
                        "COLOR_0" : 38
                    },
                    "indices" : 39,
                    "material" : 3
                }
            ]
        },
        {
            "name" : "SpacePlatformPiece3",
            "primitives" : [
                {
                    "attributes" : {
                        "POSITION" : 40,
                        "NORMAL" : 41,
                        "TEXCOORD_0" : 42,
                        "COLOR_0" : 43
                    },
                    "indices" : 44,
                    "material" : 3
                },
                {
                    "attributes" : {
                        "POSITION" : 45,
                        "NORMAL" : 46,
                        "TEXCOORD_0" : 47,
                        "COLOR_0" : 48
                    },
                    "indices" : 49,
                    "material" : 0
                },
                {
                    "attributes" : {
                        "POSITION" : 50,
                        "NORMAL" : 51,
                        "TEXCOORD_0" : 52,
                        "COLOR_0" : 53
                    },
                    "indices" : 54,
                    "material" : 1
                },
                {
                    "attributes" : {
                        "POSITION" : 55,
                        "NORMAL" : 56,
                        "TEXCOORD_0" : 57,
                        "COLOR_0" : 58
                    },
                    "indices" : 59,
                    "material" : 2
                }
            ]
        },
        {
            "name" : "SpacePlatformPiece4",
            "primitives" : [
                {
                    "attributes" : {
                        "POSITION" : 60,
                        "NORMAL" : 61,
                        "TEXCOORD_0" : 62,
                        "COLOR_0" : 63
                    },
                    "indices" : 64,
                    "material" : 3
                },
                {
                    "attributes" : {
                        "POSITION" : 65,
                        "NORMAL" : 66,
                        "TEXCOORD_0" : 67,
                        "COLOR_0" : 68
                    },
                    "indices" : 69,
                    "material" : 0
                },
                {
                    "attributes" : {
                        "POSITION" : 70,
                        "NORMAL" : 71,
                        "TEXCOORD_0" : 72,
                        "COLOR_0" : 73
                    },
                    "indices" : 74,
                    "material" : 1
                },
                {
                    "attributes" : {
                        "POSITION" : 75,
                        "NORMAL" : 76,
                        "TEXCOORD_0" : 77,
                        "COLOR_0" : 78
                    },
                    "indices" : 79,
                    "material" : 2
                }
            ]
        },
        {
            "name" : "SpacePlatformPiece5",
            "primitives" : [
                {
                    "attributes" : {
                        "POSITION" : 80,
                        "NORMAL" : 81,
                        "TEXCOORD_0" : 82,
                        "COLOR_0" : 83
                    },
                    "indices" : 84,
                    "material" : 1
                }
            ]
        }
    ],
    "accessors" : [
        {
            "bufferView" : 0,
            "componentType" : 5126,
            "count" : 65,
            "max" : [
                0.9685924053192139,
                0.1250046193599701,
                1.1252508163452148
            ],
            "min" : [
                -1.0931713581085205,
                -0.12500418722629547,
                -1.2459440231323242
            ],
            "type" : "VEC3"
        },
        {
            "bufferView" : 1,
            "componentType" : 5126,
            "count" : 65,
            "type" : "VEC3"
        },
        {
            "bufferView" : 2,
            "componentType" : 5126,
            "count" : 65,
            "type" : "VEC2"
        },
        {
            "bufferView" : 3,
            "componentType" : 5123,
            "count" : 65,
            "normalized" : true,
            "type" : "VEC4"
        },
        {
            "bufferView" : 4,
            "componentType" : 5123,
            "count" : 102,
            "type" : "SCALAR"
        },
        {
            "bufferView" : 5,
            "componentType" : 5126,
            "count" : 14,
            "max" : [
                1.0554548501968384,
                0.12500455975532532,
                0.23741194605827332
            ],
            "min" : [
                -0.20533251762390137,
                -0.12500104308128357,
                -1.2311619520187378
            ],
            "type" : "VEC3"
        },
        {
            "bufferView" : 6,
            "componentType" : 5126,
            "count" : 14,
            "type" : "VEC3"
        },
        {
            "bufferView" : 7,
            "componentType" : 5126,
            "count" : 14,
            "type" : "VEC2"
        },
        {
            "bufferView" : 8,
            "componentType" : 5123,
            "count" : 14,
            "normalized" : true,
            "type" : "VEC4"
        },
        {
            "bufferView" : 9,
            "componentType" : 5123,
            "count" : 30,
            "type" : "SCALAR"
        },
        {
            "bufferView" : 10,
            "componentType" : 5126,
            "count" : 34,
            "max" : [
                1.3684134483337402,
                0.1250051110982895,
                0.7582117319107056
            ],
            "min" : [
                -0.726132333278656,
                -0.12500299513339996,
                -1.3421521186828613
            ],
            "type" : "VEC3"
        },
        {
            "bufferView" : 11,
            "componentType" : 5126,
            "count" : 34,
            "type" : "VEC3"
        },
        {
            "bufferView" : 12,
            "componentType" : 5126,
            "count" : 34,
            "type" : "VEC2"
        },
        {
            "bufferView" : 13,
            "componentType" : 5123,
            "count" : 34,
            "normalized" : true,
            "type" : "VEC4"
        },
        {
            "bufferView" : 14,
            "componentType" : 5123,
            "count" : 60,
            "type" : "SCALAR"
        },
        {
            "bufferView" : 15,
            "componentType" : 5126,
            "count" : 28,
            "max" : [
                1.735785722732544,
                0.12500524520874023,
                1.1252508163452148
            ],
            "min" : [
                -1.0931713581085205,
                -0.12500408291816711,
                -1.4203734397888184
            ],
            "type" : "VEC3"
        },
        {
            "bufferView" : 16,
            "componentType" : 5126,
            "count" : 28,
            "type" : "VEC3"
        },
        {
            "bufferView" : 17,
            "componentType" : 5126,
            "count" : 28,
            "type" : "VEC2"
        },
        {
            "bufferView" : 18,
            "componentType" : 5123,
            "count" : 28,
            "normalized" : true,
            "type" : "VEC4"
        },
        {
            "bufferView" : 19,
            "componentType" : 5123,
            "count" : 48,
            "type" : "SCALAR"
        },
        {
            "bufferView" : 20,
            "componentType" : 5126,
            "count" : 75,
            "max" : [
                1.0587999820709229,
                0.12500548362731934,
                1.135880947113037
            ],
            "min" : [
                -1.8844588994979858,
                -0.12500418722629547,
                -1.5356414318084717
            ],
            "type" : "VEC3"
        },
        {
            "bufferView" : 21,
            "componentType" : 5126,
            "count" : 75,
            "type" : "VEC3"
        },
        {
            "bufferView" : 22,
            "componentType" : 5126,
            "count" : 75,
            "type" : "VEC2"
        },
        {
            "bufferView" : 23,
            "componentType" : 5123,
            "count" : 75,
            "normalized" : true,
            "type" : "VEC4"
        },
        {
            "bufferView" : 24,
            "componentType" : 5123,
            "count" : 132,
            "type" : "SCALAR"
        },
        {
            "bufferView" : 25,
            "componentType" : 5126,
            "count" : 17,
            "max" : [
                0.1709611713886261,
                0.12500537931919098,
                0.24804216623306274
            ],
            "min" : [
                -1.8794376850128174,
                -0.12500110268592834,
                -1.5075687170028687
            ],
            "type" : "VEC3"
        },
        {
            "bufferView" : 26,
            "componentType" : 5126,
            "count" : 17,
            "type" : "VEC3"
        },
        {
            "bufferView" : 27,
            "componentType" : 5126,
            "count" : 17,
            "type" : "VEC2"
        },
        {
            "bufferView" : 28,
            "componentType" : 5123,
            "count" : 17,
            "normalized" : true,
            "type" : "VEC4"
        },
        {
            "bufferView" : 29,
            "componentType" : 5123,
            "count" : 36,
            "type" : "SCALAR"
        },
        {
            "bufferView" : 30,
            "componentType" : 5126,
            "count" : 39,
            "max" : [
                0.6917610168457031,
                0.1250062882900238,
                0.7688418626785278
            ],
            "min" : [
                -1.8844588994979858,
                -0.125002920627594,
                -1.7183504104614258
            ],
            "type" : "VEC3"
        },
        {
            "bufferView" : 31,
            "componentType" : 5126,
            "count" : 39,
            "type" : "VEC3"
        },
        {
            "bufferView" : 32,
            "componentType" : 5126,
            "count" : 39,
            "type" : "VEC2"
        },
        {
            "bufferView" : 33,
            "componentType" : 5123,
            "count" : 39,
            "normalized" : true,
            "type" : "VEC4"
        },
        {
            "bufferView" : 34,
            "componentType" : 5123,
            "count" : 72,
            "type" : "SCALAR"
        },
        {
            "bufferView" : 35,
            "componentType" : 5126,
            "count" : 28,
            "max" : [
                1.0587999820709229,
                0.12500667572021484,
                1.135880947113037
            ],
            "min" : [
                -1.4796165227890015,
                -0.12500423192977905,
                -1.86690092086792
            ],
            "type" : "VEC3"
        },
        {
            "bufferView" : 36,
            "componentType" : 5126,
            "count" : 28,
            "type" : "VEC3"
        },
        {
            "bufferView" : 37,
            "componentType" : 5126,
            "count" : 28,
            "type" : "VEC2"
        },
        {
            "bufferView" : 38,
            "componentType" : 5123,
            "count" : 28,
            "normalized" : true,
            "type" : "VEC4"
        },
        {
            "bufferView" : 39,
            "componentType" : 5123,
            "count" : 48,
            "type" : "SCALAR"
        },
        {
            "bufferView" : 40,
            "componentType" : 5126,
            "count" : 30,
            "max" : [
                1.2486615180969238,
                0.12500470876693726,
                0.828559160232544
            ],
            "min" : [
                -1.0192930698394775,
                -0.1250026673078537,
                -1.317212462425232
            ],
            "type" : "VEC3"
        },
        {
            "bufferView" : 41,
            "componentType" : 5126,
            "count" : 30,
            "type" : "VEC3"
        },
        {
            "bufferView" : 42,
            "componentType" : 5126,
            "count" : 30,
            "type" : "VEC2"
        },
        {
            "bufferView" : 43,
            "componentType" : 5123,
            "count" : 30,
            "normalized" : true,
            "type" : "VEC4"
        },
        {
            "bufferView" : 44,
            "componentType" : 5123,
            "count" : 48,
            "type" : "SCALAR"
        },
        {
            "bufferView" : 45,
            "componentType" : 5126,
            "count" : 64,
            "max" : [
                1.2486615180969238,
                0.12500470876693726,
                1.039340853691101
            ],
            "min" : [
                -1.4561588764190674,
                -0.1250036507844925,
                -1.317212462425232
            ],
            "type" : "VEC3"
        },
        {
            "bufferView" : 46,
            "componentType" : 5126,
            "count" : 64,
            "type" : "VEC3"
        },
        {
            "bufferView" : 47,
            "componentType" : 5126,
            "count" : 64,
            "type" : "VEC2"
        },
        {
            "bufferView" : 48,
            "componentType" : 5123,
            "count" : 64,
            "normalized" : true,
            "type" : "VEC4"
        },
        {
            "bufferView" : 49,
            "componentType" : 5123,
            "count" : 102,
            "type" : "SCALAR"
        },
        {
            "bufferView" : 50,
            "componentType" : 5126,
            "count" : 17,
            "max" : [
                0.3608227074146271,
                0.12500149011611938,
                2.1804094314575195
            ],
            "min" : [
                -1.4561588764190674,
                -0.12500791251659393,
                -0.42937368154525757
            ],
            "type" : "VEC3"
        },
        {
            "bufferView" : 51,
            "componentType" : 5126,
            "count" : 17,
            "type" : "VEC3"
        },
        {
            "bufferView" : 52,
            "componentType" : 5126,
            "count" : 17,
            "type" : "VEC2"
        },
        {
            "bufferView" : 53,
            "componentType" : 5123,
            "count" : 17,
            "normalized" : true,
            "type" : "VEC4"
        },
        {
            "bufferView" : 54,
            "componentType" : 5123,
            "count" : 30,
            "type" : "SCALAR"
        },
        {
            "bufferView" : 55,
            "componentType" : 5126,
            "count" : 35,
            "max" : [
                0.8816224932670593,
                0.1250033974647522,
                1.0112683773040771
            ],
            "min" : [
                -1.4511373043060303,
                -0.12500353157520294,
                -0.9501734972000122
            ],
            "type" : "VEC3"
        },
        {
            "bufferView" : 56,
            "componentType" : 5126,
            "count" : 35,
            "type" : "VEC3"
        },
        {
            "bufferView" : 57,
            "componentType" : 5126,
            "count" : 35,
            "type" : "VEC2"
        },
        {
            "bufferView" : 58,
            "componentType" : 5123,
            "count" : 35,
            "normalized" : true,
            "type" : "VEC4"
        },
        {
            "bufferView" : 59,
            "componentType" : 5123,
            "count" : 60,
            "type" : "SCALAR"
        },
        {
            "bufferView" : 60,
            "componentType" : 5126,
            "count" : 29,
            "max" : [
                1.8555632829666138,
                0.12500475347042084,
                1.2498717308044434
            ],
            "min" : [
                -1.2331305742263794,
                -0.12500466406345367,
                -1.282728672027588
            ],
            "type" : "VEC3"
        },
        {
            "bufferView" : 61,
            "componentType" : 5126,
            "count" : 29,
            "type" : "VEC3"
        },
        {
            "bufferView" : 62,
            "componentType" : 5126,
            "count" : 29,
            "type" : "VEC2"
        },
        {
            "bufferView" : 63,
            "componentType" : 5123,
            "count" : 29,
            "normalized" : true,
            "type" : "VEC4"
        },
        {
            "bufferView" : 64,
            "componentType" : 5123,
            "count" : 48,
            "type" : "SCALAR"
        },
        {
            "bufferView" : 65,
            "componentType" : 5126,
            "count" : 66,
            "max" : [
                1.0670716762542725,
                0.12500475347042084,
                1.360861897468567
            ],
            "min" : [
                -1.2331305742263794,
                -0.1250051110982895,
                -1.282728672027588
            ],
            "type" : "VEC3"
        },
        {
            "bufferView" : 66,
            "componentType" : 5126,
            "count" : 66,
            "type" : "VEC3"
        },
        {
            "bufferView" : 67,
            "componentType" : 5126,
            "count" : 66,
            "type" : "VEC2"
        },
        {
            "bufferView" : 68,
            "componentType" : 5123,
            "count" : 66,
            "normalized" : true,
            "type" : "VEC4"
        },
        {
            "bufferView" : 69,
            "componentType" : 5123,
            "count" : 102,
            "type" : "SCALAR"
        },
        {
            "bufferView" : 70,
            "componentType" : 5126,
            "count" : 15,
            "max" : [
                1.0620503425598145,
                0.12500153481960297,
                1.629554271697998
            ],
            "min" : [
                -0.3452918529510498,
                -0.12500590085983276,
                -0.3948899507522583
            ],
            "type" : "VEC3"
        },
        {
            "bufferView" : 71,
            "componentType" : 5126,
            "count" : 15,
            "type" : "VEC3"
        },
        {
            "bufferView" : 72,
            "componentType" : 5126,
            "count" : 15,
            "type" : "VEC2"
        },
        {
            "bufferView" : 73,
            "componentType" : 5123,
            "count" : 15,
            "normalized" : true,
            "type" : "VEC4"
        },
        {
            "bufferView" : 74,
            "componentType" : 5123,
            "count" : 30,
            "type" : "SCALAR"
        },
        {
            "bufferView" : 75,
            "componentType" : 5126,
            "count" : 34,
            "max" : [
                1.4989159107208252,
                0.12500348687171936,
                1.346079707145691
            ],
            "min" : [
                -0.8660916090011597,
                -0.1250050663948059,
                -0.9156896471977234
            ],
            "type" : "VEC3"
        },
        {
            "bufferView" : 76,
            "componentType" : 5126,
            "count" : 34,
            "type" : "VEC3"
        },
        {
            "bufferView" : 77,
            "componentType" : 5126,
            "count" : 34,
            "type" : "VEC2"
        },
        {
            "bufferView" : 78,
            "componentType" : 5123,
            "count" : 34,
            "normalized" : true,
            "type" : "VEC4"
        },
        {
            "bufferView" : 79,
            "componentType" : 5123,
            "count" : 60,
            "type" : "SCALAR"
        },
        {
            "bufferView" : 80,
            "componentType" : 5126,
            "count" : 12,
            "max" : [
                0.875885546207428,
                0.12500707805156708,
                1.2796223163604736
            ],
            "min" : [
                -0.5546514391899109,
                -0.12500472366809845,
                -1.944702386856079
            ],
            "type" : "VEC3"
        },
        {
            "bufferView" : 81,
            "componentType" : 5126,
            "count" : 12,
            "type" : "VEC3"
        },
        {
            "bufferView" : 82,
            "componentType" : 5126,
            "count" : 12,
            "type" : "VEC2"
        },
        {
            "bufferView" : 83,
            "componentType" : 5123,
            "count" : 12,
            "normalized" : true,
            "type" : "VEC4"
        },
        {
            "bufferView" : 84,
            "componentType" : 5123,
            "count" : 24,
            "type" : "SCALAR"
        }
    ],
    "bufferViews" : [
        {
            "buffer" : 0,
            "byteLength" : 780,
            "byteOffset" : 0,
            "target" : 34962
        },
        {
            "buffer" : 0,
            "byteLength" : 780,
            "byteOffset" : 780,
            "target" : 34962
        },
        {
            "buffer" : 0,
            "byteLength" : 520,
            "byteOffset" : 1560,
            "target" : 34962
        },
        {
            "buffer" : 0,
            "byteLength" : 520,
            "byteOffset" : 2080,
            "target" : 34962
        },
        {
            "buffer" : 0,
            "byteLength" : 204,
            "byteOffset" : 2600,
            "target" : 34963
        },
        {
            "buffer" : 0,
            "byteLength" : 168,
            "byteOffset" : 2804,
            "target" : 34962
        },
        {
            "buffer" : 0,
            "byteLength" : 168,
            "byteOffset" : 2972,
            "target" : 34962
        },
        {
            "buffer" : 0,
            "byteLength" : 112,
            "byteOffset" : 3140,
            "target" : 34962
        },
        {
            "buffer" : 0,
            "byteLength" : 112,
            "byteOffset" : 3252,
            "target" : 34962
        },
        {
            "buffer" : 0,
            "byteLength" : 60,
            "byteOffset" : 3364,
            "target" : 34963
        },
        {
            "buffer" : 0,
            "byteLength" : 408,
            "byteOffset" : 3424,
            "target" : 34962
        },
        {
            "buffer" : 0,
            "byteLength" : 408,
            "byteOffset" : 3832,
            "target" : 34962
        },
        {
            "buffer" : 0,
            "byteLength" : 272,
            "byteOffset" : 4240,
            "target" : 34962
        },
        {
            "buffer" : 0,
            "byteLength" : 272,
            "byteOffset" : 4512,
            "target" : 34962
        },
        {
            "buffer" : 0,
            "byteLength" : 120,
            "byteOffset" : 4784,
            "target" : 34963
        },
        {
            "buffer" : 0,
            "byteLength" : 336,
            "byteOffset" : 4904,
            "target" : 34962
        },
        {
            "buffer" : 0,
            "byteLength" : 336,
            "byteOffset" : 5240,
            "target" : 34962
        },
        {
            "buffer" : 0,
            "byteLength" : 224,
            "byteOffset" : 5576,
            "target" : 34962
        },
        {
            "buffer" : 0,
            "byteLength" : 224,
            "byteOffset" : 5800,
            "target" : 34962
        },
        {
            "buffer" : 0,
            "byteLength" : 96,
            "byteOffset" : 6024,
            "target" : 34963
        },
        {
            "buffer" : 0,
            "byteLength" : 900,
            "byteOffset" : 6120,
            "target" : 34962
        },
        {
            "buffer" : 0,
            "byteLength" : 900,
            "byteOffset" : 7020,
            "target" : 34962
        },
        {
            "buffer" : 0,
            "byteLength" : 600,
            "byteOffset" : 7920,
            "target" : 34962
        },
        {
            "buffer" : 0,
            "byteLength" : 600,
            "byteOffset" : 8520,
            "target" : 34962
        },
        {
            "buffer" : 0,
            "byteLength" : 264,
            "byteOffset" : 9120,
            "target" : 34963
        },
        {
            "buffer" : 0,
            "byteLength" : 204,
            "byteOffset" : 9384,
            "target" : 34962
        },
        {
            "buffer" : 0,
            "byteLength" : 204,
            "byteOffset" : 9588,
            "target" : 34962
        },
        {
            "buffer" : 0,
            "byteLength" : 136,
            "byteOffset" : 9792,
            "target" : 34962
        },
        {
            "buffer" : 0,
            "byteLength" : 136,
            "byteOffset" : 9928,
            "target" : 34962
        },
        {
            "buffer" : 0,
            "byteLength" : 72,
            "byteOffset" : 10064,
            "target" : 34963
        },
        {
            "buffer" : 0,
            "byteLength" : 468,
            "byteOffset" : 10136,
            "target" : 34962
        },
        {
            "buffer" : 0,
            "byteLength" : 468,
            "byteOffset" : 10604,
            "target" : 34962
        },
        {
            "buffer" : 0,
            "byteLength" : 312,
            "byteOffset" : 11072,
            "target" : 34962
        },
        {
            "buffer" : 0,
            "byteLength" : 312,
            "byteOffset" : 11384,
            "target" : 34962
        },
        {
            "buffer" : 0,
            "byteLength" : 144,
            "byteOffset" : 11696,
            "target" : 34963
        },
        {
            "buffer" : 0,
            "byteLength" : 336,
            "byteOffset" : 11840,
            "target" : 34962
        },
        {
            "buffer" : 0,
            "byteLength" : 336,
            "byteOffset" : 12176,
            "target" : 34962
        },
        {
            "buffer" : 0,
            "byteLength" : 224,
            "byteOffset" : 12512,
            "target" : 34962
        },
        {
            "buffer" : 0,
            "byteLength" : 224,
            "byteOffset" : 12736,
            "target" : 34962
        },
        {
            "buffer" : 0,
            "byteLength" : 96,
            "byteOffset" : 12960,
            "target" : 34963
        },
        {
            "buffer" : 0,
            "byteLength" : 360,
            "byteOffset" : 13056,
            "target" : 34962
        },
        {
            "buffer" : 0,
            "byteLength" : 360,
            "byteOffset" : 13416,
            "target" : 34962
        },
        {
            "buffer" : 0,
            "byteLength" : 240,
            "byteOffset" : 13776,
            "target" : 34962
        },
        {
            "buffer" : 0,
            "byteLength" : 240,
            "byteOffset" : 14016,
            "target" : 34962
        },
        {
            "buffer" : 0,
            "byteLength" : 96,
            "byteOffset" : 14256,
            "target" : 34963
        },
        {
            "buffer" : 0,
            "byteLength" : 768,
            "byteOffset" : 14352,
            "target" : 34962
        },
        {
            "buffer" : 0,
            "byteLength" : 768,
            "byteOffset" : 15120,
            "target" : 34962
        },
        {
            "buffer" : 0,
            "byteLength" : 512,
            "byteOffset" : 15888,
            "target" : 34962
        },
        {
            "buffer" : 0,
            "byteLength" : 512,
            "byteOffset" : 16400,
            "target" : 34962
        },
        {
            "buffer" : 0,
            "byteLength" : 204,
            "byteOffset" : 16912,
            "target" : 34963
        },
        {
            "buffer" : 0,
            "byteLength" : 204,
            "byteOffset" : 17116,
            "target" : 34962
        },
        {
            "buffer" : 0,
            "byteLength" : 204,
            "byteOffset" : 17320,
            "target" : 34962
        },
        {
            "buffer" : 0,
            "byteLength" : 136,
            "byteOffset" : 17524,
            "target" : 34962
        },
        {
            "buffer" : 0,
            "byteLength" : 136,
            "byteOffset" : 17660,
            "target" : 34962
        },
        {
            "buffer" : 0,
            "byteLength" : 60,
            "byteOffset" : 17796,
            "target" : 34963
        },
        {
            "buffer" : 0,
            "byteLength" : 420,
            "byteOffset" : 17856,
            "target" : 34962
        },
        {
            "buffer" : 0,
            "byteLength" : 420,
            "byteOffset" : 18276,
            "target" : 34962
        },
        {
            "buffer" : 0,
            "byteLength" : 280,
            "byteOffset" : 18696,
            "target" : 34962
        },
        {
            "buffer" : 0,
            "byteLength" : 280,
            "byteOffset" : 18976,
            "target" : 34962
        },
        {
            "buffer" : 0,
            "byteLength" : 120,
            "byteOffset" : 19256,
            "target" : 34963
        },
        {
            "buffer" : 0,
            "byteLength" : 348,
            "byteOffset" : 19376,
            "target" : 34962
        },
        {
            "buffer" : 0,
            "byteLength" : 348,
            "byteOffset" : 19724,
            "target" : 34962
        },
        {
            "buffer" : 0,
            "byteLength" : 232,
            "byteOffset" : 20072,
            "target" : 34962
        },
        {
            "buffer" : 0,
            "byteLength" : 232,
            "byteOffset" : 20304,
            "target" : 34962
        },
        {
            "buffer" : 0,
            "byteLength" : 96,
            "byteOffset" : 20536,
            "target" : 34963
        },
        {
            "buffer" : 0,
            "byteLength" : 792,
            "byteOffset" : 20632,
            "target" : 34962
        },
        {
            "buffer" : 0,
            "byteLength" : 792,
            "byteOffset" : 21424,
            "target" : 34962
        },
        {
            "buffer" : 0,
            "byteLength" : 528,
            "byteOffset" : 22216,
            "target" : 34962
        },
        {
            "buffer" : 0,
            "byteLength" : 528,
            "byteOffset" : 22744,
            "target" : 34962
        },
        {
            "buffer" : 0,
            "byteLength" : 204,
            "byteOffset" : 23272,
            "target" : 34963
        },
        {
            "buffer" : 0,
            "byteLength" : 180,
            "byteOffset" : 23476,
            "target" : 34962
        },
        {
            "buffer" : 0,
            "byteLength" : 180,
            "byteOffset" : 23656,
            "target" : 34962
        },
        {
            "buffer" : 0,
            "byteLength" : 120,
            "byteOffset" : 23836,
            "target" : 34962
        },
        {
            "buffer" : 0,
            "byteLength" : 120,
            "byteOffset" : 23956,
            "target" : 34962
        },
        {
            "buffer" : 0,
            "byteLength" : 60,
            "byteOffset" : 24076,
            "target" : 34963
        },
        {
            "buffer" : 0,
            "byteLength" : 408,
            "byteOffset" : 24136,
            "target" : 34962
        },
        {
            "buffer" : 0,
            "byteLength" : 408,
            "byteOffset" : 24544,
            "target" : 34962
        },
        {
            "buffer" : 0,
            "byteLength" : 272,
            "byteOffset" : 24952,
            "target" : 34962
        },
        {
            "buffer" : 0,
            "byteLength" : 272,
            "byteOffset" : 25224,
            "target" : 34962
        },
        {
            "buffer" : 0,
            "byteLength" : 120,
            "byteOffset" : 25496,
            "target" : 34963
        },
        {
            "buffer" : 0,
            "byteLength" : 144,
            "byteOffset" : 25616,
            "target" : 34962
        },
        {
            "buffer" : 0,
            "byteLength" : 144,
            "byteOffset" : 25760,
            "target" : 34962
        },
        {
            "buffer" : 0,
            "byteLength" : 96,
            "byteOffset" : 25904,
            "target" : 34962
        },
        {
            "buffer" : 0,
            "byteLength" : 96,
            "byteOffset" : 26000,
            "target" : 34962
        },
        {
            "buffer" : 0,
            "byteLength" : 48,
            "byteOffset" : 26096,
            "target" : 34963
        }
    ],
    "buffers" : [
        {
            "byteLength" : 26144,
            "uri" : "data:application/octet-stream;base64,"
        }
    ]
}
