{
    "asset" : {
        "generator" : "Khronos glTF Blender I/O v3.3.36",
        "version" : "2.0"
    },
    "extensionsUsed" : [
        "KHR_materials_specular",
        "KHR_materials_ior"
    ],
    "scene" : 0,
    "scenes" : [
        {
            "name" : "Scene",
            "nodes" : [
                0,
                15,
                16,
                17
            ]
        }
    ],
    "nodes" : [
        {
            "mesh" : 0,
            "name" : "RoundPillarMesh"
        },
        {
            "mesh" : 1,
            "name" : "RoundPillarBrokenFloorCollision1",
            "translation" : [
                0,
                1.3592143058776855,
                4.920342689729296e-06
            ]
        },
        {
            "mesh" : 2,
            "name" : "RoundPillarBrokenFloorCollision2",
            "translation" : [
                0,
                4.102451324462891,
                1.446936403226573e-05
            ]
        },
        {
            "mesh" : 3,
            "name" : "RoundPillarBrokenFloorCollision3",
            "translation" : [
                0,
                8.74145221710205,
                3.145323717035353e-05
            ]
        },
        {
            "mesh" : 4,
            "name" : "RoundPillarBrokenFloorCollision4",
            "translation" : [
                0,
                13.341822624206543,
                4.801116665476002e-05
            ]
        },
        {
            "name" : "piece1",
            "rotation" : [
                3.090856637300021e-08,
                0.7071080803871155,
                0.7071055769920349,
                3.0908676507124255e-08
            ],
            "translation" : [
                2.169609160773689e-06,
                4.947185516357422e-06,
                1.3592143058776855
            ]
        },
        {
            "name" : "piece2",
            "rotation" : [
                3.090856637300021e-08,
                0.7071080803871155,
                0.7071055769920349,
                3.0908676507124255e-08
            ],
            "translation" : [
                2.169609160773689e-06,
                1.4483928680419922e-05,
                4.102451324462891
            ]
        },
        {
            "name" : "piece3",
            "rotation" : [
                3.090856637300021e-08,
                0.7071080803871155,
                0.7071055769920349,
                3.0908676507124255e-08
            ],
            "translation" : [
                1.5974044345057337e-06,
                3.147125244140625e-05,
                8.74145221710205
            ]
        },
        {
            "name" : "piece4",
            "rotation" : [
                3.0908562820286534e-08,
                0.7071080803871155,
                0.7071054577827454,
                3.0908672954410576e-08
            ],
            "translation" : [
                1.7881393432617188e-06,
                4.798173904418945e-05,
                13.341822624206543
            ]
        },
        {
            "children" : [
                5,
                6,
                7,
                8
            ],
            "name" : "root",
            "rotation" : [
                0,
                0.7071068286895752,
                0.7071068286895752,
                0
            ]
        },
        {
            "mesh" : 5,
            "name" : "RoundPillarBrokenMesh",
            "skin" : 0
        },
        {
            "mesh" : 6,
            "name" : "RoundPillarBrokenWallCollision1",
            "translation" : [
                0,
                1.3592143058776855,
                4.920342689729296e-06
            ]
        },
        {
            "mesh" : 7,
            "name" : "RoundPillarBrokenWallCollision2",
            "translation" : [
                0,
                4.102451324462891,
                1.446936403226573e-05
            ]
        },
        {
            "mesh" : 8,
            "name" : "RoundPillarBrokenWallCollision3",
            "translation" : [
                0,
                8.74145221710205,
                3.145323717035353e-05
            ]
        },
        {
            "mesh" : 9,
            "name" : "RoundPillarBrokenWallCollision4",
            "translation" : [
                0,
                13.341822624206543,
                4.801116665476002e-05
            ]
        },
        {
            "children" : [
                1,
                2,
                3,
                4,
                10,
                11,
                12,
                13,
                14,
                9
            ],
            "name" : "RoundPillarBrokenRoot"
        },
        {
            "mesh" : 10,
            "name" : "RoundPillarWallCollision"
        },
        {
            "mesh" : 11,
            "name" : "RoundPillarFloorCollision"
        }
    ],
    "animations" : [
        {
            "channels" : [
                {
                    "sampler" : 0,
                    "target" : {
                        "node" : 9,
                        "path" : "translation"
                    }
                },
                {
                    "sampler" : 1,
                    "target" : {
                        "node" : 9,
                        "path" : "rotation"
                    }
                },
                {
                    "sampler" : 2,
                    "target" : {
                        "node" : 9,
                        "path" : "scale"
                    }
                },
                {
                    "sampler" : 3,
                    "target" : {
                        "node" : 5,
                        "path" : "translation"
                    }
                },
                {
                    "sampler" : 4,
                    "target" : {
                        "node" : 5,
                        "path" : "rotation"
                    }
                },
                {
                    "sampler" : 5,
                    "target" : {
                        "node" : 5,
                        "path" : "scale"
                    }
                },
                {
                    "sampler" : 6,
                    "target" : {
                        "node" : 6,
                        "path" : "translation"
                    }
                },
                {
                    "sampler" : 7,
                    "target" : {
                        "node" : 6,
                        "path" : "rotation"
                    }
                },
                {
                    "sampler" : 8,
                    "target" : {
                        "node" : 6,
                        "path" : "scale"
                    }
                },
                {
                    "sampler" : 9,
                    "target" : {
                        "node" : 7,
                        "path" : "translation"
                    }
                },
                {
                    "sampler" : 10,
                    "target" : {
                        "node" : 7,
                        "path" : "rotation"
                    }
                },
                {
                    "sampler" : 11,
                    "target" : {
                        "node" : 7,
                        "path" : "scale"
                    }
                },
                {
                    "sampler" : 12,
                    "target" : {
                        "node" : 8,
                        "path" : "translation"
                    }
                },
                {
                    "sampler" : 13,
                    "target" : {
                        "node" : 8,
                        "path" : "rotation"
                    }
                },
                {
                    "sampler" : 14,
                    "target" : {
                        "node" : 8,
                        "path" : "scale"
                    }
                }
            ],
            "name" : "event",
            "samplers" : [
                {
                    "input" : 62,
                    "interpolation" : "LINEAR",
                    "output" : 63
                },
                {
                    "input" : 62,
                    "interpolation" : "LINEAR",
                    "output" : 64
                },
                {
                    "input" : 62,
                    "interpolation" : "LINEAR",
                    "output" : 65
                },
                {
                    "input" : 62,
                    "interpolation" : "LINEAR",
                    "output" : 66
                },
                {
                    "input" : 62,
                    "interpolation" : "LINEAR",
                    "output" : 67
                },
                {
                    "input" : 62,
                    "interpolation" : "LINEAR",
                    "output" : 68
                },
                {
                    "input" : 62,
                    "interpolation" : "LINEAR",
                    "output" : 69
                },
                {
                    "input" : 62,
                    "interpolation" : "LINEAR",
                    "output" : 70
                },
                {
                    "input" : 62,
                    "interpolation" : "LINEAR",
                    "output" : 71
                },
                {
                    "input" : 62,
                    "interpolation" : "LINEAR",
                    "output" : 72
                },
                {
                    "input" : 62,
                    "interpolation" : "LINEAR",
                    "output" : 73
                },
                {
                    "input" : 62,
                    "interpolation" : "LINEAR",
                    "output" : 74
                },
                {
                    "input" : 62,
                    "interpolation" : "LINEAR",
                    "output" : 75
                },
                {
                    "input" : 62,
                    "interpolation" : "LINEAR",
                    "output" : 76
                },
                {
                    "input" : 62,
                    "interpolation" : "LINEAR",
                    "output" : 77
                }
            ]
        },
        {
            "channels" : [
                {
                    "sampler" : 0,
                    "target" : {
                        "node" : 9,
                        "path" : "translation"
                    }
                },
                {
                    "sampler" : 1,
                    "target" : {
                        "node" : 9,
                        "path" : "rotation"
                    }
                },
                {
                    "sampler" : 2,
                    "target" : {
                        "node" : 9,
                        "path" : "scale"
                    }
                },
                {
                    "sampler" : 3,
                    "target" : {
                        "node" : 5,
                        "path" : "translation"
                    }
                },
                {
                    "sampler" : 4,
                    "target" : {
                        "node" : 5,
                        "path" : "rotation"
                    }
                },
                {
                    "sampler" : 5,
                    "target" : {
                        "node" : 5,
                        "path" : "scale"
                    }
                },
                {
                    "sampler" : 6,
                    "target" : {
                        "node" : 6,
                        "path" : "translation"
                    }
                },
                {
                    "sampler" : 7,
                    "target" : {
                        "node" : 6,
                        "path" : "rotation"
                    }
                },
                {
                    "sampler" : 8,
                    "target" : {
                        "node" : 6,
                        "path" : "scale"
                    }
                },
                {
                    "sampler" : 9,
                    "target" : {
                        "node" : 7,
                        "path" : "translation"
                    }
                },
                {
                    "sampler" : 10,
                    "target" : {
                        "node" : 7,
                        "path" : "rotation"
                    }
                },
                {
                    "sampler" : 11,
                    "target" : {
                        "node" : 7,
                        "path" : "scale"
                    }
                },
                {
                    "sampler" : 12,
                    "target" : {
                        "node" : 8,
                        "path" : "translation"
                    }
                },
                {
                    "sampler" : 13,
                    "target" : {
                        "node" : 8,
                        "path" : "rotation"
                    }
                },
                {
                    "sampler" : 14,
                    "target" : {
                        "node" : 8,
                        "path" : "scale"
                    }
                }
            ],
            "name" : "event-deactivate",
            "samplers" : [
                {
                    "input" : 62,
                    "interpolation" : "LINEAR",
                    "output" : 78
                },
                {
                    "input" : 62,
                    "interpolation" : "LINEAR",
                    "output" : 79
                },
                {
                    "input" : 62,
                    "interpolation" : "LINEAR",
                    "output" : 80
                },
                {
                    "input" : 62,
                    "interpolation" : "LINEAR",
                    "output" : 81
                },
                {
                    "input" : 62,
                    "interpolation" : "LINEAR",
                    "output" : 82
                },
                {
                    "input" : 62,
                    "interpolation" : "LINEAR",
                    "output" : 83
                },
                {
                    "input" : 62,
                    "interpolation" : "LINEAR",
                    "output" : 84
                },
                {
                    "input" : 62,
                    "interpolation" : "LINEAR",
                    "output" : 85
                },
                {
                    "input" : 62,
                    "interpolation" : "LINEAR",
                    "output" : 86
                },
                {
                    "input" : 62,
                    "interpolation" : "LINEAR",
                    "output" : 87
                },
                {
                    "input" : 62,
                    "interpolation" : "LINEAR",
                    "output" : 88
                },
                {
                    "input" : 62,
                    "interpolation" : "LINEAR",
                    "output" : 89
                },
                {
                    "input" : 62,
                    "interpolation" : "LINEAR",
                    "output" : 90
                },
                {
                    "input" : 62,
                    "interpolation" : "LINEAR",
                    "output" : 91
                },
                {
                    "input" : 62,
                    "interpolation" : "LINEAR",
                    "output" : 92
                }
            ]
        },
        {
            "channels" : [
                {
                    "sampler" : 0,
                    "target" : {
                        "node" : 9,
                        "path" : "translation"
                    }
                },
                {
                    "sampler" : 1,
                    "target" : {
                        "node" : 9,
                        "path" : "rotation"
                    }
                },
                {
                    "sampler" : 2,
                    "target" : {
                        "node" : 9,
                        "path" : "scale"
                    }
                },
                {
                    "sampler" : 3,
                    "target" : {
                        "node" : 5,
                        "path" : "translation"
                    }
                },
                {
                    "sampler" : 4,
                    "target" : {
                        "node" : 5,
                        "path" : "rotation"
                    }
                },
                {
                    "sampler" : 5,
                    "target" : {
                        "node" : 5,
                        "path" : "scale"
                    }
                },
                {
                    "sampler" : 6,
                    "target" : {
                        "node" : 6,
                        "path" : "translation"
                    }
                },
                {
                    "sampler" : 7,
                    "target" : {
                        "node" : 6,
                        "path" : "rotation"
                    }
                },
                {
                    "sampler" : 8,
                    "target" : {
                        "node" : 6,
                        "path" : "scale"
                    }
                },
                {
                    "sampler" : 9,
                    "target" : {
                        "node" : 7,
                        "path" : "translation"
                    }
                },
                {
                    "sampler" : 10,
                    "target" : {
                        "node" : 7,
                        "path" : "rotation"
                    }
                },
                {
                    "sampler" : 11,
                    "target" : {
                        "node" : 7,
                        "path" : "scale"
                    }
                },
                {
                    "sampler" : 12,
                    "target" : {
                        "node" : 8,
                        "path" : "translation"
                    }
                },
                {
                    "sampler" : 13,
                    "target" : {
                        "node" : 8,
                        "path" : "rotation"
                    }
                },
                {
                    "sampler" : 14,
                    "target" : {
                        "node" : 8,
                        "path" : "scale"
                    }
                }
            ],
            "name" : "RESET",
            "samplers" : [
                {
                    "input" : 93,
                    "interpolation" : "LINEAR",
                    "output" : 94
                },
                {
                    "input" : 93,
                    "interpolation" : "LINEAR",
                    "output" : 95
                },
                {
                    "input" : 93,
                    "interpolation" : "LINEAR",
                    "output" : 96
                },
                {
                    "input" : 93,
                    "interpolation" : "LINEAR",
                    "output" : 97
                },
                {
                    "input" : 93,
                    "interpolation" : "LINEAR",
                    "output" : 98
                },
                {
                    "input" : 93,
                    "interpolation" : "LINEAR",
                    "output" : 99
                },
                {
                    "input" : 93,
                    "interpolation" : "LINEAR",
                    "output" : 100
                },
                {
                    "input" : 93,
                    "interpolation" : "LINEAR",
                    "output" : 101
                },
                {
                    "input" : 93,
                    "interpolation" : "LINEAR",
                    "output" : 102
                },
                {
                    "input" : 93,
                    "interpolation" : "LINEAR",
                    "output" : 103
                },
                {
                    "input" : 93,
                    "interpolation" : "LINEAR",
                    "output" : 104
                },
                {
                    "input" : 93,
                    "interpolation" : "LINEAR",
                    "output" : 105
                },
                {
                    "input" : 93,
                    "interpolation" : "LINEAR",
                    "output" : 106
                },
                {
                    "input" : 93,
                    "interpolation" : "LINEAR",
                    "output" : 107
                },
                {
                    "input" : 93,
                    "interpolation" : "LINEAR",
                    "output" : 108
                }
            ]
        }
    ],
    "materials" : [
        {
            "extensions" : {
                "KHR_materials_specular" : {
                    "specularColorFactor" : [
                        0,
                        0,
                        0
                    ]
                },
                "KHR_materials_ior" : {
                    "ior" : 1.4500000476837158
                }
            },
            "name" : "Round Pillar",
            "pbrMetallicRoughness" : {
                "baseColorFactor" : [
                    0.800000011920929,
                    0.800000011920929,
                    0.800000011920929,
                    1
                ],
                "metallicFactor" : 0
            }
        },
        {
            "extensions" : {
                "KHR_materials_specular" : {
                    "specularColorFactor" : [
                        0,
                        0,
                        0
                    ]
                },
                "KHR_materials_ior" : {
                    "ior" : 1.4500000476837158
                }
            },
            "name" : "Atlas Round Pillar",
            "pbrMetallicRoughness" : {
                "baseColorFactor" : [
                    0.800000011920929,
                    0.800000011920929,
                    0.800000011920929,
                    1
                ],
                "metallicFactor" : 0
            }
        },
        {
            "extensions" : {
                "KHR_materials_specular" : {
                    "specularColorFactor" : [
                        0,
                        0,
                        0
                    ]
                },
                "KHR_materials_ior" : {
                    "ior" : 1.4500000476837158
                }
            },
            "name" : "Round Pillar Cement",
            "pbrMetallicRoughness" : {
                "baseColorFactor" : [
                    0.800000011920929,
                    0.800000011920929,
                    0.800000011920929,
                    1
                ],
                "metallicFactor" : 0
            }
        }
    ],
    "meshes" : [
        {
            "name" : "RoundPillarMesh",
            "primitives" : [
                {
                    "attributes" : {
                        "POSITION" : 0,
                        "NORMAL" : 1,
                        "TEXCOORD_0" : 2,
                        "COLOR_0" : 3
                    },
                    "indices" : 4,
                    "material" : 0
                },
                {
                    "attributes" : {
                        "POSITION" : 5,
                        "NORMAL" : 6,
                        "TEXCOORD_0" : 7,
                        "COLOR_0" : 8
                    },
                    "indices" : 9,
                    "material" : 1
                }
            ]
        },
        {
            "name" : "RoundPillarBrokenFloorCollision1",
            "primitives" : [
                {
                    "attributes" : {
                        "POSITION" : 10,
                        "NORMAL" : 11
                    },
                    "indices" : 12
                }
            ]
        },
        {
            "name" : "RoundPillarBrokenFloorCollision2",
            "primitives" : [
                {
                    "attributes" : {
                        "POSITION" : 13,
                        "NORMAL" : 14
                    },
                    "indices" : 15
                }
            ]
        },
        {
            "name" : "RoundPillarBrokenFloorCollision3",
            "primitives" : [
                {
                    "attributes" : {
                        "POSITION" : 16,
                        "NORMAL" : 17
                    },
                    "indices" : 18
                }
            ]
        },
        {
            "name" : "RoundPillarBrokenFloorCollision4",
            "primitives" : [
                {
                    "attributes" : {
                        "POSITION" : 19,
                        "NORMAL" : 20
                    },
                    "indices" : 21
                }
            ]
        },
        {
            "name" : "RoundPillarBrokenMesh",
            "primitives" : [
                {
                    "attributes" : {
                        "POSITION" : 22,
                        "NORMAL" : 23,
                        "TEXCOORD_0" : 24,
                        "COLOR_0" : 25,
                        "JOINTS_0" : 26,
                        "WEIGHTS_0" : 27
                    },
                    "indices" : 28,
                    "material" : 0
                },
                {
                    "attributes" : {
                        "POSITION" : 29,
                        "NORMAL" : 30,
                        "TEXCOORD_0" : 31,
                        "COLOR_0" : 32,
                        "JOINTS_0" : 33,
                        "WEIGHTS_0" : 34
                    },
                    "indices" : 35,
                    "material" : 2
                },
                {
                    "attributes" : {
                        "POSITION" : 36,
                        "NORMAL" : 37,
                        "TEXCOORD_0" : 38,
                        "COLOR_0" : 39,
                        "JOINTS_0" : 40,
                        "WEIGHTS_0" : 41
                    },
                    "indices" : 42,
                    "material" : 1
                }
            ]
        },
        {
            "name" : "RoundPillarBrokenWallCollision1",
            "primitives" : [
                {
                    "attributes" : {
                        "POSITION" : 44,
                        "NORMAL" : 45
                    },
                    "indices" : 46
                }
            ]
        },
        {
            "name" : "RoundPillarBrokenWallCollision2",
            "primitives" : [
                {
                    "attributes" : {
                        "POSITION" : 47,
                        "NORMAL" : 48
                    },
                    "indices" : 49
                }
            ]
        },
        {
            "name" : "RoundPillarBrokenWallCollision3",
            "primitives" : [
                {
                    "attributes" : {
                        "POSITION" : 50,
                        "NORMAL" : 51
                    },
                    "indices" : 52
                }
            ]
        },
        {
            "name" : "RoundPillarBrokenWallCollision4",
            "primitives" : [
                {
                    "attributes" : {
                        "POSITION" : 53,
                        "NORMAL" : 54
                    },
                    "indices" : 55
                }
            ]
        },
        {
            "name" : "RoundPillarWallCollision",
            "primitives" : [
                {
                    "attributes" : {
                        "POSITION" : 56,
                        "NORMAL" : 57
                    },
                    "indices" : 58
                }
            ]
        },
        {
            "name" : "RoundPillarFloorCollision",
            "primitives" : [
                {
                    "attributes" : {
                        "POSITION" : 59,
                        "NORMAL" : 60
                    },
                    "indices" : 61
                }
            ]
        }
    ],
    "skins" : [
        {
            "inverseBindMatrices" : 43,
            "joints" : [
                9,
                5,
                6,
                7,
                8
            ],
            "name" : "RoundPillarBrokenRoot"
        }
    ],
    "accessors" : [
        {
            "bufferView" : 0,
            "componentType" : 5126,
            "count" : 142,
            "max" : [
                1.2875275611877441,
                15.134931564331055,
                1.2875304222106934
            ],
            "min" : [
                -1.287528395652771,
                0.6766297221183777,
                -1.2875254154205322
            ],
            "type" : "VEC3"
        },
        {
            "bufferView" : 1,
            "componentType" : 5126,
            "count" : 142,
            "type" : "VEC3"
        },
        {
            "bufferView" : 2,
            "componentType" : 5126,
            "count" : 142,
            "type" : "VEC2"
        },
        {
            "bufferView" : 3,
            "componentType" : 5123,
            "count" : 142,
            "normalized" : true,
            "type" : "VEC4"
        },
        {
            "bufferView" : 4,
            "componentType" : 5123,
            "count" : 402,
            "type" : "SCALAR"
        },
        {
            "bufferView" : 5,
            "componentType" : 5126,
            "count" : 210,
            "max" : [
                1.325581431388855,
                15.134931564331055,
                1.325635313987732
            ],
            "min" : [
                -1.325581431388855,
                -3.6704303056467324e-05,
                -1.3255270719528198
            ],
            "type" : "VEC3"
        },
        {
            "bufferView" : 6,
            "componentType" : 5126,
            "count" : 210,
            "type" : "VEC3"
        },
        {
            "bufferView" : 7,
            "componentType" : 5126,
            "count" : 210,
            "type" : "VEC2"
        },
        {
            "bufferView" : 8,
            "componentType" : 5123,
            "count" : 210,
            "normalized" : true,
            "type" : "VEC4"
        },
        {
            "bufferView" : 9,
            "componentType" : 5123,
            "count" : 576,
            "type" : "SCALAR"
        },
        {
            "bufferView" : 10,
            "componentType" : 5126,
            "count" : 12,
            "max" : [
                0.9114831686019897,
                0.9220395088195801,
                1.2875255346298218
            ],
            "min" : [
                -0.9114779233932495,
                -1.3444790840148926,
                0.7657685279846191
            ],
            "type" : "VEC3"
        },
        {
            "bufferView" : 11,
            "componentType" : 5126,
            "count" : 12,
            "type" : "VEC3"
        },
        {
            "bufferView" : 12,
            "componentType" : 5123,
            "count" : 24,
            "type" : "SCALAR"
        },
        {
            "bufferView" : 13,
            "componentType" : 5126,
            "count" : 18,
            "max" : [
                0.8964861035346985,
                2.1720046997070312,
                1.245857834815979
            ],
            "min" : [
                -0.8661272525787354,
                -2.1905040740966797,
                0.6132880449295044
            ],
            "type" : "VEC3"
        },
        {
            "bufferView" : 14,
            "componentType" : 5126,
            "count" : 18,
            "type" : "VEC3"
        },
        {
            "bufferView" : 15,
            "componentType" : 5123,
            "count" : 36,
            "type" : "SCALAR"
        },
        {
            "bufferView" : 16,
            "componentType" : 5126,
            "count" : 6,
            "max" : [
                0.6317758560180664,
                3.1208267211914062,
                0.8934717774391174
            ],
            "min" : [
                -0.6317700743675232,
                -3.037501811981201,
                0.6317604780197144
            ],
            "type" : "VEC3"
        },
        {
            "bufferView" : 17,
            "componentType" : 5126,
            "count" : 6,
            "type" : "VEC3"
        },
        {
            "bufferView" : 18,
            "componentType" : 5123,
            "count" : 12,
            "type" : "SCALAR"
        },
        {
            "bufferView" : 19,
            "componentType" : 5126,
            "count" : 10,
            "max" : [
                1.3255771398544312,
                1.6113452911376953,
                1.3255857229232788
            ],
            "min" : [
                -1.3255702257156372,
                -1.696913719177246,
                0.6317657828330994
            ],
            "type" : "VEC3"
        },
        {
            "bufferView" : 20,
            "componentType" : 5126,
            "count" : 10,
            "type" : "VEC3"
        },
        {
            "bufferView" : 21,
            "componentType" : 5123,
            "count" : 18,
            "type" : "SCALAR"
        },
        {
            "bufferView" : 22,
            "componentType" : 5126,
            "count" : 189,
            "max" : [
                1.2885863780975342,
                15.129685401916504,
                1.2875304222106934
            ],
            "min" : [
                -1.2864577770233154,
                0.6902139186859131,
                -1.2875254154205322
            ],
            "type" : "VEC3"
        },
        {
            "bufferView" : 23,
            "componentType" : 5126,
            "count" : 189,
            "type" : "VEC3"
        },
        {
            "bufferView" : 24,
            "componentType" : 5126,
            "count" : 189,
            "type" : "VEC2"
        },
        {
            "bufferView" : 25,
            "componentType" : 5123,
            "count" : 189,
            "normalized" : true,
            "type" : "VEC4"
        },
        {
            "bufferView" : 26,
            "componentType" : 5121,
            "count" : 189,
            "type" : "VEC4"
        },
        {
            "bufferView" : 27,
            "componentType" : 5126,
            "count" : 189,
            "type" : "VEC4"
        },
        {
            "bufferView" : 28,
            "componentType" : 5123,
            "count" : 498,
            "type" : "SCALAR"
        },
        {
            "bufferView" : 29,
            "componentType" : 5126,
            "count" : 87,
            "max" : [
                1.2864558696746826,
                12.003351211547852,
                1.2875282764434814
            ],
            "min" : [
                -1.2885879278182983,
                0.013550571165978909,
                -1.2875280380249023
            ],
            "type" : "VEC3"
        },
        {
            "bufferView" : 30,
            "componentType" : 5126,
            "count" : 87,
            "type" : "VEC3"
        },
        {
            "bufferView" : 31,
            "componentType" : 5126,
            "count" : 87,
            "type" : "VEC2"
        },
        {
            "bufferView" : 32,
            "componentType" : 5123,
            "count" : 87,
            "normalized" : true,
            "type" : "VEC4"
        },
        {
            "bufferView" : 33,
            "componentType" : 5121,
            "count" : 87,
            "type" : "VEC4"
        },
        {
            "bufferView" : 34,
            "componentType" : 5126,
            "count" : 87,
            "type" : "VEC4"
        },
        {
            "bufferView" : 35,
            "componentType" : 5123,
            "count" : 264,
            "type" : "SCALAR"
        },
        {
            "bufferView" : 36,
            "componentType" : 5126,
            "count" : 235,
            "max" : [
                1.3255771398544312,
                15.129685401916504,
                1.3256337642669678
            ],
            "min" : [
                -1.3255771398544312,
                0.013550571165978909,
                -1.3255261182785034
            ],
            "type" : "VEC3"
        },
        {
            "bufferView" : 37,
            "componentType" : 5126,
            "count" : 235,
            "type" : "VEC3"
        },
        {
            "bufferView" : 38,
            "componentType" : 5126,
            "count" : 235,
            "type" : "VEC2"
        },
        {
            "bufferView" : 39,
            "componentType" : 5123,
            "count" : 235,
            "normalized" : true,
            "type" : "VEC4"
        },
        {
            "bufferView" : 40,
            "componentType" : 5121,
            "count" : 235,
            "type" : "VEC4"
        },
        {
            "bufferView" : 41,
            "componentType" : 5126,
            "count" : 235,
            "type" : "VEC4"
        },
        {
            "bufferView" : 42,
            "componentType" : 5123,
            "count" : 630,
            "type" : "SCALAR"
        },
        {
            "bufferView" : 43,
            "componentType" : 5126,
            "count" : 5,
            "type" : "MAT4"
        },
        {
            "bufferView" : 44,
            "componentType" : 5126,
            "count" : 44,
            "max" : [
                1.2885867357254028,
                1.3456647396087646,
                1.2875255346298218
            ],
            "min" : [
                -1.2885875701904297,
                -1.3456637859344482,
                -1.287532925605774
            ],
            "type" : "VEC3"
        },
        {
            "bufferView" : 45,
            "componentType" : 5126,
            "count" : 44,
            "type" : "VEC3"
        },
        {
            "bufferView" : 46,
            "componentType" : 5123,
            "count" : 228,
            "type" : "SCALAR"
        },
        {
            "bufferView" : 47,
            "componentType" : 5126,
            "count" : 53,
            "max" : [
                1.2461177110671997,
                2.1720046997070312,
                1.245857834815979
            ],
            "min" : [
                -1.246118426322937,
                -2.1905040740966797,
                -1.2458683252334595
            ],
            "type" : "VEC3"
        },
        {
            "bufferView" : 48,
            "componentType" : 5126,
            "count" : 53,
            "type" : "VEC3"
        },
        {
            "bufferView" : 49,
            "componentType" : 5123,
            "count" : 270,
            "type" : "SCALAR"
        },
        {
            "bufferView" : 50,
            "componentType" : 5126,
            "count" : 20,
            "max" : [
                0.8934629559516907,
                3.261898994445801,
                0.8934717774391174
            ],
            "min" : [
                -0.8934614062309265,
                -3.245159149169922,
                -0.8934711217880249
            ],
            "type" : "VEC3"
        },
        {
            "bufferView" : 51,
            "componentType" : 5126,
            "count" : 20,
            "type" : "VEC3"
        },
        {
            "bufferView" : 52,
            "componentType" : 5123,
            "count" : 96,
            "type" : "SCALAR"
        },
        {
            "bufferView" : 53,
            "componentType" : 5126,
            "count" : 30,
            "max" : [
                1.3255771398544312,
                1.7876920700073242,
                1.3255857229232788
            ],
            "min" : [
                -1.3255771398544312,
                -1.7878589630126953,
                -1.3255741596221924
            ],
            "type" : "VEC3"
        },
        {
            "bufferView" : 54,
            "componentType" : 5126,
            "count" : 30,
            "type" : "VEC3"
        },
        {
            "bufferView" : 55,
            "componentType" : 5123,
            "count" : 126,
            "type" : "SCALAR"
        },
        {
            "bufferView" : 56,
            "componentType" : 5126,
            "count" : 240,
            "max" : [
                1.325581431388855,
                15.134931564331055,
                1.325635313987732
            ],
            "min" : [
                -1.325581431388855,
                -3.6704303056467324e-05,
                -1.3255270719528198
            ],
            "type" : "VEC3"
        },
        {
            "bufferView" : 57,
            "componentType" : 5126,
            "count" : 240,
            "type" : "VEC3"
        },
        {
            "bufferView" : 58,
            "componentType" : 5123,
            "count" : 360,
            "type" : "SCALAR"
        },
        {
            "bufferView" : 59,
            "componentType" : 5126,
            "count" : 4,
            "max" : [
                1.0975539684295654,
                15.134931564331055,
                1.0976088047027588
            ],
            "min" : [
                -1.0975542068481445,
                15.134923934936523,
                -1.0974993705749512
            ],
            "type" : "VEC3"
        },
        {
            "bufferView" : 60,
            "componentType" : 5126,
            "count" : 4,
            "type" : "VEC3"
        },
        {
            "bufferView" : 61,
            "componentType" : 5123,
            "count" : 6,
            "type" : "SCALAR"
        },
        {
            "bufferView" : 62,
            "componentType" : 5126,
            "count" : 31,
            "max" : [
                1
            ],
            "min" : [
                0
            ],
            "type" : "SCALAR"
        },
        {
            "bufferView" : 63,
            "componentType" : 5126,
            "count" : 31,
            "type" : "VEC3"
        },
        {
            "bufferView" : 64,
            "componentType" : 5126,
            "count" : 31,
            "type" : "VEC4"
        },
        {
            "bufferView" : 65,
            "componentType" : 5126,
            "count" : 31,
            "type" : "VEC3"
        },
        {
            "bufferView" : 66,
            "componentType" : 5126,
            "count" : 31,
            "type" : "VEC3"
        },
        {
            "bufferView" : 67,
            "componentType" : 5126,
            "count" : 31,
            "type" : "VEC4"
        },
        {
            "bufferView" : 68,
            "componentType" : 5126,
            "count" : 31,
            "type" : "VEC3"
        },
        {
            "bufferView" : 69,
            "componentType" : 5126,
            "count" : 31,
            "type" : "VEC3"
        },
        {
            "bufferView" : 70,
            "componentType" : 5126,
            "count" : 31,
            "type" : "VEC4"
        },
        {
            "bufferView" : 71,
            "componentType" : 5126,
            "count" : 31,
            "type" : "VEC3"
        },
        {
            "bufferView" : 72,
            "componentType" : 5126,
            "count" : 31,
            "type" : "VEC3"
        },
        {
            "bufferView" : 73,
            "componentType" : 5126,
            "count" : 31,
            "type" : "VEC4"
        },
        {
            "bufferView" : 74,
            "componentType" : 5126,
            "count" : 31,
            "type" : "VEC3"
        },
        {
            "bufferView" : 75,
            "componentType" : 5126,
            "count" : 31,
            "type" : "VEC3"
        },
        {
            "bufferView" : 76,
            "componentType" : 5126,
            "count" : 31,
            "type" : "VEC4"
        },
        {
            "bufferView" : 77,
            "componentType" : 5126,
            "count" : 31,
            "type" : "VEC3"
        },
        {
            "bufferView" : 78,
            "componentType" : 5126,
            "count" : 31,
            "type" : "VEC3"
        },
        {
            "bufferView" : 79,
            "componentType" : 5126,
            "count" : 31,
            "type" : "VEC4"
        },
        {
            "bufferView" : 80,
            "componentType" : 5126,
            "count" : 31,
            "type" : "VEC3"
        },
        {
            "bufferView" : 81,
            "componentType" : 5126,
            "count" : 31,
            "type" : "VEC3"
        },
        {
            "bufferView" : 82,
            "componentType" : 5126,
            "count" : 31,
            "type" : "VEC4"
        },
        {
            "bufferView" : 83,
            "componentType" : 5126,
            "count" : 31,
            "type" : "VEC3"
        },
        {
            "bufferView" : 84,
            "componentType" : 5126,
            "count" : 31,
            "type" : "VEC3"
        },
        {
            "bufferView" : 85,
            "componentType" : 5126,
            "count" : 31,
            "type" : "VEC4"
        },
        {
            "bufferView" : 86,
            "componentType" : 5126,
            "count" : 31,
            "type" : "VEC3"
        },
        {
            "bufferView" : 87,
            "componentType" : 5126,
            "count" : 31,
            "type" : "VEC3"
        },
        {
            "bufferView" : 88,
            "componentType" : 5126,
            "count" : 31,
            "type" : "VEC4"
        },
        {
            "bufferView" : 89,
            "componentType" : 5126,
            "count" : 31,
            "type" : "VEC3"
        },
        {
            "bufferView" : 90,
            "componentType" : 5126,
            "count" : 31,
            "type" : "VEC3"
        },
        {
            "bufferView" : 91,
            "componentType" : 5126,
            "count" : 31,
            "type" : "VEC4"
        },
        {
            "bufferView" : 92,
            "componentType" : 5126,
            "count" : 31,
            "type" : "VEC3"
        },
        {
            "bufferView" : 93,
            "componentType" : 5126,
            "count" : 1,
            "max" : [
                0
            ],
            "min" : [
                0
            ],
            "type" : "SCALAR"
        },
        {
            "bufferView" : 94,
            "componentType" : 5126,
            "count" : 1,
            "type" : "VEC3"
        },
        {
            "bufferView" : 95,
            "componentType" : 5126,
            "count" : 1,
            "type" : "VEC4"
        },
        {
            "bufferView" : 96,
            "componentType" : 5126,
            "count" : 1,
            "type" : "VEC3"
        },
        {
            "bufferView" : 97,
            "componentType" : 5126,
            "count" : 1,
            "type" : "VEC3"
        },
        {
            "bufferView" : 98,
            "componentType" : 5126,
            "count" : 1,
            "type" : "VEC4"
        },
        {
            "bufferView" : 99,
            "componentType" : 5126,
            "count" : 1,
            "type" : "VEC3"
        },
        {
            "bufferView" : 100,
            "componentType" : 5126,
            "count" : 1,
            "type" : "VEC3"
        },
        {
            "bufferView" : 101,
            "componentType" : 5126,
            "count" : 1,
            "type" : "VEC4"
        },
        {
            "bufferView" : 102,
            "componentType" : 5126,
            "count" : 1,
            "type" : "VEC3"
        },
        {
            "bufferView" : 103,
            "componentType" : 5126,
            "count" : 1,
            "type" : "VEC3"
        },
        {
            "bufferView" : 104,
            "componentType" : 5126,
            "count" : 1,
            "type" : "VEC4"
        },
        {
            "bufferView" : 105,
            "componentType" : 5126,
            "count" : 1,
            "type" : "VEC3"
        },
        {
            "bufferView" : 106,
            "componentType" : 5126,
            "count" : 1,
            "type" : "VEC3"
        },
        {
            "bufferView" : 107,
            "componentType" : 5126,
            "count" : 1,
            "type" : "VEC4"
        },
        {
            "bufferView" : 108,
            "componentType" : 5126,
            "count" : 1,
            "type" : "VEC3"
        }
    ],
    "bufferViews" : [
        {
            "buffer" : 0,
            "byteLength" : 1704,
            "byteOffset" : 0,
            "target" : 34962
        },
        {
            "buffer" : 0,
            "byteLength" : 1704,
            "byteOffset" : 1704,
            "target" : 34962
        },
        {
            "buffer" : 0,
            "byteLength" : 1136,
            "byteOffset" : 3408,
            "target" : 34962
        },
        {
            "buffer" : 0,
            "byteLength" : 1136,
            "byteOffset" : 4544,
            "target" : 34962
        },
        {
            "buffer" : 0,
            "byteLength" : 804,
            "byteOffset" : 5680,
            "target" : 34963
        },
        {
            "buffer" : 0,
            "byteLength" : 2520,
            "byteOffset" : 6484,
            "target" : 34962
        },
        {
            "buffer" : 0,
            "byteLength" : 2520,
            "byteOffset" : 9004,
            "target" : 34962
        },
        {
            "buffer" : 0,
            "byteLength" : 1680,
            "byteOffset" : 11524,
            "target" : 34962
        },
        {
            "buffer" : 0,
            "byteLength" : 1680,
            "byteOffset" : 13204,
            "target" : 34962
        },
        {
            "buffer" : 0,
            "byteLength" : 1152,
            "byteOffset" : 14884,
            "target" : 34963
        },
        {
            "buffer" : 0,
            "byteLength" : 144,
            "byteOffset" : 16036,
            "target" : 34962
        },
        {
            "buffer" : 0,
            "byteLength" : 144,
            "byteOffset" : 16180,
            "target" : 34962
        },
        {
            "buffer" : 0,
            "byteLength" : 48,
            "byteOffset" : 16324,
            "target" : 34963
        },
        {
            "buffer" : 0,
            "byteLength" : 216,
            "byteOffset" : 16372,
            "target" : 34962
        },
        {
            "buffer" : 0,
            "byteLength" : 216,
            "byteOffset" : 16588,
            "target" : 34962
        },
        {
            "buffer" : 0,
            "byteLength" : 72,
            "byteOffset" : 16804,
            "target" : 34963
        },
        {
            "buffer" : 0,
            "byteLength" : 72,
            "byteOffset" : 16876,
            "target" : 34962
        },
        {
            "buffer" : 0,
            "byteLength" : 72,
            "byteOffset" : 16948,
            "target" : 34962
        },
        {
            "buffer" : 0,
            "byteLength" : 24,
            "byteOffset" : 17020,
            "target" : 34963
        },
        {
            "buffer" : 0,
            "byteLength" : 120,
            "byteOffset" : 17044,
            "target" : 34962
        },
        {
            "buffer" : 0,
            "byteLength" : 120,
            "byteOffset" : 17164,
            "target" : 34962
        },
        {
            "buffer" : 0,
            "byteLength" : 36,
            "byteOffset" : 17284,
            "target" : 34963
        },
        {
            "buffer" : 0,
            "byteLength" : 2268,
            "byteOffset" : 17320,
            "target" : 34962
        },
        {
            "buffer" : 0,
            "byteLength" : 2268,
            "byteOffset" : 19588,
            "target" : 34962
        },
        {
            "buffer" : 0,
            "byteLength" : 1512,
            "byteOffset" : 21856,
            "target" : 34962
        },
        {
            "buffer" : 0,
            "byteLength" : 1512,
            "byteOffset" : 23368,
            "target" : 34962
        },
        {
            "buffer" : 0,
            "byteLength" : 756,
            "byteOffset" : 24880,
            "target" : 34962
        },
        {
            "buffer" : 0,
            "byteLength" : 3024,
            "byteOffset" : 25636,
            "target" : 34962
        },
        {
            "buffer" : 0,
            "byteLength" : 996,
            "byteOffset" : 28660,
            "target" : 34963
        },
        {
            "buffer" : 0,
            "byteLength" : 1044,
            "byteOffset" : 29656,
            "target" : 34962
        },
        {
            "buffer" : 0,
            "byteLength" : 1044,
            "byteOffset" : 30700,
            "target" : 34962
        },
        {
            "buffer" : 0,
            "byteLength" : 696,
            "byteOffset" : 31744,
            "target" : 34962
        },
        {
            "buffer" : 0,
            "byteLength" : 696,
            "byteOffset" : 32440,
            "target" : 34962
        },
        {
            "buffer" : 0,
            "byteLength" : 348,
            "byteOffset" : 33136,
            "target" : 34962
        },
        {
            "buffer" : 0,
            "byteLength" : 1392,
            "byteOffset" : 33484,
            "target" : 34962
        },
        {
            "buffer" : 0,
            "byteLength" : 528,
            "byteOffset" : 34876,
            "target" : 34963
        },
        {
            "buffer" : 0,
            "byteLength" : 2820,
            "byteOffset" : 35404,
            "target" : 34962
        },
        {
            "buffer" : 0,
            "byteLength" : 2820,
            "byteOffset" : 38224,
            "target" : 34962
        },
        {
            "buffer" : 0,
            "byteLength" : 1880,
            "byteOffset" : 41044,
            "target" : 34962
        },
        {
            "buffer" : 0,
            "byteLength" : 1880,
            "byteOffset" : 42924,
            "target" : 34962
        },
        {
            "buffer" : 0,
            "byteLength" : 940,
            "byteOffset" : 44804,
            "target" : 34962
        },
        {
            "buffer" : 0,
            "byteLength" : 3760,
            "byteOffset" : 45744,
            "target" : 34962
        },
        {
            "buffer" : 0,
            "byteLength" : 1260,
            "byteOffset" : 49504,
            "target" : 34963
        },
        {
            "buffer" : 0,
            "byteLength" : 320,
            "byteOffset" : 50764
        },
        {
            "buffer" : 0,
            "byteLength" : 528,
            "byteOffset" : 51084,
            "target" : 34962
        },
        {
            "buffer" : 0,
            "byteLength" : 528,
            "byteOffset" : 51612,
            "target" : 34962
        },
        {
            "buffer" : 0,
            "byteLength" : 456,
            "byteOffset" : 52140,
            "target" : 34963
        },
        {
            "buffer" : 0,
            "byteLength" : 636,
            "byteOffset" : 52596,
            "target" : 34962
        },
        {
            "buffer" : 0,
            "byteLength" : 636,
            "byteOffset" : 53232,
            "target" : 34962
        },
        {
            "buffer" : 0,
            "byteLength" : 540,
            "byteOffset" : 53868,
            "target" : 34963
        },
        {
            "buffer" : 0,
            "byteLength" : 240,
            "byteOffset" : 54408,
            "target" : 34962
        },
        {
            "buffer" : 0,
            "byteLength" : 240,
            "byteOffset" : 54648,
            "target" : 34962
        },
        {
            "buffer" : 0,
            "byteLength" : 192,
            "byteOffset" : 54888,
            "target" : 34963
        },
        {
            "buffer" : 0,
            "byteLength" : 360,
            "byteOffset" : 55080,
            "target" : 34962
        },
        {
            "buffer" : 0,
            "byteLength" : 360,
            "byteOffset" : 55440,
            "target" : 34962
        },
        {
            "buffer" : 0,
            "byteLength" : 252,
            "byteOffset" : 55800,
            "target" : 34963
        },
        {
            "buffer" : 0,
            "byteLength" : 2880,
            "byteOffset" : 56052,
            "target" : 34962
        },
        {
            "buffer" : 0,
            "byteLength" : 2880,
            "byteOffset" : 58932,
            "target" : 34962
        },
        {
            "buffer" : 0,
            "byteLength" : 720,
            "byteOffset" : 61812,
            "target" : 34963
        },
        {
            "buffer" : 0,
            "byteLength" : 48,
            "byteOffset" : 62532,
            "target" : 34962
        },
        {
            "buffer" : 0,
            "byteLength" : 48,
            "byteOffset" : 62580,
            "target" : 34962
        },
        {
            "buffer" : 0,
            "byteLength" : 12,
            "byteOffset" : 62628,
            "target" : 34963
        },
        {
            "buffer" : 0,
            "byteLength" : 124,
            "byteOffset" : 62640
        },
        {
            "buffer" : 0,
            "byteLength" : 372,
            "byteOffset" : 62764
        },
        {
            "buffer" : 0,
            "byteLength" : 496,
            "byteOffset" : 63136
        },
        {
            "buffer" : 0,
            "byteLength" : 372,
            "byteOffset" : 63632
        },
        {
            "buffer" : 0,
            "byteLength" : 372,
            "byteOffset" : 64004
        },
        {
            "buffer" : 0,
            "byteLength" : 496,
            "byteOffset" : 64376
        },
        {
            "buffer" : 0,
            "byteLength" : 372,
            "byteOffset" : 64872
        },
        {
            "buffer" : 0,
            "byteLength" : 372,
            "byteOffset" : 65244
        },
        {
            "buffer" : 0,
            "byteLength" : 496,
            "byteOffset" : 65616
        },
        {
            "buffer" : 0,
            "byteLength" : 372,
            "byteOffset" : 66112
        },
        {
            "buffer" : 0,
            "byteLength" : 372,
            "byteOffset" : 66484
        },
        {
            "buffer" : 0,
            "byteLength" : 496,
            "byteOffset" : 66856
        },
        {
            "buffer" : 0,
            "byteLength" : 372,
            "byteOffset" : 67352
        },
        {
            "buffer" : 0,
            "byteLength" : 372,
            "byteOffset" : 67724
        },
        {
            "buffer" : 0,
            "byteLength" : 496,
            "byteOffset" : 68096
        },
        {
            "buffer" : 0,
            "byteLength" : 372,
            "byteOffset" : 68592
        },
        {
            "buffer" : 0,
            "byteLength" : 372,
            "byteOffset" : 68964
        },
        {
            "buffer" : 0,
            "byteLength" : 496,
            "byteOffset" : 69336
        },
        {
            "buffer" : 0,
            "byteLength" : 372,
            "byteOffset" : 69832
        },
        {
            "buffer" : 0,
            "byteLength" : 372,
            "byteOffset" : 70204
        },
        {
            "buffer" : 0,
            "byteLength" : 496,
            "byteOffset" : 70576
        },
        {
            "buffer" : 0,
            "byteLength" : 372,
            "byteOffset" : 71072
        },
        {
            "buffer" : 0,
            "byteLength" : 372,
            "byteOffset" : 71444
        },
        {
            "buffer" : 0,
            "byteLength" : 496,
            "byteOffset" : 71816
        },
        {
            "buffer" : 0,
            "byteLength" : 372,
            "byteOffset" : 72312
        },
        {
            "buffer" : 0,
            "byteLength" : 372,
            "byteOffset" : 72684
        },
        {
            "buffer" : 0,
            "byteLength" : 496,
            "byteOffset" : 73056
        },
        {
            "buffer" : 0,
            "byteLength" : 372,
            "byteOffset" : 73552
        },
        {
            "buffer" : 0,
            "byteLength" : 372,
            "byteOffset" : 73924
        },
        {
            "buffer" : 0,
            "byteLength" : 496,
            "byteOffset" : 74296
        },
        {
            "buffer" : 0,
            "byteLength" : 372,
            "byteOffset" : 74792
        },
        {
            "buffer" : 0,
            "byteLength" : 4,
            "byteOffset" : 75164
        },
        {
            "buffer" : 0,
            "byteLength" : 12,
            "byteOffset" : 75168
        },
        {
            "buffer" : 0,
            "byteLength" : 16,
            "byteOffset" : 75180
        },
        {
            "buffer" : 0,
            "byteLength" : 12,
            "byteOffset" : 75196
        },
        {
            "buffer" : 0,
            "byteLength" : 12,
            "byteOffset" : 75208
        },
        {
            "buffer" : 0,
            "byteLength" : 16,
            "byteOffset" : 75220
        },
        {
            "buffer" : 0,
            "byteLength" : 12,
            "byteOffset" : 75236
        },
        {
            "buffer" : 0,
            "byteLength" : 12,
            "byteOffset" : 75248
        },
        {
            "buffer" : 0,
            "byteLength" : 16,
            "byteOffset" : 75260
        },
        {
            "buffer" : 0,
            "byteLength" : 12,
            "byteOffset" : 75276
        },
        {
            "buffer" : 0,
            "byteLength" : 12,
            "byteOffset" : 75288
        },
        {
            "buffer" : 0,
            "byteLength" : 16,
            "byteOffset" : 75300
        },
        {
            "buffer" : 0,
            "byteLength" : 12,
            "byteOffset" : 75316
        },
        {
            "buffer" : 0,
            "byteLength" : 12,
            "byteOffset" : 75328
        },
        {
            "buffer" : 0,
            "byteLength" : 16,
            "byteOffset" : 75340
        },
        {
            "buffer" : 0,
            "byteLength" : 12,
            "byteOffset" : 75356
        }
    ],
    "buffers" : [
        {
            "byteLength" : 75368,
            "uri" : "data:application/octet-stream;base64,"
        }
    ]
}
