{
    "asset" : {
        "generator" : "Khronos glTF Blender I/O v3.3.36",
        "version" : "2.0"
    },
    "scene" : 0,
    "scenes" : [
        {
            "name" : "Scene",
            "nodes" : [
                0,
                1,
                2,
                3,
                4,
                5,
                6,
                7,
                8,
                9,
                10
            ]
        }
    ],
    "nodes" : [
        {
            "mesh" : 0,
            "name" : "FloorWood"
        },
        {
            "mesh" : 1,
            "name" : "FloorMetal"
        },
        {
            "mesh" : 2,
            "name" : "FloorWetRock"
        },
        {
            "mesh" : 3,
            "name" : "Wall"
        },
        {
            "mesh" : 4,
            "name" : "FloorPavement"
        },
        {
            "mesh" : 5,
            "name" : "FloorWater"
        },
        {
            "mesh" : 6,
            "name" : "OneWayWall"
        },
        {
            "mesh" : 7,
            "name" : "Ceiling"
        },
        {
            "mesh" : 8,
            "name" : "SpikeBallCollision"
        },
        {
            "mesh" : 9,
            "name" : "GrindOneWayWall"
        },
        {
            "mesh" : 10,
            "name" : "FloorWetWood"
        }
    ],
    "meshes" : [
        {
            "name" : "FloorWood",
            "primitives" : [
                {
                    "attributes" : {
                        "POSITION" : 0,
                        "NORMAL" : 1,
                        "TEXCOORD_0" : 2,
                        "COLOR_0" : 3
                    },
                    "indices" : 4
                }
            ]
        },
        {
            "name" : "FloorMetal",
            "primitives" : [
                {
                    "attributes" : {
                        "POSITION" : 5,
                        "NORMAL" : 6
                    },
                    "indices" : 7
                }
            ]
        },
        {
            "name" : "FloorWetRock",
            "primitives" : [
                {
                    "attributes" : {
                        "POSITION" : 8,
                        "NORMAL" : 9
                    },
                    "indices" : 10
                }
            ]
        },
        {
            "name" : "Wall",
            "primitives" : [
                {
                    "attributes" : {
                        "POSITION" : 11,
                        "NORMAL" : 12
                    },
                    "indices" : 13
                }
            ]
        },
        {
            "name" : "FloorPavement",
            "primitives" : [
                {
                    "attributes" : {
                        "POSITION" : 14,
                        "NORMAL" : 15
                    },
                    "indices" : 16
                }
            ]
        },
        {
            "name" : "FloorWater",
            "primitives" : [
                {
                    "attributes" : {
                        "POSITION" : 17,
                        "NORMAL" : 18
                    },
                    "indices" : 19
                }
            ]
        },
        {
            "name" : "OneWayWall",
            "primitives" : [
                {
                    "attributes" : {
                        "POSITION" : 20,
                        "NORMAL" : 21
                    },
                    "indices" : 22
                }
            ]
        },
        {
            "name" : "Ceiling",
            "primitives" : [
                {
                    "attributes" : {
                        "POSITION" : 23,
                        "NORMAL" : 24
                    },
                    "indices" : 25
                }
            ]
        },
        {
            "name" : "SpikeBallCollision",
            "primitives" : [
                {
                    "attributes" : {
                        "POSITION" : 26,
                        "NORMAL" : 27,
                        "TEXCOORD_0" : 28,
                        "COLOR_0" : 29
                    },
                    "indices" : 30
                }
            ]
        },
        {
            "name" : "GrindOneWayWall",
            "primitives" : [
                {
                    "attributes" : {
                        "POSITION" : 31,
                        "NORMAL" : 32
                    },
                    "indices" : 33
                }
            ]
        },
        {
            "name" : "FloorWetWood",
            "primitives" : [
                {
                    "attributes" : {
                        "POSITION" : 34,
                        "NORMAL" : 35,
                        "TEXCOORD_0" : 36,
                        "COLOR_0" : 37
                    },
                    "indices" : 38
                }
            ]
        }
    ],
    "accessors" : [
        {
            "bufferView" : 0,
            "componentType" : 5126,
            "count" : 208,
            "max" : [
                -70.82127380371094,
                15.28120231628418,
                1992.198486328125
            ],
            "min" : [
                -580.9692993164062,
                -0.2740488052368164,
                1306.216552734375
            ],
            "type" : "VEC3"
        },
        {
            "bufferView" : 1,
            "componentType" : 5126,
            "count" : 208,
            "type" : "VEC3"
        },
        {
            "bufferView" : 2,
            "componentType" : 5126,
            "count" : 208,
            "type" : "VEC2"
        },
        {
            "bufferView" : 3,
            "componentType" : 5123,
            "count" : 208,
            "normalized" : true,
            "type" : "VEC4"
        },
        {
            "bufferView" : 4,
            "componentType" : 5123,
            "count" : 306,
            "type" : "SCALAR"
        },
        {
            "bufferView" : 5,
            "componentType" : 5126,
            "count" : 611,
            "max" : [
                44.77284240722656,
                15.013026237487793,
                1990.91259765625
            ],
            "min" : [
                -578.9766235351562,
                -10.894536018371582,
                -49.18463134765625
            ],
            "type" : "VEC3"
        },
        {
            "bufferView" : 6,
            "componentType" : 5126,
            "count" : 611,
            "type" : "VEC3"
        },
        {
            "bufferView" : 7,
            "componentType" : 5123,
            "count" : 837,
            "type" : "SCALAR"
        },
        {
            "bufferView" : 8,
            "componentType" : 5126,
            "count" : 696,
            "max" : [
                18.23100471496582,
                3.110351800918579,
                2911.98876953125
            ],
            "min" : [
                -665.2033081054688,
                0.0600508488714695,
                413.638427734375
            ],
            "type" : "VEC3"
        },
        {
            "bufferView" : 9,
            "componentType" : 5126,
            "count" : 696,
            "type" : "VEC3"
        },
        {
            "bufferView" : 10,
            "componentType" : 5123,
            "count" : 744,
            "type" : "SCALAR"
        },
        {
            "bufferView" : 11,
            "componentType" : 5126,
            "count" : 5038,
            "max" : [
                46.999237060546875,
                138.35826110839844,
                2901.3701171875
            ],
            "min" : [
                -915.3234252929688,
                -10.894536972045898,
                -5.7868971824646
            ],
            "type" : "VEC3"
        },
        {
            "bufferView" : 12,
            "componentType" : 5126,
            "count" : 5038,
            "type" : "VEC3"
        },
        {
            "bufferView" : 13,
            "componentType" : 5123,
            "count" : 12789,
            "type" : "SCALAR"
        },
        {
            "bufferView" : 14,
            "componentType" : 5126,
            "count" : 675,
            "max" : [
                -81.2988510131836,
                40.5773811340332,
                1622.212646484375
            ],
            "min" : [
                -504.73944091796875,
                -3.0820062160491943,
                1550.3197021484375
            ],
            "type" : "VEC3"
        },
        {
            "bufferView" : 15,
            "componentType" : 5126,
            "count" : 675,
            "type" : "VEC3"
        },
        {
            "bufferView" : 16,
            "componentType" : 5123,
            "count" : 981,
            "type" : "SCALAR"
        },
        {
            "bufferView" : 17,
            "componentType" : 5126,
            "count" : 588,
            "max" : [
                -189.24957275390625,
                20.068635940551758,
                1620.903564453125
            ],
            "min" : [
                -459.801025390625,
                -4.469670295715332,
                1534.9752197265625
            ],
            "type" : "VEC3"
        },
        {
            "bufferView" : 18,
            "componentType" : 5126,
            "count" : 588,
            "type" : "VEC3"
        },
        {
            "bufferView" : 19,
            "componentType" : 5123,
            "count" : 840,
            "type" : "SCALAR"
        },
        {
            "bufferView" : 20,
            "componentType" : 5126,
            "count" : 108,
            "max" : [
                38.85646438598633,
                138.35826110839844,
                2844.52880859375
            ],
            "min" : [
                -600.4417724609375,
                -10.894536018371582,
                290.8149719238281
            ],
            "type" : "VEC3"
        },
        {
            "bufferView" : 21,
            "componentType" : 5126,
            "count" : 108,
            "type" : "VEC3"
        },
        {
            "bufferView" : 22,
            "componentType" : 5123,
            "count" : 162,
            "type" : "SCALAR"
        },
        {
            "bufferView" : 23,
            "componentType" : 5126,
            "count" : 134,
            "max" : [
                -70.39508819580078,
                66.99981689453125,
                1351.857177734375
            ],
            "min" : [
                -128.88922119140625,
                17.701845169067383,
                1224.398193359375
            ],
            "type" : "VEC3"
        },
        {
            "bufferView" : 24,
            "componentType" : 5126,
            "count" : 134,
            "type" : "VEC3"
        },
        {
            "bufferView" : 25,
            "componentType" : 5123,
            "count" : 156,
            "type" : "SCALAR"
        },
        {
            "bufferView" : 26,
            "componentType" : 5126,
            "count" : 825,
            "max" : [
                -111.18221282958984,
                63.214988708496094,
                2914.453857421875
            ],
            "min" : [
                -668.5767822265625,
                -2.051802396774292,
                1031.92578125
            ],
            "type" : "VEC3"
        },
        {
            "bufferView" : 27,
            "componentType" : 5126,
            "count" : 825,
            "type" : "VEC3"
        },
        {
            "bufferView" : 28,
            "componentType" : 5126,
            "count" : 825,
            "type" : "VEC2"
        },
        {
            "bufferView" : 29,
            "componentType" : 5123,
            "count" : 825,
            "normalized" : true,
            "type" : "VEC4"
        },
        {
            "bufferView" : 30,
            "componentType" : 5123,
            "count" : 2655,
            "type" : "SCALAR"
        },
        {
            "bufferView" : 31,
            "componentType" : 5126,
            "count" : 8,
            "max" : [
                -523.7284545898438,
                74.87359619140625,
                1667.1845703125
            ],
            "min" : [
                -524.6174926757812,
                10.12087631225586,
                1662.06591796875
            ],
            "type" : "VEC3"
        },
        {
            "bufferView" : 32,
            "componentType" : 5126,
            "count" : 8,
            "type" : "VEC3"
        },
        {
            "bufferView" : 33,
            "componentType" : 5123,
            "count" : 12,
            "type" : "SCALAR"
        },
        {
            "bufferView" : 34,
            "componentType" : 5126,
            "count" : 1855,
            "max" : [
                51.791831970214844,
                79.98904418945312,
                1853.52685546875
            ],
            "min" : [
                -572.203125,
                -8.765429496765137,
                -49.18463134765625
            ],
            "type" : "VEC3"
        },
        {
            "bufferView" : 35,
            "componentType" : 5126,
            "count" : 1855,
            "type" : "VEC3"
        },
        {
            "bufferView" : 36,
            "componentType" : 5126,
            "count" : 1855,
            "type" : "VEC2"
        },
        {
            "bufferView" : 37,
            "componentType" : 5123,
            "count" : 1855,
            "normalized" : true,
            "type" : "VEC4"
        },
        {
            "bufferView" : 38,
            "componentType" : 5123,
            "count" : 2793,
            "type" : "SCALAR"
        }
    ],
    "bufferViews" : [
        {
            "buffer" : 0,
            "byteLength" : 2496,
            "byteOffset" : 0,
            "target" : 34962
        },
        {
            "buffer" : 0,
            "byteLength" : 2496,
            "byteOffset" : 2496,
            "target" : 34962
        },
        {
            "buffer" : 0,
            "byteLength" : 1664,
            "byteOffset" : 4992,
            "target" : 34962
        },
        {
            "buffer" : 0,
            "byteLength" : 1664,
            "byteOffset" : 6656,
            "target" : 34962
        },
        {
            "buffer" : 0,
            "byteLength" : 612,
            "byteOffset" : 8320,
            "target" : 34963
        },
        {
            "buffer" : 0,
            "byteLength" : 7332,
            "byteOffset" : 8932,
            "target" : 34962
        },
        {
            "buffer" : 0,
            "byteLength" : 7332,
            "byteOffset" : 16264,
            "target" : 34962
        },
        {
            "buffer" : 0,
            "byteLength" : 1674,
            "byteOffset" : 23596,
            "target" : 34963
        },
        {
            "buffer" : 0,
            "byteLength" : 8352,
            "byteOffset" : 25272,
            "target" : 34962
        },
        {
            "buffer" : 0,
            "byteLength" : 8352,
            "byteOffset" : 33624,
            "target" : 34962
        },
        {
            "buffer" : 0,
            "byteLength" : 1488,
            "byteOffset" : 41976,
            "target" : 34963
        },
        {
            "buffer" : 0,
            "byteLength" : 60456,
            "byteOffset" : 43464,
            "target" : 34962
        },
        {
            "buffer" : 0,
            "byteLength" : 60456,
            "byteOffset" : 103920,
            "target" : 34962
        },
        {
            "buffer" : 0,
            "byteLength" : 25578,
            "byteOffset" : 164376,
            "target" : 34963
        },
        {
            "buffer" : 0,
            "byteLength" : 8100,
            "byteOffset" : 189956,
            "target" : 34962
        },
        {
            "buffer" : 0,
            "byteLength" : 8100,
            "byteOffset" : 198056,
            "target" : 34962
        },
        {
            "buffer" : 0,
            "byteLength" : 1962,
            "byteOffset" : 206156,
            "target" : 34963
        },
        {
            "buffer" : 0,
            "byteLength" : 7056,
            "byteOffset" : 208120,
            "target" : 34962
        },
        {
            "buffer" : 0,
            "byteLength" : 7056,
            "byteOffset" : 215176,
            "target" : 34962
        },
        {
            "buffer" : 0,
            "byteLength" : 1680,
            "byteOffset" : 222232,
            "target" : 34963
        },
        {
            "buffer" : 0,
            "byteLength" : 1296,
            "byteOffset" : 223912,
            "target" : 34962
        },
        {
            "buffer" : 0,
            "byteLength" : 1296,
            "byteOffset" : 225208,
            "target" : 34962
        },
        {
            "buffer" : 0,
            "byteLength" : 324,
            "byteOffset" : 226504,
            "target" : 34963
        },
        {
            "buffer" : 0,
            "byteLength" : 1608,
            "byteOffset" : 226828,
            "target" : 34962
        },
        {
            "buffer" : 0,
            "byteLength" : 1608,
            "byteOffset" : 228436,
            "target" : 34962
        },
        {
            "buffer" : 0,
            "byteLength" : 312,
            "byteOffset" : 230044,
            "target" : 34963
        },
        {
            "buffer" : 0,
            "byteLength" : 9900,
            "byteOffset" : 230356,
            "target" : 34962
        },
        {
            "buffer" : 0,
            "byteLength" : 9900,
            "byteOffset" : 240256,
            "target" : 34962
        },
        {
            "buffer" : 0,
            "byteLength" : 6600,
            "byteOffset" : 250156,
            "target" : 34962
        },
        {
            "buffer" : 0,
            "byteLength" : 6600,
            "byteOffset" : 256756,
            "target" : 34962
        },
        {
            "buffer" : 0,
            "byteLength" : 5310,
            "byteOffset" : 263356,
            "target" : 34963
        },
        {
            "buffer" : 0,
            "byteLength" : 96,
            "byteOffset" : 268668,
            "target" : 34962
        },
        {
            "buffer" : 0,
            "byteLength" : 96,
            "byteOffset" : 268764,
            "target" : 34962
        },
        {
            "buffer" : 0,
            "byteLength" : 24,
            "byteOffset" : 268860,
            "target" : 34963
        },
        {
            "buffer" : 0,
            "byteLength" : 22260,
            "byteOffset" : 268884,
            "target" : 34962
        },
        {
            "buffer" : 0,
            "byteLength" : 22260,
            "byteOffset" : 291144,
            "target" : 34962
        },
        {
            "buffer" : 0,
            "byteLength" : 14840,
            "byteOffset" : 313404,
            "target" : 34962
        },
        {
            "buffer" : 0,
            "byteLength" : 14840,
            "byteOffset" : 328244,
            "target" : 34962
        },
        {
            "buffer" : 0,
            "byteLength" : 5586,
            "byteOffset" : 343084,
            "target" : 34963
        }
    ],
    "buffers" : [
        {
            "byteLength" : 348672,
            "uri" : "data:application/octet-stream;base64,"
        }
    ]
}
