{
    "asset" : {
        "generator" : "Khronos glTF Blender I/O v3.3.36",
        "version" : "2.0"
    },
    "extensionsUsed" : [
        "KHR_materials_specular",
        "KHR_materials_ior"
    ],
    "scene" : 0,
    "scenes" : [
        {
            "name" : "Scene",
            "nodes" : [
                15
            ]
        }
    ],
    "nodes" : [
        {
            "name" : "base_fade"
        },
        {
            "children" : [
                0
            ],
            "name" : "base"
        },
        {
            "name" : "stg080_bsky_Bone_0004"
        },
        {
            "name" : "stg080_bsky_Bone_0005",
            "rotation" : [
                2.384185791015625e-07,
                3.552713678800501e-14,
                -1,
                1.5212709341618276e-20
            ]
        },
        {
            "name" : "stg080_bsky_Bone_0006",
            "rotation" : [
                0.7071067094802856,
                3.632200944636739e-15,
                -3.632200097603792e-15,
                0.7071068286895752
            ]
        },
        {
            "name" : "stg080_bsky_Bone_0007",
            "rotation" : [
                -0.70710688829422,
                1.1200528419780427e-15,
                1.1200532654945163e-15,
                0.7071066498756409
            ]
        },
        {
            "name" : "stg080_bsky_Bone_0008",
            "rotation" : [
                -0.5000001192092896,
                -0.5000000596046448,
                -0.4999999403953552,
                0.4999999403953552
            ],
            "scale" : [
                1,
                0.9999999403953552,
                1
            ]
        },
        {
            "name" : "stg080_bsky_Bone_0009",
            "rotation" : [
                -0.5000000596046448,
                0.4999999701976776,
                0.5000000596046448,
                0.5
            ]
        },
        {
            "children" : [
                2,
                3,
                4,
                5,
                6,
                7
            ],
            "name" : "stg080_bsky_Bone_0003"
        },
        {
            "children" : [
                1,
                8
            ],
            "name" : "stg080_bsky_Bone_0000",
            "rotation" : [
                4.0730167683022955e-08,
                0,
                0,
                1
            ]
        },
        {
            "mesh" : 0,
            "name" : "SkyboxBaseFadeMesh",
            "skin" : 0
        },
        {
            "mesh" : 1,
            "name" : "SkyboxBaseMesh",
            "skin" : 0
        },
        {
            "mesh" : 2,
            "name" : "SkyboxRipple1Mesh",
            "skin" : 0
        },
        {
            "mesh" : 3,
            "name" : "SkyboxRipple2Mesh",
            "skin" : 0
        },
        {
            "mesh" : 4,
            "name" : "SkyboxRipple3Mesh",
            "skin" : 0
        },
        {
            "children" : [
                10,
                11,
                12,
                13,
                14,
                9
            ],
            "name" : "SkyboxRoot"
        }
    ],
    "animations" : [
        {
            "channels" : [
                {
                    "sampler" : 0,
                    "target" : {
                        "node" : 9,
                        "path" : "translation"
                    }
                },
                {
                    "sampler" : 1,
                    "target" : {
                        "node" : 9,
                        "path" : "rotation"
                    }
                },
                {
                    "sampler" : 2,
                    "target" : {
                        "node" : 9,
                        "path" : "scale"
                    }
                },
                {
                    "sampler" : 3,
                    "target" : {
                        "node" : 1,
                        "path" : "translation"
                    }
                },
                {
                    "sampler" : 4,
                    "target" : {
                        "node" : 1,
                        "path" : "rotation"
                    }
                },
                {
                    "sampler" : 5,
                    "target" : {
                        "node" : 1,
                        "path" : "scale"
                    }
                },
                {
                    "sampler" : 6,
                    "target" : {
                        "node" : 0,
                        "path" : "translation"
                    }
                },
                {
                    "sampler" : 7,
                    "target" : {
                        "node" : 0,
                        "path" : "rotation"
                    }
                },
                {
                    "sampler" : 8,
                    "target" : {
                        "node" : 0,
                        "path" : "scale"
                    }
                },
                {
                    "sampler" : 9,
                    "target" : {
                        "node" : 8,
                        "path" : "translation"
                    }
                },
                {
                    "sampler" : 10,
                    "target" : {
                        "node" : 8,
                        "path" : "rotation"
                    }
                },
                {
                    "sampler" : 11,
                    "target" : {
                        "node" : 8,
                        "path" : "scale"
                    }
                },
                {
                    "sampler" : 12,
                    "target" : {
                        "node" : 2,
                        "path" : "translation"
                    }
                },
                {
                    "sampler" : 13,
                    "target" : {
                        "node" : 2,
                        "path" : "rotation"
                    }
                },
                {
                    "sampler" : 14,
                    "target" : {
                        "node" : 2,
                        "path" : "scale"
                    }
                },
                {
                    "sampler" : 15,
                    "target" : {
                        "node" : 3,
                        "path" : "translation"
                    }
                },
                {
                    "sampler" : 16,
                    "target" : {
                        "node" : 3,
                        "path" : "rotation"
                    }
                },
                {
                    "sampler" : 17,
                    "target" : {
                        "node" : 3,
                        "path" : "scale"
                    }
                },
                {
                    "sampler" : 18,
                    "target" : {
                        "node" : 4,
                        "path" : "translation"
                    }
                },
                {
                    "sampler" : 19,
                    "target" : {
                        "node" : 4,
                        "path" : "rotation"
                    }
                },
                {
                    "sampler" : 20,
                    "target" : {
                        "node" : 4,
                        "path" : "scale"
                    }
                },
                {
                    "sampler" : 21,
                    "target" : {
                        "node" : 5,
                        "path" : "translation"
                    }
                },
                {
                    "sampler" : 22,
                    "target" : {
                        "node" : 5,
                        "path" : "rotation"
                    }
                },
                {
                    "sampler" : 23,
                    "target" : {
                        "node" : 5,
                        "path" : "scale"
                    }
                },
                {
                    "sampler" : 24,
                    "target" : {
                        "node" : 6,
                        "path" : "translation"
                    }
                },
                {
                    "sampler" : 25,
                    "target" : {
                        "node" : 6,
                        "path" : "rotation"
                    }
                },
                {
                    "sampler" : 26,
                    "target" : {
                        "node" : 6,
                        "path" : "scale"
                    }
                },
                {
                    "sampler" : 27,
                    "target" : {
                        "node" : 7,
                        "path" : "translation"
                    }
                },
                {
                    "sampler" : 28,
                    "target" : {
                        "node" : 7,
                        "path" : "rotation"
                    }
                },
                {
                    "sampler" : 29,
                    "target" : {
                        "node" : 7,
                        "path" : "scale"
                    }
                }
            ],
            "name" : "skybox-loop",
            "samplers" : [
                {
                    "input" : 39,
                    "interpolation" : "LINEAR",
                    "output" : 40
                },
                {
                    "input" : 39,
                    "interpolation" : "LINEAR",
                    "output" : 41
                },
                {
                    "input" : 39,
                    "interpolation" : "LINEAR",
                    "output" : 42
                },
                {
                    "input" : 39,
                    "interpolation" : "LINEAR",
                    "output" : 43
                },
                {
                    "input" : 39,
                    "interpolation" : "LINEAR",
                    "output" : 44
                },
                {
                    "input" : 39,
                    "interpolation" : "LINEAR",
                    "output" : 45
                },
                {
                    "input" : 39,
                    "interpolation" : "LINEAR",
                    "output" : 46
                },
                {
                    "input" : 39,
                    "interpolation" : "LINEAR",
                    "output" : 47
                },
                {
                    "input" : 39,
                    "interpolation" : "LINEAR",
                    "output" : 48
                },
                {
                    "input" : 39,
                    "interpolation" : "LINEAR",
                    "output" : 49
                },
                {
                    "input" : 39,
                    "interpolation" : "LINEAR",
                    "output" : 50
                },
                {
                    "input" : 39,
                    "interpolation" : "LINEAR",
                    "output" : 51
                },
                {
                    "input" : 39,
                    "interpolation" : "LINEAR",
                    "output" : 52
                },
                {
                    "input" : 39,
                    "interpolation" : "LINEAR",
                    "output" : 53
                },
                {
                    "input" : 39,
                    "interpolation" : "LINEAR",
                    "output" : 54
                },
                {
                    "input" : 39,
                    "interpolation" : "LINEAR",
                    "output" : 55
                },
                {
                    "input" : 39,
                    "interpolation" : "LINEAR",
                    "output" : 56
                },
                {
                    "input" : 39,
                    "interpolation" : "LINEAR",
                    "output" : 57
                },
                {
                    "input" : 39,
                    "interpolation" : "LINEAR",
                    "output" : 58
                },
                {
                    "input" : 39,
                    "interpolation" : "LINEAR",
                    "output" : 59
                },
                {
                    "input" : 39,
                    "interpolation" : "LINEAR",
                    "output" : 60
                },
                {
                    "input" : 39,
                    "interpolation" : "LINEAR",
                    "output" : 61
                },
                {
                    "input" : 39,
                    "interpolation" : "LINEAR",
                    "output" : 62
                },
                {
                    "input" : 39,
                    "interpolation" : "LINEAR",
                    "output" : 63
                },
                {
                    "input" : 39,
                    "interpolation" : "LINEAR",
                    "output" : 64
                },
                {
                    "input" : 39,
                    "interpolation" : "LINEAR",
                    "output" : 65
                },
                {
                    "input" : 39,
                    "interpolation" : "LINEAR",
                    "output" : 66
                },
                {
                    "input" : 39,
                    "interpolation" : "LINEAR",
                    "output" : 67
                },
                {
                    "input" : 39,
                    "interpolation" : "LINEAR",
                    "output" : 68
                },
                {
                    "input" : 39,
                    "interpolation" : "LINEAR",
                    "output" : 69
                }
            ]
        }
    ],
    "materials" : [
        {
            "alphaMode" : "BLEND",
            "extensions" : {
                "KHR_materials_specular" : {
                    "specularColorFactor" : [
                        0,
                        0,
                        0
                    ]
                },
                "KHR_materials_ior" : {
                    "ior" : 1.4500000476837158
                }
            },
            "name" : "Sky Background Transparent",
            "pbrMetallicRoughness" : {
                "baseColorFactor" : [
                    0.800000011920929,
                    0.800000011920929,
                    0.800000011920929,
                    1
                ],
                "metallicFactor" : 0
            }
        },
        {
            "extensions" : {
                "KHR_materials_specular" : {
                    "specularColorFactor" : [
                        0,
                        0,
                        0
                    ]
                },
                "KHR_materials_ior" : {
                    "ior" : 1.4500000476837158
                }
            },
            "name" : "Sky Background",
            "pbrMetallicRoughness" : {
                "baseColorFactor" : [
                    0.800000011920929,
                    0.800000011920929,
                    0.800000011920929,
                    1
                ],
                "metallicFactor" : 0
            }
        },
        {
            "alphaMode" : "BLEND",
            "extensions" : {
                "KHR_materials_specular" : {
                    "specularColorFactor" : [
                        0,
                        0,
                        0
                    ]
                },
                "KHR_materials_ior" : {
                    "ior" : 1.4500000476837158
                }
            },
            "name" : "Ripples Transparent 1",
            "pbrMetallicRoughness" : {
                "baseColorFactor" : [
                    0.800000011920929,
                    0.800000011920929,
                    0.800000011920929,
                    1
                ],
                "metallicFactor" : 0
            }
        },
        {
            "alphaMode" : "BLEND",
            "extensions" : {
                "KHR_materials_specular" : {
                    "specularColorFactor" : [
                        0,
                        0,
                        0
                    ]
                },
                "KHR_materials_ior" : {
                    "ior" : 1.4500000476837158
                }
            },
            "name" : "Ripples Transparent 2",
            "pbrMetallicRoughness" : {
                "baseColorFactor" : [
                    0.800000011920929,
                    0.800000011920929,
                    0.800000011920929,
                    1
                ],
                "metallicFactor" : 0
            }
        },
        {
            "alphaMode" : "BLEND",
            "extensions" : {
                "KHR_materials_specular" : {
                    "specularColorFactor" : [
                        0,
                        0,
                        0
                    ]
                },
                "KHR_materials_ior" : {
                    "ior" : 1.4500000476837158
                }
            },
            "name" : "Ripples Transparent 3",
            "pbrMetallicRoughness" : {
                "baseColorFactor" : [
                    0.800000011920929,
                    0.800000011920929,
                    0.800000011920929,
                    1
                ],
                "metallicFactor" : 0
            }
        }
    ],
    "meshes" : [
        {
            "name" : "SkyboxBaseFadeMesh",
            "primitives" : [
                {
                    "attributes" : {
                        "POSITION" : 0,
                        "NORMAL" : 1,
                        "TEXCOORD_0" : 2,
                        "COLOR_0" : 3,
                        "JOINTS_0" : 4,
                        "WEIGHTS_0" : 5
                    },
                    "indices" : 6,
                    "material" : 0
                }
            ]
        },
        {
            "name" : "SkyboxBaseMesh",
            "primitives" : [
                {
                    "attributes" : {
                        "POSITION" : 8,
                        "NORMAL" : 9,
                        "TEXCOORD_0" : 10,
                        "COLOR_0" : 11,
                        "JOINTS_0" : 12,
                        "WEIGHTS_0" : 13
                    },
                    "indices" : 14,
                    "material" : 1
                }
            ]
        },
        {
            "name" : "SkyboxRipple1Mesh",
            "primitives" : [
                {
                    "attributes" : {
                        "POSITION" : 15,
                        "NORMAL" : 16,
                        "TEXCOORD_0" : 17,
                        "TEXCOORD_1" : 18,
                        "COLOR_0" : 19,
                        "JOINTS_0" : 20,
                        "WEIGHTS_0" : 21
                    },
                    "indices" : 22,
                    "material" : 2
                }
            ]
        },
        {
            "name" : "SkyboxRipple2Mesh",
            "primitives" : [
                {
                    "attributes" : {
                        "POSITION" : 23,
                        "NORMAL" : 24,
                        "TEXCOORD_0" : 25,
                        "TEXCOORD_1" : 26,
                        "COLOR_0" : 27,
                        "JOINTS_0" : 28,
                        "WEIGHTS_0" : 29
                    },
                    "indices" : 30,
                    "material" : 3
                }
            ]
        },
        {
            "name" : "SkyboxRipple3Mesh",
            "primitives" : [
                {
                    "attributes" : {
                        "POSITION" : 31,
                        "NORMAL" : 32,
                        "TEXCOORD_0" : 33,
                        "TEXCOORD_1" : 34,
                        "COLOR_0" : 35,
                        "JOINTS_0" : 36,
                        "WEIGHTS_0" : 37
                    },
                    "indices" : 38,
                    "material" : 4
                }
            ]
        }
    ],
    "skins" : [
        {
            "inverseBindMatrices" : 7,
            "joints" : [
                9,
                1,
                0,
                8,
                2,
                3,
                4,
                5,
                6,
                7
            ],
            "name" : "SkyboxRoot"
        }
    ],
    "accessors" : [
        {
            "bufferView" : 0,
            "componentType" : 5126,
            "count" : 98,
            "max" : [
                1717.9052734375,
                2429.48486328125,
                1717.905517578125
            ],
            "min" : [
                -1717.9052734375,
                -2429.48486328125,
                -1717.9053955078125
            ],
            "type" : "VEC3"
        },
        {
            "bufferView" : 1,
            "componentType" : 5126,
            "count" : 98,
            "type" : "VEC3"
        },
        {
            "bufferView" : 2,
            "componentType" : 5126,
            "count" : 98,
            "type" : "VEC2"
        },
        {
            "bufferView" : 3,
            "componentType" : 5123,
            "count" : 98,
            "normalized" : true,
            "type" : "VEC4"
        },
        {
            "bufferView" : 4,
            "componentType" : 5121,
            "count" : 98,
            "type" : "VEC4"
        },
        {
            "bufferView" : 5,
            "componentType" : 5126,
            "count" : 98,
            "type" : "VEC4"
        },
        {
            "bufferView" : 6,
            "componentType" : 5123,
            "count" : 480,
            "type" : "SCALAR"
        },
        {
            "bufferView" : 7,
            "componentType" : 5126,
            "count" : 10,
            "type" : "MAT4"
        },
        {
            "bufferView" : 8,
            "componentType" : 5126,
            "count" : 151,
            "max" : [
                2500.00048828125,
                2500.00048828125,
                2500.00048828125
            ],
            "min" : [
                -2500.00048828125,
                -2500.00048828125,
                -2500.00048828125
            ],
            "type" : "VEC3"
        },
        {
            "bufferView" : 9,
            "componentType" : 5126,
            "count" : 151,
            "type" : "VEC3"
        },
        {
            "bufferView" : 10,
            "componentType" : 5126,
            "count" : 151,
            "type" : "VEC2"
        },
        {
            "bufferView" : 11,
            "componentType" : 5123,
            "count" : 151,
            "normalized" : true,
            "type" : "VEC4"
        },
        {
            "bufferView" : 12,
            "componentType" : 5121,
            "count" : 151,
            "type" : "VEC4"
        },
        {
            "bufferView" : 13,
            "componentType" : 5126,
            "count" : 151,
            "type" : "VEC4"
        },
        {
            "bufferView" : 14,
            "componentType" : 5123,
            "count" : 672,
            "type" : "SCALAR"
        },
        {
            "bufferView" : 15,
            "componentType" : 5126,
            "count" : 234,
            "max" : [
                1892.729736328125,
                2259.171630859375,
                1892.72998046875
            ],
            "min" : [
                -1892.7294921875,
                -2259.171630859375,
                -1892.7296142578125
            ],
            "type" : "VEC3"
        },
        {
            "bufferView" : 16,
            "componentType" : 5126,
            "count" : 234,
            "type" : "VEC3"
        },
        {
            "bufferView" : 17,
            "componentType" : 5126,
            "count" : 234,
            "type" : "VEC2"
        },
        {
            "bufferView" : 18,
            "componentType" : 5126,
            "count" : 234,
            "type" : "VEC2"
        },
        {
            "bufferView" : 19,
            "componentType" : 5123,
            "count" : 234,
            "normalized" : true,
            "type" : "VEC4"
        },
        {
            "bufferView" : 20,
            "componentType" : 5121,
            "count" : 234,
            "type" : "VEC4"
        },
        {
            "bufferView" : 21,
            "componentType" : 5126,
            "count" : 234,
            "type" : "VEC4"
        },
        {
            "bufferView" : 22,
            "componentType" : 5123,
            "count" : 1056,
            "type" : "SCALAR"
        },
        {
            "bufferView" : 23,
            "componentType" : 5126,
            "count" : 234,
            "max" : [
                1892.7294921875,
                1892.729736328125,
                2259.171630859375
            ],
            "min" : [
                -1892.7294921875,
                -1892.72998046875,
                -2259.171630859375
            ],
            "type" : "VEC3"
        },
        {
            "bufferView" : 24,
            "componentType" : 5126,
            "count" : 234,
            "type" : "VEC3"
        },
        {
            "bufferView" : 25,
            "componentType" : 5126,
            "count" : 234,
            "type" : "VEC2"
        },
        {
            "bufferView" : 26,
            "componentType" : 5126,
            "count" : 234,
            "type" : "VEC2"
        },
        {
            "bufferView" : 27,
            "componentType" : 5123,
            "count" : 234,
            "normalized" : true,
            "type" : "VEC4"
        },
        {
            "bufferView" : 28,
            "componentType" : 5121,
            "count" : 234,
            "type" : "VEC4"
        },
        {
            "bufferView" : 29,
            "componentType" : 5126,
            "count" : 234,
            "type" : "VEC4"
        },
        {
            "bufferView" : 30,
            "componentType" : 5123,
            "count" : 1056,
            "type" : "SCALAR"
        },
        {
            "bufferView" : 31,
            "componentType" : 5126,
            "count" : 234,
            "max" : [
                2259.171630859375,
                1892.729736328125,
                1892.7294921875
            ],
            "min" : [
                -2259.171630859375,
                -1892.7293701171875,
                -1892.7294921875
            ],
            "type" : "VEC3"
        },
        {
            "bufferView" : 32,
            "componentType" : 5126,
            "count" : 234,
            "type" : "VEC3"
        },
        {
            "bufferView" : 33,
            "componentType" : 5126,
            "count" : 234,
            "type" : "VEC2"
        },
        {
            "bufferView" : 34,
            "componentType" : 5126,
            "count" : 234,
            "type" : "VEC2"
        },
        {
            "bufferView" : 35,
            "componentType" : 5123,
            "count" : 234,
            "normalized" : true,
            "type" : "VEC4"
        },
        {
            "bufferView" : 36,
            "componentType" : 5121,
            "count" : 234,
            "type" : "VEC4"
        },
        {
            "bufferView" : 37,
            "componentType" : 5126,
            "count" : 234,
            "type" : "VEC4"
        },
        {
            "bufferView" : 38,
            "componentType" : 5123,
            "count" : 1056,
            "type" : "SCALAR"
        },
        {
            "bufferView" : 39,
            "componentType" : 5126,
            "count" : 201,
            "max" : [
                8.333333333333334
            ],
            "min" : [
                0
            ],
            "type" : "SCALAR"
        },
        {
            "bufferView" : 40,
            "componentType" : 5126,
            "count" : 201,
            "type" : "VEC3"
        },
        {
            "bufferView" : 41,
            "componentType" : 5126,
            "count" : 201,
            "type" : "VEC4"
        },
        {
            "bufferView" : 42,
            "componentType" : 5126,
            "count" : 201,
            "type" : "VEC3"
        },
        {
            "bufferView" : 43,
            "componentType" : 5126,
            "count" : 201,
            "type" : "VEC3"
        },
        {
            "bufferView" : 44,
            "componentType" : 5126,
            "count" : 201,
            "type" : "VEC4"
        },
        {
            "bufferView" : 45,
            "componentType" : 5126,
            "count" : 201,
            "type" : "VEC3"
        },
        {
            "bufferView" : 46,
            "componentType" : 5126,
            "count" : 201,
            "type" : "VEC3"
        },
        {
            "bufferView" : 47,
            "componentType" : 5126,
            "count" : 201,
            "type" : "VEC4"
        },
        {
            "bufferView" : 48,
            "componentType" : 5126,
            "count" : 201,
            "type" : "VEC3"
        },
        {
            "bufferView" : 49,
            "componentType" : 5126,
            "count" : 201,
            "type" : "VEC3"
        },
        {
            "bufferView" : 50,
            "componentType" : 5126,
            "count" : 201,
            "type" : "VEC4"
        },
        {
            "bufferView" : 51,
            "componentType" : 5126,
            "count" : 201,
            "type" : "VEC3"
        },
        {
            "bufferView" : 52,
            "componentType" : 5126,
            "count" : 201,
            "type" : "VEC3"
        },
        {
            "bufferView" : 53,
            "componentType" : 5126,
            "count" : 201,
            "type" : "VEC4"
        },
        {
            "bufferView" : 54,
            "componentType" : 5126,
            "count" : 201,
            "type" : "VEC3"
        },
        {
            "bufferView" : 55,
            "componentType" : 5126,
            "count" : 201,
            "type" : "VEC3"
        },
        {
            "bufferView" : 56,
            "componentType" : 5126,
            "count" : 201,
            "type" : "VEC4"
        },
        {
            "bufferView" : 57,
            "componentType" : 5126,
            "count" : 201,
            "type" : "VEC3"
        },
        {
            "bufferView" : 58,
            "componentType" : 5126,
            "count" : 201,
            "type" : "VEC3"
        },
        {
            "bufferView" : 59,
            "componentType" : 5126,
            "count" : 201,
            "type" : "VEC4"
        },
        {
            "bufferView" : 60,
            "componentType" : 5126,
            "count" : 201,
            "type" : "VEC3"
        },
        {
            "bufferView" : 61,
            "componentType" : 5126,
            "count" : 201,
            "type" : "VEC3"
        },
        {
            "bufferView" : 62,
            "componentType" : 5126,
            "count" : 201,
            "type" : "VEC4"
        },
        {
            "bufferView" : 63,
            "componentType" : 5126,
            "count" : 201,
            "type" : "VEC3"
        },
        {
            "bufferView" : 64,
            "componentType" : 5126,
            "count" : 201,
            "type" : "VEC3"
        },
        {
            "bufferView" : 65,
            "componentType" : 5126,
            "count" : 201,
            "type" : "VEC4"
        },
        {
            "bufferView" : 66,
            "componentType" : 5126,
            "count" : 201,
            "type" : "VEC3"
        },
        {
            "bufferView" : 67,
            "componentType" : 5126,
            "count" : 201,
            "type" : "VEC3"
        },
        {
            "bufferView" : 68,
            "componentType" : 5126,
            "count" : 201,
            "type" : "VEC4"
        },
        {
            "bufferView" : 69,
            "componentType" : 5126,
            "count" : 201,
            "type" : "VEC3"
        }
    ],
    "bufferViews" : [
        {
            "buffer" : 0,
            "byteLength" : 1176,
            "byteOffset" : 0,
            "target" : 34962
        },
        {
            "buffer" : 0,
            "byteLength" : 1176,
            "byteOffset" : 1176,
            "target" : 34962
        },
        {
            "buffer" : 0,
            "byteLength" : 784,
            "byteOffset" : 2352,
            "target" : 34962
        },
        {
            "buffer" : 0,
            "byteLength" : 784,
            "byteOffset" : 3136,
            "target" : 34962
        },
        {
            "buffer" : 0,
            "byteLength" : 392,
            "byteOffset" : 3920,
            "target" : 34962
        },
        {
            "buffer" : 0,
            "byteLength" : 1568,
            "byteOffset" : 4312,
            "target" : 34962
        },
        {
            "buffer" : 0,
            "byteLength" : 960,
            "byteOffset" : 5880,
            "target" : 34963
        },
        {
            "buffer" : 0,
            "byteLength" : 640,
            "byteOffset" : 6840
        },
        {
            "buffer" : 0,
            "byteLength" : 1812,
            "byteOffset" : 7480,
            "target" : 34962
        },
        {
            "buffer" : 0,
            "byteLength" : 1812,
            "byteOffset" : 9292,
            "target" : 34962
        },
        {
            "buffer" : 0,
            "byteLength" : 1208,
            "byteOffset" : 11104,
            "target" : 34962
        },
        {
            "buffer" : 0,
            "byteLength" : 1208,
            "byteOffset" : 12312,
            "target" : 34962
        },
        {
            "buffer" : 0,
            "byteLength" : 604,
            "byteOffset" : 13520,
            "target" : 34962
        },
        {
            "buffer" : 0,
            "byteLength" : 2416,
            "byteOffset" : 14124,
            "target" : 34962
        },
        {
            "buffer" : 0,
            "byteLength" : 1344,
            "byteOffset" : 16540,
            "target" : 34963
        },
        {
            "buffer" : 0,
            "byteLength" : 2808,
            "byteOffset" : 17884,
            "target" : 34962
        },
        {
            "buffer" : 0,
            "byteLength" : 2808,
            "byteOffset" : 20692,
            "target" : 34962
        },
        {
            "buffer" : 0,
            "byteLength" : 1872,
            "byteOffset" : 23500,
            "target" : 34962
        },
        {
            "buffer" : 0,
            "byteLength" : 1872,
            "byteOffset" : 25372,
            "target" : 34962
        },
        {
            "buffer" : 0,
            "byteLength" : 1872,
            "byteOffset" : 27244,
            "target" : 34962
        },
        {
            "buffer" : 0,
            "byteLength" : 936,
            "byteOffset" : 29116,
            "target" : 34962
        },
        {
            "buffer" : 0,
            "byteLength" : 3744,
            "byteOffset" : 30052,
            "target" : 34962
        },
        {
            "buffer" : 0,
            "byteLength" : 2112,
            "byteOffset" : 33796,
            "target" : 34963
        },
        {
            "buffer" : 0,
            "byteLength" : 2808,
            "byteOffset" : 35908,
            "target" : 34962
        },
        {
            "buffer" : 0,
            "byteLength" : 2808,
            "byteOffset" : 38716,
            "target" : 34962
        },
        {
            "buffer" : 0,
            "byteLength" : 1872,
            "byteOffset" : 41524,
            "target" : 34962
        },
        {
            "buffer" : 0,
            "byteLength" : 1872,
            "byteOffset" : 43396,
            "target" : 34962
        },
        {
            "buffer" : 0,
            "byteLength" : 1872,
            "byteOffset" : 45268,
            "target" : 34962
        },
        {
            "buffer" : 0,
            "byteLength" : 936,
            "byteOffset" : 47140,
            "target" : 34962
        },
        {
            "buffer" : 0,
            "byteLength" : 3744,
            "byteOffset" : 48076,
            "target" : 34962
        },
        {
            "buffer" : 0,
            "byteLength" : 2112,
            "byteOffset" : 51820,
            "target" : 34963
        },
        {
            "buffer" : 0,
            "byteLength" : 2808,
            "byteOffset" : 53932,
            "target" : 34962
        },
        {
            "buffer" : 0,
            "byteLength" : 2808,
            "byteOffset" : 56740,
            "target" : 34962
        },
        {
            "buffer" : 0,
            "byteLength" : 1872,
            "byteOffset" : 59548,
            "target" : 34962
        },
        {
            "buffer" : 0,
            "byteLength" : 1872,
            "byteOffset" : 61420,
            "target" : 34962
        },
        {
            "buffer" : 0,
            "byteLength" : 1872,
            "byteOffset" : 63292,
            "target" : 34962
        },
        {
            "buffer" : 0,
            "byteLength" : 936,
            "byteOffset" : 65164,
            "target" : 34962
        },
        {
            "buffer" : 0,
            "byteLength" : 3744,
            "byteOffset" : 66100,
            "target" : 34962
        },
        {
            "buffer" : 0,
            "byteLength" : 2112,
            "byteOffset" : 69844,
            "target" : 34963
        },
        {
            "buffer" : 0,
            "byteLength" : 804,
            "byteOffset" : 71956
        },
        {
            "buffer" : 0,
            "byteLength" : 2412,
            "byteOffset" : 72760
        },
        {
            "buffer" : 0,
            "byteLength" : 3216,
            "byteOffset" : 75172
        },
        {
            "buffer" : 0,
            "byteLength" : 2412,
            "byteOffset" : 78388
        },
        {
            "buffer" : 0,
            "byteLength" : 2412,
            "byteOffset" : 80800
        },
        {
            "buffer" : 0,
            "byteLength" : 3216,
            "byteOffset" : 83212
        },
        {
            "buffer" : 0,
            "byteLength" : 2412,
            "byteOffset" : 86428
        },
        {
            "buffer" : 0,
            "byteLength" : 2412,
            "byteOffset" : 88840
        },
        {
            "buffer" : 0,
            "byteLength" : 3216,
            "byteOffset" : 91252
        },
        {
            "buffer" : 0,
            "byteLength" : 2412,
            "byteOffset" : 94468
        },
        {
            "buffer" : 0,
            "byteLength" : 2412,
            "byteOffset" : 96880
        },
        {
            "buffer" : 0,
            "byteLength" : 3216,
            "byteOffset" : 99292
        },
        {
            "buffer" : 0,
            "byteLength" : 2412,
            "byteOffset" : 102508
        },
        {
            "buffer" : 0,
            "byteLength" : 2412,
            "byteOffset" : 104920
        },
        {
            "buffer" : 0,
            "byteLength" : 3216,
            "byteOffset" : 107332
        },
        {
            "buffer" : 0,
            "byteLength" : 2412,
            "byteOffset" : 110548
        },
        {
            "buffer" : 0,
            "byteLength" : 2412,
            "byteOffset" : 112960
        },
        {
            "buffer" : 0,
            "byteLength" : 3216,
            "byteOffset" : 115372
        },
        {
            "buffer" : 0,
            "byteLength" : 2412,
            "byteOffset" : 118588
        },
        {
            "buffer" : 0,
            "byteLength" : 2412,
            "byteOffset" : 121000
        },
        {
            "buffer" : 0,
            "byteLength" : 3216,
            "byteOffset" : 123412
        },
        {
            "buffer" : 0,
            "byteLength" : 2412,
            "byteOffset" : 126628
        },
        {
            "buffer" : 0,
            "byteLength" : 2412,
            "byteOffset" : 129040
        },
        {
            "buffer" : 0,
            "byteLength" : 3216,
            "byteOffset" : 131452
        },
        {
            "buffer" : 0,
            "byteLength" : 2412,
            "byteOffset" : 134668
        },
        {
            "buffer" : 0,
            "byteLength" : 2412,
            "byteOffset" : 137080
        },
        {
            "buffer" : 0,
            "byteLength" : 3216,
            "byteOffset" : 139492
        },
        {
            "buffer" : 0,
            "byteLength" : 2412,
            "byteOffset" : 142708
        },
        {
            "buffer" : 0,
            "byteLength" : 2412,
            "byteOffset" : 145120
        },
        {
            "buffer" : 0,
            "byteLength" : 3216,
            "byteOffset" : 147532
        },
        {
            "buffer" : 0,
            "byteLength" : 2412,
            "byteOffset" : 150748
        }
    ],
    "buffers" : [
        {
            "byteLength" : 153160,
            "uri" : "data:application/octet-stream;base64,"
        }
    ]
}
