{
    "asset" : {
        "generator" : "Khronos glTF Blender I/O v3.3.36",
        "version" : "2.0"
    },
    "scene" : 0,
    "scenes" : [
        {
            "name" : "Scene",
            "nodes" : [
                0,
                1
            ]
        }
    ],
    "nodes" : [
        {
            "mesh" : 0,
            "name" : "Floor"
        },
        {
            "mesh" : 1,
            "name" : "Wall"
        }
    ],
    "meshes" : [
        {
            "name" : "Floor",
            "primitives" : [
                {
                    "attributes" : {
                        "POSITION" : 0,
                        "NORMAL" : 1
                    },
                    "indices" : 2
                }
            ]
        },
        {
            "name" : "Wall",
            "primitives" : [
                {
                    "attributes" : {
                        "POSITION" : 3,
                        "NORMAL" : 4
                    },
                    "indices" : 5
                }
            ]
        }
    ],
    "accessors" : [
        {
            "bufferView" : 0,
            "componentType" : 5126,
            "count" : 2264,
            "max" : [
                252.19876098632812,
                1.2113614082336426,
                215.23878479003906
            ],
            "min" : [
                -3,
                -10.006461143493652,
                -322.85858154296875
            ],
            "type" : "VEC3"
        },
        {
            "bufferView" : 1,
            "componentType" : 5126,
            "count" : 2264,
            "type" : "VEC3"
        },
        {
            "bufferView" : 2,
            "componentType" : 5123,
            "count" : 3396,
            "type" : "SCALAR"
        },
        {
            "bufferView" : 3,
            "componentType" : 5126,
            "count" : 2548,
            "max" : [
                252.19876098632812,
                20.736047744750977,
                215.23878479003906
            ],
            "min" : [
                -3,
                -68.62109375,
                -322.85858154296875
            ],
            "type" : "VEC3"
        },
        {
            "bufferView" : 4,
            "componentType" : 5126,
            "count" : 2548,
            "type" : "VEC3"
        },
        {
            "bufferView" : 5,
            "componentType" : 5123,
            "count" : 3822,
            "type" : "SCALAR"
        }
    ],
    "bufferViews" : [
        {
            "buffer" : 0,
            "byteLength" : 27168,
            "byteOffset" : 0,
            "target" : 34962
        },
        {
            "buffer" : 0,
            "byteLength" : 27168,
            "byteOffset" : 27168,
            "target" : 34962
        },
        {
            "buffer" : 0,
            "byteLength" : 6792,
            "byteOffset" : 54336,
            "target" : 34963
        },
        {
            "buffer" : 0,
            "byteLength" : 30576,
            "byteOffset" : 61128,
            "target" : 34962
        },
        {
            "buffer" : 0,
            "byteLength" : 30576,
            "byteOffset" : 91704,
            "target" : 34962
        },
        {
            "buffer" : 0,
            "byteLength" : 7644,
            "byteOffset" : 122280,
            "target" : 34963
        }
    ],
    "buffers" : [
        {
            "byteLength" : 129924,
            "uri" : "data:application/octet-stream;base64,"
        }
    ]
}
