{
    "asset" : {
        "generator" : "Khronos glTF Blender I/O v3.3.36",
        "version" : "2.0"
    },
    "scene" : 0,
    "scenes" : [
        {
            "name" : "Scene",
            "nodes" : [
                0,
                1
            ]
        }
    ],
    "nodes" : [
        {
            "mesh" : 0,
            "name" : "Wall"
        },
        {
            "mesh" : 1,
            "name" : "Floor"
        }
    ],
    "meshes" : [
        {
            "name" : "Wall",
            "primitives" : [
                {
                    "attributes" : {
                        "POSITION" : 0,
                        "NORMAL" : 1,
                        "TEXCOORD_0" : 2
                    },
                    "indices" : 3
                }
            ]
        },
        {
            "name" : "Floor",
            "primitives" : [
                {
                    "attributes" : {
                        "POSITION" : 4,
                        "NORMAL" : 5,
                        "TEXCOORD_0" : 6
                    },
                    "indices" : 7
                }
            ]
        }
    ],
    "accessors" : [
        {
            "bufferView" : 0,
            "componentType" : 5126,
            "count" : 5715,
            "max" : [
                1602.6207275390625,
                50.0028076171875,
                -273.945068359375
            ],
            "min" : [
                771.480224609375,
                -69.99855041503906,
                -792.82421875
            ],
            "type" : "VEC3"
        },
        {
            "bufferView" : 1,
            "componentType" : 5126,
            "count" : 5715,
            "type" : "VEC3"
        },
        {
            "bufferView" : 2,
            "componentType" : 5126,
            "count" : 5715,
            "type" : "VEC2"
        },
        {
            "bufferView" : 3,
            "componentType" : 5123,
            "count" : 10617,
            "type" : "SCALAR"
        },
        {
            "bufferView" : 4,
            "componentType" : 5126,
            "count" : 3906,
            "max" : [
                1618.2640380859375,
                26.136104583740234,
                -279.03814697265625
            ],
            "min" : [
                776.480224609375,
                -44.14896011352539,
                -787.82421875
            ],
            "type" : "VEC3"
        },
        {
            "bufferView" : 5,
            "componentType" : 5126,
            "count" : 3906,
            "type" : "VEC3"
        },
        {
            "bufferView" : 6,
            "componentType" : 5126,
            "count" : 3906,
            "type" : "VEC2"
        },
        {
            "bufferView" : 7,
            "componentType" : 5123,
            "count" : 6744,
            "type" : "SCALAR"
        }
    ],
    "bufferViews" : [
        {
            "buffer" : 0,
            "byteLength" : 68580,
            "byteOffset" : 0,
            "target" : 34962
        },
        {
            "buffer" : 0,
            "byteLength" : 68580,
            "byteOffset" : 68580,
            "target" : 34962
        },
        {
            "buffer" : 0,
            "byteLength" : 45720,
            "byteOffset" : 137160,
            "target" : 34962
        },
        {
            "buffer" : 0,
            "byteLength" : 21234,
            "byteOffset" : 182880,
            "target" : 34963
        },
        {
            "buffer" : 0,
            "byteLength" : 46872,
            "byteOffset" : 204116,
            "target" : 34962
        },
        {
            "buffer" : 0,
            "byteLength" : 46872,
            "byteOffset" : 250988,
            "target" : 34962
        },
        {
            "buffer" : 0,
            "byteLength" : 31248,
            "byteOffset" : 297860,
            "target" : 34962
        },
        {
            "buffer" : 0,
            "byteLength" : 13488,
            "byteOffset" : 329108,
            "target" : 34963
        }
    ],
    "buffers" : [
        {
            "byteLength" : 342596,
            "uri" : "data:application/octet-stream;base64,"
        }
    ]
}
