{
    "asset" : {
        "generator" : "Khronos glTF Blender I/O v3.3.36",
        "version" : "2.0"
    },
    "extensionsUsed" : [
        "KHR_materials_specular",
        "KHR_materials_ior"
    ],
    "scene" : 0,
    "scenes" : [
        {
            "name" : "Scene",
            "nodes" : [
                85
            ]
        }
    ],
    "nodes" : [
        {
            "name" : "l_hand_pt",
            "rotation" : [
                0.7071068286895752,
                0,
                0,
                0.7071068286895752
            ],
            "translation" : [
                0.17185834050178528,
                -0.19794383645057678,
                0.6133862733840942
            ]
        },
        {
            "name" : "r_hand_pt",
            "rotation" : [
                0.7071068286895752,
                0,
                0,
                0.7071068286895752
            ],
            "translation" : [
                -0.17185834050178528,
                -0.19794383645057678,
                0.6133862733840942
            ]
        },
        {
            "name" : "l_hand_ik",
            "rotation" : [
                0.004590349737554789,
                0.004590349271893501,
                -0.7070919275283813,
                0.7070918083190918
            ],
            "translation" : [
                0.30632784962654114,
                0.005206048488616943,
                0.6121042966842651
            ]
        },
        {
            "name" : "r_hand_ik",
            "rotation" : [
                0.004590349737554789,
                -0.004590349271893501,
                0.7070919275283813,
                0.7070918083190918
            ],
            "translation" : [
                -0.30632784962654114,
                0.005206048488616943,
                0.6121042966842651
            ]
        },
        {
            "name" : "l_foot_pt",
            "rotation" : [
                0.7071068286895752,
                0,
                0,
                0.7071068286895752
            ],
            "translation" : [
                0.039727579802274704,
                -0.19794383645057678,
                0.3259854316711426
            ]
        },
        {
            "name" : "r_foot_pt",
            "rotation" : [
                0.7071068286895752,
                0,
                0,
                0.7071068286895752
            ],
            "translation" : [
                -0.039727579802274704,
                -0.19794383645057678,
                0.3259854316711426
            ]
        },
        {
            "name" : "l_foot_ik",
            "translation" : [
                0.039727579802274704,
                1.4901161193847656e-08,
                0.15546903014183044
            ]
        },
        {
            "name" : "r_foot_ik",
            "translation" : [
                -0.039727579802274704,
                1.4901161193847656e-08,
                0.15546903014183044
            ]
        },
        {
            "name" : "l_toe",
            "rotation" : [
                -0.9969236254692078,
                -1.0790304010678065e-15,
                -1.3724405387659754e-14,
                0.07837942987680435
            ],
            "scale" : [
                1,
                1,
                0.9999986886978149
            ],
            "translation" : [
                -1.3808398868775384e-15,
                -0.13451223075389862,
                -0.10521601885557175
            ]
        },
        {
            "children" : [
                8
            ],
            "name" : "l_foot",
            "rotation" : [
                0.704521119594574,
                -8.46007921495584e-08,
                8.398546924581751e-08,
                0.7096830606460571
            ],
            "scale" : [
                1,
                0.9999999403953552,
                1
            ],
            "translation" : [
                2.1714702258535112e-10,
                0.17052094638347626,
                -1.325721754596998e-10
            ]
        },
        {
            "children" : [
                9
            ],
            "name" : "l_leg02",
            "rotation" : [
                0.008904150687158108,
                -5.986895874887654e-12,
                1.8980026439407993e-09,
                0.9999603629112244
            ],
            "translation" : [
                1.4546133186854604e-09,
                0.12963804602622986,
                1.587832088034702e-10
            ]
        },
        {
            "children" : [
                10
            ],
            "name" : "l_leg01",
            "rotation" : [
                0.9999862909317017,
                3.014174865256791e-07,
                -6.006932551372302e-08,
                0.005254202056676149
            ],
            "translation" : [
                0.039727579802274704,
                -0.0018152951961383224,
                0.001928305602632463
            ]
        },
        {
            "name" : "l_back",
            "rotation" : [
                -0.9062033295631409,
                -0.10560257732868195,
                -0.0923125147819519,
                0.3989010751247406
            ],
            "scale" : [
                1,
                0.9999998807907104,
                0.9999995827674866
            ],
            "translation" : [
                0.03770924732089043,
                0.014409215189516544,
                -0.046844176948070526
            ]
        },
        {
            "name" : "r_back",
            "rotation" : [
                -0.9062033891677856,
                0.10560213029384613,
                0.09231366217136383,
                0.3989007771015167
            ],
            "scale" : [
                0.9999999403953552,
                1,
                1.0000001192092896
            ],
            "translation" : [
                -0.03770945593714714,
                0.014409155584871769,
                -0.04684411734342575
            ]
        },
        {
            "name" : "l_thumb02",
            "rotation" : [
                0.005270882043987513,
                0.036567479372024536,
                -0.0021433073561638594,
                0.9993150234222412
            ],
            "scale" : [
                0.9999999403953552,
                0.9999999403953552,
                1
            ],
            "translation" : [
                -4.842877388000488e-08,
                0.04088333249092102,
                -4.842877388000488e-08
            ]
        },
        {
            "children" : [
                14
            ],
            "name" : "l_thumb01",
            "rotation" : [
                -0.5586701035499573,
                -0.7623763084411621,
                0.09461785852909088,
                0.31259816884994507
            ],
            "scale" : [
                1,
                1.0000004768371582,
                1
            ],
            "translation" : [
                0.06623594462871552,
                0.06069517135620117,
                -0.01825745962560177
            ]
        },
        {
            "name" : "l_pointer03",
            "rotation" : [
                0.0140170156955719,
                0.004092225804924965,
                0.003612666158005595,
                0.9998868703842163
            ],
            "scale" : [
                1,
                1.0000001192092896,
                1
            ],
            "translation" : [
                0,
                0.04181104898452759,
                4.7031790018081665e-08
            ]
        },
        {
            "children" : [
                16
            ],
            "name" : "l_pointer02",
            "rotation" : [
                0.0029486792627722025,
                0.0067822313867509365,
                -0.0002817847125697881,
                0.9999726414680481
            ],
            "scale" : [
                1.0000001192092896,
                1,
                1.0000001192092896
            ],
            "translation" : [
                -3.725290298461914e-09,
                0.04558609426021576,
                4.1676685214042664e-08
            ]
        },
        {
            "children" : [
                17
            ],
            "name" : "l_pointer01",
            "rotation" : [
                0.027416445314884186,
                0.02837037481367588,
                -0.051821425557136536,
                0.997876763343811
            ],
            "scale" : [
                1,
                1.0000001192092896,
                1
            ],
            "translation" : [
                0.04713113233447075,
                0.13156309723854065,
                0.014797750860452652
            ]
        },
        {
            "name" : "l_ring03",
            "rotation" : [
                0.024917079135775566,
                0.003883775556460023,
                0.0008985091117210686,
                0.9996815919876099
            ],
            "scale" : [
                1,
                1.0000001192092896,
                1
            ],
            "translation" : [
                5.122274160385132e-09,
                0.04246241971850395,
                3.14321368932724e-09
            ]
        },
        {
            "children" : [
                19
            ],
            "name" : "l_ring02",
            "rotation" : [
                0.01673332042992115,
                0.010775329545140266,
                0.00010514626774238423,
                0.9998019337654114
            ],
            "scale" : [
                1,
                1,
                0.9999998807907104
            ],
            "translation" : [
                -2.7939677238464355e-09,
                0.05157072842121124,
                8.306233212351799e-08
            ]
        },
        {
            "children" : [
                20
            ],
            "name" : "l_ring01",
            "rotation" : [
                0.0030857142992317677,
                0.0036212080158293247,
                0.054501134902238846,
                0.9985023736953735
            ],
            "scale" : [
                1,
                1.0000001192092896,
                1
            ],
            "translation" : [
                -0.025812771171331406,
                0.1314414143562317,
                0.020324483513832092
            ]
        },
        {
            "name" : "l_middle03",
            "rotation" : [
                0.009599783457815647,
                -0.002733546309173107,
                0.0005267617525532842,
                0.9999500513076782
            ],
            "scale" : [
                1,
                1,
                1.0000001192092896
            ],
            "translation" : [
                8.149072527885437e-10,
                0.043101850897073746,
                -4.7672074288129807e-08
            ]
        },
        {
            "children" : [
                22
            ],
            "name" : "l_middle02",
            "rotation" : [
                0.0012209572596475482,
                0.007946852594614029,
                6.061795647838153e-05,
                0.9999676942825317
            ],
            "scale" : [
                1,
                1.0000001192092896,
                1
            ],
            "translation" : [
                -2.9103830456733704e-10,
                0.05864919722080231,
                -1.0011717677116394e-08
            ]
        },
        {
            "children" : [
                23
            ],
            "name" : "l_middle01",
            "rotation" : [
                0.016695799306035042,
                0.014334249310195446,
                0.0004562436370179057,
                0.9997577667236328
            ],
            "scale" : [
                0.9999999403953552,
                1,
                1
            ],
            "translation" : [
                0.010513311251997948,
                0.13481560349464417,
                0.025111481547355652
            ]
        },
        {
            "name" : "l_pinky03",
            "rotation" : [
                0.008345994167029858,
                -0.010486925020813942,
                0.0008896173094399273,
                0.9999098777770996
            ],
            "translation" : [
                -5.587935447692871e-09,
                0.036718934774398804,
                -3.934837877750397e-08
            ]
        },
        {
            "children" : [
                25
            ],
            "name" : "l_pinky02",
            "rotation" : [
                -0.0015002308646216989,
                0.007391505874693394,
                -0.0003922008036170155,
                0.9999714493751526
            ],
            "scale" : [
                1,
                0.9999999403953552,
                0.9999999403953552
            ],
            "translation" : [
                5.587935447692871e-09,
                0.035354819148778915,
                2.6542693376541138e-08
            ]
        },
        {
            "children" : [
                26
            ],
            "name" : "l_pinky01",
            "rotation" : [
                0.01302548311650753,
                0.0073439874686300755,
                0.11775756627321243,
                0.9929298162460327
            ],
            "translation" : [
                -0.05809476226568222,
                0.12190022319555283,
                0.009205321781337261
            ]
        },
        {
            "children" : [
                15,
                18,
                21,
                24,
                27
            ],
            "name" : "l_hand",
            "rotation" : [
                0.002322261454537511,
                -0.7005064487457275,
                0.0021912718657404184,
                0.713638961315155
            ],
            "scale" : [
                0.9999998807907104,
                0.9999998807907104,
                0.9999999403953552
            ],
            "translation" : [
                1.069383870344609e-08,
                0.13447226583957672,
                -1.673470251262188e-10
            ]
        },
        {
            "children" : [
                28
            ],
            "name" : "l_arm02",
            "rotation" : [
                0.00761537766084075,
                0.7052201628684998,
                -0.011930389329791069,
                0.708847165107727
            ],
            "scale" : [
                0.9999999403953552,
                0.9999997019767761,
                0.9999998211860657
            ],
            "translation" : [
                1.4551915228366852e-10,
                0.11203890293836594,
                -1.9293793229735456e-09
            ]
        },
        {
            "children" : [
                29
            ],
            "name" : "l_arm01",
            "rotation" : [
                -0.5071004033088684,
                -0.4929875433444977,
                -0.492980420589447,
                0.5067372918128967
            ],
            "scale" : [
                1.0000001192092896,
                1.0000001192092896,
                1
            ],
            "translation" : [
                0.059862859547138214,
                0.05881385877728462,
                2.6268327246725676e-07
            ]
        },
        {
            "name" : "r_thumb02",
            "rotation" : [
                0.005270705092698336,
                -0.0365675650537014,
                0.002143327845260501,
                0.9993150234222412
            ],
            "scale" : [
                0.9999999403953552,
                0.9999998807907104,
                1
            ],
            "translation" : [
                3.5390257835388184e-08,
                0.04088335484266281,
                -2.2351741790771484e-08
            ]
        },
        {
            "children" : [
                31
            ],
            "name" : "r_thumb01",
            "rotation" : [
                -0.5586701035499573,
                0.7623763084411621,
                -0.09461798518896103,
                0.3125981390476227
            ],
            "scale" : [
                1,
                1.0000001192092896,
                1.0000001192092896
            ],
            "translation" : [
                -0.06623595207929611,
                0.060695141553878784,
                -0.018257519230246544
            ]
        },
        {
            "name" : "r_pointer03",
            "rotation" : [
                0.014017018489539623,
                -0.004092223942279816,
                -0.0036126773338764906,
                0.9998868703842163
            ],
            "translation" : [
                7.450580596923828e-09,
                0.04181097820401192,
                -2.3283064365386963e-09
            ]
        },
        {
            "children" : [
                33
            ],
            "name" : "r_pointer02",
            "rotation" : [
                0.0029486636631190777,
                -0.006782241631299257,
                0.00028174082399345934,
                0.9999726414680481
            ],
            "translation" : [
                0,
                0.04558607563376427,
                9.615905582904816e-08
            ]
        },
        {
            "children" : [
                34
            ],
            "name" : "r_pointer01",
            "rotation" : [
                0.027416454628109932,
                -0.028370382264256477,
                0.05182148143649101,
                0.997876763343811
            ],
            "scale" : [
                1,
                1.0000001192092896,
                1
            ],
            "translation" : [
                -0.04713113233447075,
                0.13156303763389587,
                0.014797690324485302
            ]
        },
        {
            "name" : "r_ring03",
            "rotation" : [
                0.024917084723711014,
                -0.0038837799802422523,
                -0.0008985127788037062,
                0.9996815919876099
            ],
            "scale" : [
                1,
                1.0000001192092896,
                1
            ],
            "translation" : [
                -8.381903171539307e-09,
                0.042462363839149475,
                -5.657784640789032e-08
            ]
        },
        {
            "children" : [
                36
            ],
            "name" : "r_ring02",
            "rotation" : [
                0.016733340919017792,
                -0.010775327682495117,
                -0.00010510755237191916,
                0.9998019337654114
            ],
            "scale" : [
                0.9999999403953552,
                1,
                0.9999998807907104
            ],
            "translation" : [
                1.862645149230957e-09,
                0.05157068371772766,
                -7.729977369308472e-08
            ]
        },
        {
            "children" : [
                37
            ],
            "name" : "r_ring01",
            "rotation" : [
                0.0030856961384415627,
                -0.0036212143022567034,
                -0.054501187056303024,
                0.9985023736953735
            ],
            "scale" : [
                1,
                1.0000001192092896,
                1
            ],
            "translation" : [
                0.025812771171331406,
                0.1314413845539093,
                0.020324423909187317
            ]
        },
        {
            "name" : "r_middle03",
            "rotation" : [
                0.009599786251783371,
                0.0027335449121892452,
                -0.0005267615197226405,
                0.9999500513076782
            ],
            "scale" : [
                1,
                1,
                1.0000001192092896
            ],
            "translation" : [
                -4.540197551250458e-09,
                0.043101850897073746,
                -4.001776687800884e-08
            ]
        },
        {
            "children" : [
                39
            ],
            "name" : "r_middle02",
            "rotation" : [
                0.0012209723936393857,
                -0.007946859113872051,
                -6.0610567743424326e-05,
                0.9999676942825317
            ],
            "translation" : [
                2.0954757928848267e-09,
                0.058649174869060516,
                6.781192496418953e-09
            ]
        },
        {
            "children" : [
                40
            ],
            "name" : "r_middle01",
            "rotation" : [
                0.016695784404873848,
                -0.014334253035485744,
                -0.00045625140774063766,
                0.9997577667236328
            ],
            "scale" : [
                0.9999999403953552,
                1,
                1
            ],
            "translation" : [
                -0.010513314977288246,
                0.1348155438899994,
                0.025111479684710503
            ]
        },
        {
            "name" : "r_pinky03",
            "rotation" : [
                0.00834599044173956,
                0.010486922226846218,
                -0.000889613525941968,
                0.9999098777770996
            ],
            "translation" : [
                -1.862645149230957e-09,
                0.03671894967556,
                1.979060471057892e-08
            ]
        },
        {
            "children" : [
                42
            ],
            "name" : "r_pinky02",
            "rotation" : [
                -0.001500241574831307,
                -0.007391507737338543,
                0.0003921264433301985,
                0.9999714493751526
            ],
            "scale" : [
                1,
                0.9999998211860657,
                0.9999999403953552
            ],
            "translation" : [
                -6.51925802230835e-09,
                0.035354770720005035,
                1.6298145055770874e-08
            ]
        },
        {
            "children" : [
                43
            ],
            "name" : "r_pinky01",
            "rotation" : [
                0.01302549708634615,
                -0.0073439981788396835,
                -0.11775752156972885,
                0.9929298162460327
            ],
            "scale" : [
                1,
                1.0000001192092896,
                1
            ],
            "translation" : [
                0.05809476599097252,
                0.12190022319555283,
                0.00920526310801506
            ]
        },
        {
            "children" : [
                32,
                35,
                38,
                41,
                44
            ],
            "name" : "r_hand",
            "rotation" : [
                0.002322260057553649,
                0.7005064487457275,
                -0.0021912718657404184,
                0.713638961315155
            ],
            "scale" : [
                0.9999998807907104,
                0.9999998807907104,
                0.9999999403953552
            ],
            "translation" : [
                -1.1588781489990652e-08,
                0.13447226583957672,
                -1.4551915228366852e-11
            ]
        },
        {
            "children" : [
                45
            ],
            "name" : "r_arm02",
            "rotation" : [
                0.007615379057824612,
                -0.7052201628684998,
                0.011930391192436218,
                0.708847165107727
            ],
            "scale" : [
                1,
                0.9999999403953552,
                0.9999999403953552
            ],
            "translation" : [
                2.1827872842550278e-10,
                0.11203888803720474,
                5.7394231589569245e-08
            ]
        },
        {
            "children" : [
                46
            ],
            "name" : "r_arm01",
            "rotation" : [
                -0.5071004629135132,
                0.49298760294914246,
                0.49298128485679626,
                0.5067365765571594
            ],
            "scale" : [
                0.9999999403953552,
                1,
                1
            ],
            "translation" : [
                -0.05986306071281433,
                0.05881376191973686,
                3.5758830563281663e-07
            ]
        },
        {
            "name" : "top_spline02",
            "rotation" : [
                -0.1030128076672554,
                1.2615493005796452e-07,
                2.976466703330516e-06,
                0.9946800470352173
            ],
            "scale" : [
                1,
                0.9999999403953552,
                0.9999999403953552
            ],
            "translation" : [
                -8.526512829121202e-14,
                0.28225648403167725,
                -2.98025923939349e-08
            ]
        },
        {
            "children" : [
                48
            ],
            "name" : "top_spline01",
            "rotation" : [
                -0.660542368888855,
                -1.2572558034662507e-06,
                -1.2572559171530884e-06,
                0.7507889270782471
            ],
            "scale" : [
                1,
                0.9999999403953552,
                1
            ],
            "translation" : [
                7.259062329012522e-08,
                0.3119981288909912,
                -0.01951194554567337
            ]
        },
        {
            "name" : "bottom_spline02",
            "rotation" : [
                -0.252485990524292,
                -3.90840523323277e-06,
                7.008282864262583e-06,
                0.9676005840301514
            ],
            "translation" : [
                -4.263256414560601e-13,
                0.22766482830047607,
                4.470863501637723e-08
            ]
        },
        {
            "children" : [
                50
            ],
            "name" : "bottom_spline01",
            "rotation" : [
                -0.8370850682258606,
                -2.4035359729168704e-06,
                -3.063553549509379e-06,
                0.5470729470252991
            ],
            "scale" : [
                1,
                1,
                1.0000001192092896
            ],
            "translation" : [
                2.659520248471381e-07,
                0.14783507585525513,
                -0.09146322309970856
            ]
        },
        {
            "name" : "l_top_spline02",
            "rotation" : [
                -0.3097795248031616,
                0.0539131723344326,
                -0.065327487885952,
                0.9470281600952148
            ],
            "translation" : [
                5.122274160385132e-09,
                0.17304661870002747,
                2.3748725652694702e-08
            ]
        },
        {
            "children" : [
                52
            ],
            "name" : "l_top_spline01",
            "rotation" : [
                -0.7241523265838623,
                -0.08526536077260971,
                -0.08526535332202911,
                0.6790163516998291
            ],
            "scale" : [
                0.9999999403953552,
                1,
                1
            ],
            "translation" : [
                0.10418763756752014,
                0.24129420518875122,
                -0.04711338132619858
            ]
        },
        {
            "name" : "l_bottom_spline02",
            "rotation" : [
                -0.26048141717910767,
                0.08393757790327072,
                -0.04128512367606163,
                0.9609367847442627
            ],
            "scale" : [
                0.9999999403953552,
                0.9999999403953552,
                0.9999998211860657
            ],
            "translation" : [
                1.1175870895385742e-08,
                0.1523512750864029,
                -1.30385160446167e-08
            ]
        },
        {
            "children" : [
                54
            ],
            "name" : "l_bottom_spline01",
            "rotation" : [
                -0.9791231155395508,
                -0.09031284600496292,
                -0.08594969660043716,
                0.1605440378189087
            ],
            "scale" : [
                0.9999996423721313,
                1,
                0.9999994039535522
            ],
            "translation" : [
                0.13201826810836792,
                0.10746991634368896,
                -0.07429192960262299
            ]
        },
        {
            "name" : "r_bottom_spline02",
            "rotation" : [
                -0.26048141717910767,
                -0.08393757790327072,
                0.04128512367606163,
                0.9609367847442627
            ],
            "scale" : [
                0.9999999403953552,
                0.9999999403953552,
                0.9999998211860657
            ],
            "translation" : [
                -1.1175870895385742e-08,
                0.1523512750864029,
                -1.30385160446167e-08
            ]
        },
        {
            "children" : [
                56
            ],
            "name" : "r_bottom_spline01",
            "rotation" : [
                -0.9791231155395508,
                0.09031284600496292,
                0.08594969660043716,
                0.1605440378189087
            ],
            "scale" : [
                0.9999996423721313,
                1,
                0.9999994039535522
            ],
            "translation" : [
                -0.13201850652694702,
                0.10746991634368896,
                -0.07429192960262299
            ]
        },
        {
            "name" : "r_top_spline02",
            "rotation" : [
                -0.3097795248031616,
                -0.0539131723344326,
                0.065327487885952,
                0.9470281600952148
            ],
            "translation" : [
                -5.122274160385132e-09,
                0.17304661870002747,
                2.3748725652694702e-08
            ]
        },
        {
            "children" : [
                58
            ],
            "name" : "r_top_spline01",
            "rotation" : [
                -0.7241523265838623,
                0.08526536077260971,
                0.08526535332202911,
                0.6790163516998291
            ],
            "scale" : [
                0.9999999403953552,
                1,
                1
            ],
            "translation" : [
                -0.10418787598609924,
                0.24129420518875122,
                -0.04711338132619858
            ]
        },
        {
            "children" : [
                49,
                51,
                53,
                55,
                57,
                59
            ],
            "name" : "head",
            "rotation" : [
                9.465083827819853e-09,
                3.963428980569006e-07,
                3.9634284121348173e-07,
                1
            ],
            "translation" : [
                -1.1537215545984539e-14,
                0.07325488328933716,
                1.1992427992497945e-15
            ]
        },
        {
            "children" : [
                12,
                13,
                30,
                47,
                60
            ],
            "name" : "chest",
            "rotation" : [
                -7.962550618856312e-09,
                -2.154822880129359e-07,
                -9.627294872416314e-08,
                1
            ],
            "scale" : [
                1,
                0.9999999403953552,
                1
            ],
            "translation" : [
                -1.1637812566932249e-14,
                0.09675762057304382,
                -1.7521045920544653e-16
            ]
        },
        {
            "name" : "tail",
            "rotation" : [
                -0.8508577942848206,
                -0.059994861483573914,
                0.09962929040193558,
                0.5123628973960876
            ],
            "scale" : [
                0.9999999403953552,
                1,
                1
            ],
            "translation" : [
                -1.2392979087394451e-08,
                0.002568364143371582,
                -0.029999984428286552
            ]
        },
        {
            "name" : "r_toe",
            "rotation" : [
                -0.9969236254692078,
                1.0964341752768038e-15,
                1.3945765589963403e-14,
                0.07837942987680435
            ],
            "scale" : [
                1,
                1,
                0.9999986886978149
            ],
            "translation" : [
                1.4085954624931674e-15,
                -0.13451223075389862,
                -0.10521601885557175
            ]
        },
        {
            "children" : [
                63
            ],
            "name" : "r_foot",
            "rotation" : [
                0.704521119594574,
                8.46007921495584e-08,
                -8.398546924581751e-08,
                0.7096830606460571
            ],
            "scale" : [
                1,
                0.9999999403953552,
                1
            ],
            "translation" : [
                -2.171469948297755e-10,
                0.17052094638347626,
                -1.3248069308247068e-10
            ]
        },
        {
            "children" : [
                64
            ],
            "name" : "r_leg02",
            "rotation" : [
                0.008904151618480682,
                -2.3452067111212616e-12,
                -2.3478601285376044e-09,
                0.9999603629112244
            ],
            "translation" : [
                -1.7478384295444016e-09,
                0.12963806092739105,
                1.5853096613227535e-10
            ]
        },
        {
            "children" : [
                65
            ],
            "name" : "r_leg01",
            "rotation" : [
                0.9999862909317017,
                3.0016477126082464e-07,
                -2.9848757776562707e-07,
                0.005254202987998724
            ],
            "translation" : [
                -0.039727579802274704,
                -0.0018153429264202714,
                0.0019283342408016324
            ]
        },
        {
            "children" : [
                11,
                61,
                62,
                66
            ],
            "name" : "stomach",
            "rotation" : [
                0.7071068286895752,
                8.429370268459024e-08,
                -3.400692492050439e-07,
                0.7071068286895752
            ],
            "translation" : [
                -2.2737372965334068e-14,
                0.0020561665296554565,
                0.4574316442012787
            ]
        },
        {
            "children" : [
                0,
                1,
                2,
                3,
                4,
                5,
                6,
                7,
                67
            ],
            "name" : "root",
            "rotation" : [
                -0.7071068286895752,
                0,
                0,
                0.7071068286895752
            ],
            "translation" : [
                0,
                0,
                0.0020561441779136658
            ]
        },
        {
            "name" : "l_hand_ik_switch",
            "translation" : [
                0.699999988079071,
                0.008792877197265625,
                0.5
            ]
        },
        {
            "name" : "r_hand_ik_switch",
            "translation" : [
                0.6000000238418579,
                0.008792877197265625,
                0.5
            ]
        },
        {
            "name" : "l_foot_ik_switch",
            "translation" : [
                0.9000000357627869,
                0.008792877197265625,
                0.5
            ]
        },
        {
            "name" : "r_foot_ik_switch",
            "translation" : [
                0.800000011920929,
                0.008792877197265625,
                0.5
            ]
        },
        {
            "name" : "wind01",
            "rotation" : [
                -0.7071068286895752,
                0,
                0,
                0.7071068286895752
            ],
            "translation" : [
                0,
                0.7310692071914673,
                -0.5563141107559204
            ]
        },
        {
            "name" : "wind02",
            "rotation" : [
                -0.7071068286895752,
                0,
                0,
                0.7071068286895752
            ],
            "translation" : [
                0,
                0.7310692071914673,
                -0.6563141345977783
            ]
        },
        {
            "name" : "l_arm_length_switch",
            "translation" : [
                1.2549999952316284,
                0.008792877197265625,
                0.550000011920929
            ]
        },
        {
            "name" : "r_arm_length_switch",
            "translation" : [
                1.1549999713897705,
                0.008792877197265625,
                0.550000011920929
            ]
        },
        {
            "name" : "l_leg_length_switch",
            "translation" : [
                1.7450000047683716,
                0.008792877197265625,
                0.550000011920929
            ]
        },
        {
            "name" : "r_leg_length_switch",
            "translation" : [
                1.6449998617172241,
                0.008792877197265625,
                0.550000011920929
            ]
        },
        {
            "name" : "l_hand_length_switch",
            "translation" : [
                1.5149999856948853,
                0.008792877197265625,
                0.550000011920929
            ]
        },
        {
            "name" : "r_hand_length_switch",
            "translation" : [
                1.4149998426437378,
                0.008792877197265625,
                0.550000011920929
            ]
        },
        {
            "name" : "l_foot_length_switch",
            "translation" : [
                1.9550000429153442,
                0.008792877197265625,
                0.550000011920929
            ]
        },
        {
            "name" : "r_foot_length_switch",
            "translation" : [
                1.8549998998641968,
                0.008792877197265625,
                0.550000011920929
            ]
        },
        {
            "mesh" : 0,
            "name" : "DarkspineMesh",
            "skin" : 0
        },
        {
            "mesh" : 1,
            "name" : "DarkspineRingsMesh",
            "skin" : 0
        },
        {
            "children" : [
                83,
                84,
                68,
                69,
                70,
                71,
                72,
                73,
                74,
                75,
                76,
                77,
                78,
                79,
                80,
                81,
                82
            ],
            "name" : "DSRoot"
        }
    ],
    "materials" : [
        {
            "name" : "Darkspine",
            "pbrMetallicRoughness" : {
                "baseColorFactor" : [
                    0.800000011920929,
                    0.800000011920929,
                    0.800000011920929,
                    1
                ],
                "metallicFactor" : 0,
                "roughnessFactor" : 0.949999988079071
            }
        },
        {
            "doubleSided" : true,
            "extensions" : {
                "KHR_materials_specular" : {
                    "specularColorFactor" : [
                        1.903973950789172,
                        1.903973950789172,
                        1.903973950789172
                    ]
                },
                "KHR_materials_ior" : {
                    "ior" : 1.4500000476837158
                }
            },
            "name" : "Darkspine Rings",
            "pbrMetallicRoughness" : {
                "baseColorFactor" : [
                    0.800000011920929,
                    0.800000011920929,
                    0.800000011920929,
                    1
                ],
                "roughnessFactor" : 0.26348549127578735
            }
        }
    ],
    "meshes" : [
        {
            "name" : "DarkspineMesh",
            "primitives" : [
                {
                    "attributes" : {
                        "POSITION" : 0,
                        "NORMAL" : 1,
                        "TEXCOORD_0" : 2,
                        "COLOR_0" : 3,
                        "JOINTS_0" : 4,
                        "WEIGHTS_0" : 5
                    },
                    "indices" : 6,
                    "material" : 0
                }
            ]
        },
        {
            "name" : "DarkspineRingsMesh",
            "primitives" : [
                {
                    "attributes" : {
                        "POSITION" : 8,
                        "NORMAL" : 9,
                        "TEXCOORD_0" : 10,
                        "COLOR_0" : 11,
                        "JOINTS_0" : 12,
                        "WEIGHTS_0" : 13
                    },
                    "indices" : 14,
                    "material" : 1
                }
            ]
        }
    ],
    "skins" : [
        {
            "inverseBindMatrices" : 7,
            "joints" : [
                68,
                0,
                1,
                2,
                3,
                4,
                5,
                6,
                7,
                67,
                11,
                10,
                9,
                8,
                61,
                12,
                13,
                30,
                29,
                28,
                15,
                14,
                18,
                17,
                16,
                21,
                20,
                19,
                24,
                23,
                22,
                27,
                26,
                25,
                47,
                46,
                45,
                32,
                31,
                35,
                34,
                33,
                38,
                37,
                36,
                41,
                40,
                39,
                44,
                43,
                42,
                60,
                49,
                48,
                51,
                50,
                53,
                52,
                55,
                54,
                57,
                56,
                59,
                58,
                62,
                66,
                65,
                64,
                63,
                69,
                70,
                71,
                72,
                73,
                74,
                75,
                76,
                77,
                78,
                79,
                80,
                81,
                82
            ],
            "name" : "DSRoot"
        }
    ],
    "accessors" : [
        {
            "bufferView" : 0,
            "componentType" : 5126,
            "count" : 2507,
            "max" : [
                0.5902165174484253,
                1.044857382774353,
                0.28510046005249023
            ],
            "min" : [
                -0.5902165174484253,
                0.0003376507374923676,
                -0.592539370059967
            ],
            "type" : "VEC3"
        },
        {
            "bufferView" : 1,
            "componentType" : 5126,
            "count" : 2507,
            "type" : "VEC3"
        },
        {
            "bufferView" : 2,
            "componentType" : 5126,
            "count" : 2507,
            "type" : "VEC2"
        },
        {
            "bufferView" : 3,
            "componentType" : 5123,
            "count" : 2507,
            "normalized" : true,
            "type" : "VEC4"
        },
        {
            "bufferView" : 4,
            "componentType" : 5121,
            "count" : 2507,
            "type" : "VEC4"
        },
        {
            "bufferView" : 5,
            "componentType" : 5126,
            "count" : 2507,
            "type" : "VEC4"
        },
        {
            "bufferView" : 6,
            "componentType" : 5123,
            "count" : 12102,
            "type" : "SCALAR"
        },
        {
            "bufferView" : 7,
            "componentType" : 5126,
            "count" : 83,
            "type" : "MAT4"
        },
        {
            "bufferView" : 8,
            "componentType" : 5126,
            "count" : 308,
            "max" : [
                0.315070778131485,
                0.680927574634552,
                0.0776849240064621
            ],
            "min" : [
                -0.315070778131485,
                0.14585661888122559,
                -0.07010102272033691
            ],
            "type" : "VEC3"
        },
        {
            "bufferView" : 9,
            "componentType" : 5126,
            "count" : 308,
            "type" : "VEC3"
        },
        {
            "bufferView" : 10,
            "componentType" : 5126,
            "count" : 308,
            "type" : "VEC2"
        },
        {
            "bufferView" : 11,
            "componentType" : 5123,
            "count" : 308,
            "normalized" : true,
            "type" : "VEC4"
        },
        {
            "bufferView" : 12,
            "componentType" : 5121,
            "count" : 308,
            "type" : "VEC4"
        },
        {
            "bufferView" : 13,
            "componentType" : 5126,
            "count" : 308,
            "type" : "VEC4"
        },
        {
            "bufferView" : 14,
            "componentType" : 5123,
            "count" : 1440,
            "type" : "SCALAR"
        }
    ],
    "bufferViews" : [
        {
            "buffer" : 0,
            "byteLength" : 30084,
            "byteOffset" : 0,
            "target" : 34962
        },
        {
            "buffer" : 0,
            "byteLength" : 30084,
            "byteOffset" : 30084,
            "target" : 34962
        },
        {
            "buffer" : 0,
            "byteLength" : 20056,
            "byteOffset" : 60168,
            "target" : 34962
        },
        {
            "buffer" : 0,
            "byteLength" : 20056,
            "byteOffset" : 80224,
            "target" : 34962
        },
        {
            "buffer" : 0,
            "byteLength" : 10028,
            "byteOffset" : 100280,
            "target" : 34962
        },
        {
            "buffer" : 0,
            "byteLength" : 40112,
            "byteOffset" : 110308,
            "target" : 34962
        },
        {
            "buffer" : 0,
            "byteLength" : 24204,
            "byteOffset" : 150420,
            "target" : 34963
        },
        {
            "buffer" : 0,
            "byteLength" : 5312,
            "byteOffset" : 174624
        },
        {
            "buffer" : 0,
            "byteLength" : 3696,
            "byteOffset" : 179936,
            "target" : 34962
        },
        {
            "buffer" : 0,
            "byteLength" : 3696,
            "byteOffset" : 183632,
            "target" : 34962
        },
        {
            "buffer" : 0,
            "byteLength" : 2464,
            "byteOffset" : 187328,
            "target" : 34962
        },
        {
            "buffer" : 0,
            "byteLength" : 2464,
            "byteOffset" : 189792,
            "target" : 34962
        },
        {
            "buffer" : 0,
            "byteLength" : 1232,
            "byteOffset" : 192256,
            "target" : 34962
        },
        {
            "buffer" : 0,
            "byteLength" : 4928,
            "byteOffset" : 193488,
            "target" : 34962
        },
        {
            "buffer" : 0,
            "byteLength" : 2880,
            "byteOffset" : 198416,
            "target" : 34963
        }
    ],
    "buffers" : [
        {
            "byteLength" : 201296,
            "uri" : "data:application/octet-stream;base64,"
        }
    ]
}
