{
    "asset" : {
        "generator" : "Khronos glTF Blender I/O v3.3.36",
        "version" : "2.0"
    },
    "extensionsUsed" : [
        "KHR_materials_specular",
        "KHR_materials_ior"
    ],
    "scene" : 0,
    "scenes" : [
        {
            "name" : "Scene",
            "nodes" : [
                0,
                1,
                2,
                3,
                4,
                5,
                6,
                7,
                8,
                9,
                10,
                11,
                12,
                13,
                14,
                15
            ]
        }
    ],
    "nodes" : [
        {
            "mesh" : 0,
            "name" : "stg071_k23_Mesh_0000"
        },
        {
            "mesh" : 1,
            "name" : "stg071_k23_Mesh_0001"
        },
        {
            "mesh" : 2,
            "name" : "stg071_k23_Mesh_0005"
        },
        {
            "mesh" : 3,
            "name" : "stg071_k23_Mesh_0008"
        },
        {
            "mesh" : 4,
            "name" : "stg071_k23_Mesh_0011"
        },
        {
            "mesh" : 5,
            "name" : "stg071_k23_Mesh_0013"
        },
        {
            "mesh" : 6,
            "name" : "stg071_k23_Mesh_0016"
        },
        {
            "mesh" : 7,
            "name" : "stg071_k23_Mesh_0018"
        },
        {
            "mesh" : 8,
            "name" : "stg071_k23_Mesh_0019"
        },
        {
            "mesh" : 9,
            "name" : "stg071_k23_Mesh_0020"
        },
        {
            "mesh" : 10,
            "name" : "stg071_k23_Mesh_0024"
        },
        {
            "mesh" : 11,
            "name" : "stg071_k23_Mesh_0026"
        },
        {
            "mesh" : 12,
            "name" : "stg071_k23_Mesh_0030"
        },
        {
            "mesh" : 13,
            "name" : "stg071_k23_Mesh_0032"
        },
        {
            "mesh" : 14,
            "name" : "stg071_k23_Mesh_0035"
        },
        {
            "mesh" : 15,
            "name" : "stg071_o23_Mesh_0000"
        }
    ],
    "materials" : [
        {
            "extensions" : {
                "KHR_materials_specular" : {
                    "specularColorFactor" : [
                        0,
                        0,
                        0
                    ]
                },
                "KHR_materials_ior" : {
                    "ior" : 1.4500000476837158
                }
            },
            "name" : "Space Panel",
            "pbrMetallicRoughness" : {
                "baseColorFactor" : [
                    0.800000011920929,
                    0.800000011920929,
                    0.800000011920929,
                    1
                ],
                "metallicFactor" : 0
            }
        },
        {
            "extensions" : {
                "KHR_materials_specular" : {
                    "specularColorFactor" : [
                        0,
                        0,
                        0
                    ]
                },
                "KHR_materials_ior" : {
                    "ior" : 1.4500000476837158
                }
            },
            "name" : "Space Eight Square",
            "pbrMetallicRoughness" : {
                "baseColorFactor" : [
                    0.800000011920929,
                    0.800000011920929,
                    0.800000011920929,
                    1
                ],
                "metallicFactor" : 0
            }
        },
        {
            "extensions" : {
                "KHR_materials_specular" : {
                    "specularColorFactor" : [
                        0,
                        0,
                        0
                    ]
                },
                "KHR_materials_ior" : {
                    "ior" : 1.4500000476837158
                }
            },
            "name" : "Space Pillar",
            "pbrMetallicRoughness" : {
                "baseColorFactor" : [
                    0.800000011920929,
                    0.800000011920929,
                    0.800000011920929,
                    1
                ],
                "metallicFactor" : 0
            }
        },
        {
            "extensions" : {
                "KHR_materials_specular" : {
                    "specularColorFactor" : [
                        0,
                        0,
                        0
                    ]
                },
                "KHR_materials_ior" : {
                    "ior" : 1.4500000476837158
                }
            },
            "name" : "Space Specular",
            "pbrMetallicRoughness" : {
                "baseColorFactor" : [
                    0.800000011920929,
                    0.800000011920929,
                    0.800000011920929,
                    1
                ],
                "metallicFactor" : 0
            }
        },
        {
            "extensions" : {
                "KHR_materials_specular" : {
                    "specularColorFactor" : [
                        0,
                        0,
                        0
                    ]
                },
                "KHR_materials_ior" : {
                    "ior" : 1.4500000476837158
                }
            },
            "name" : "Space Gate Trim",
            "pbrMetallicRoughness" : {
                "baseColorFactor" : [
                    0.800000011920929,
                    0.800000011920929,
                    0.800000011920929,
                    1
                ],
                "metallicFactor" : 0
            }
        },
        {
            "extensions" : {
                "KHR_materials_specular" : {
                    "specularColorFactor" : [
                        0,
                        0,
                        0
                    ]
                },
                "KHR_materials_ior" : {
                    "ior" : 1.4500000476837158
                }
            },
            "name" : "Space Pillar Trim",
            "pbrMetallicRoughness" : {
                "baseColorFactor" : [
                    0.800000011920929,
                    0.800000011920929,
                    0.800000011920929,
                    1
                ],
                "metallicFactor" : 0
            }
        },
        {
            "extensions" : {
                "KHR_materials_specular" : {
                    "specularColorFactor" : [
                        0,
                        0,
                        0
                    ]
                },
                "KHR_materials_ior" : {
                    "ior" : 1.4500000476837158
                }
            },
            "name" : "Space Gate Pattern",
            "pbrMetallicRoughness" : {
                "baseColorFactor" : [
                    0.800000011920929,
                    0.800000011920929,
                    0.800000011920929,
                    1
                ],
                "metallicFactor" : 0
            }
        },
        {
            "extensions" : {
                "KHR_materials_specular" : {
                    "specularColorFactor" : [
                        0,
                        0,
                        0
                    ]
                },
                "KHR_materials_ior" : {
                    "ior" : 1.4500000476837158
                }
            },
            "name" : "Space Star Clover Clear",
            "pbrMetallicRoughness" : {
                "baseColorFactor" : [
                    0.800000011920929,
                    0.800000011920929,
                    0.800000011920929,
                    1
                ],
                "metallicFactor" : 0
            }
        },
        {
            "extensions" : {
                "KHR_materials_specular" : {
                    "specularColorFactor" : [
                        0,
                        0,
                        0
                    ]
                },
                "KHR_materials_ior" : {
                    "ior" : 1.4500000476837158
                }
            },
            "name" : "Space Pillar Tip",
            "pbrMetallicRoughness" : {
                "baseColorFactor" : [
                    0.800000011920929,
                    0.800000011920929,
                    0.800000011920929,
                    1
                ],
                "metallicFactor" : 0
            }
        },
        {
            "extensions" : {
                "KHR_materials_specular" : {
                    "specularColorFactor" : [
                        0,
                        0,
                        0
                    ]
                },
                "KHR_materials_ior" : {
                    "ior" : 1.4500000476837158
                }
            },
            "name" : "Space Clear Trim",
            "pbrMetallicRoughness" : {
                "baseColorFactor" : [
                    0.800000011920929,
                    0.800000011920929,
                    0.800000011920929,
                    1
                ],
                "metallicFactor" : 0
            }
        },
        {
            "extensions" : {
                "KHR_materials_specular" : {
                    "specularColorFactor" : [
                        0,
                        0,
                        0
                    ]
                },
                "KHR_materials_ior" : {
                    "ior" : 1.4500000476837158
                }
            },
            "name" : "Space Window",
            "pbrMetallicRoughness" : {
                "baseColorFactor" : [
                    0.800000011920929,
                    0.800000011920929,
                    0.800000011920929,
                    1
                ],
                "metallicFactor" : 0
            }
        },
        {
            "extensions" : {
                "KHR_materials_specular" : {
                    "specularColorFactor" : [
                        0,
                        0,
                        0
                    ]
                },
                "KHR_materials_ior" : {
                    "ior" : 1.4500000476837158
                }
            },
            "name" : "Space Gate",
            "pbrMetallicRoughness" : {
                "baseColorFactor" : [
                    0.800000011920929,
                    0.800000011920929,
                    0.800000011920929,
                    1
                ],
                "metallicFactor" : 0
            }
        },
        {
            "extensions" : {
                "KHR_materials_specular" : {
                    "specularColorFactor" : [
                        0,
                        0,
                        0
                    ]
                },
                "KHR_materials_ior" : {
                    "ior" : 1.4500000476837158
                }
            },
            "name" : "Space Brick",
            "pbrMetallicRoughness" : {
                "baseColorFactor" : [
                    0.800000011920929,
                    0.800000011920929,
                    0.800000011920929,
                    1
                ],
                "metallicFactor" : 0
            }
        },
        {
            "extensions" : {
                "KHR_materials_specular" : {
                    "specularColorFactor" : [
                        0,
                        0,
                        0
                    ]
                },
                "KHR_materials_ior" : {
                    "ior" : 1.4500000476837158
                }
            },
            "name" : "Space Pillar Dish",
            "pbrMetallicRoughness" : {
                "baseColorFactor" : [
                    0.800000011920929,
                    0.800000011920929,
                    0.800000011920929,
                    1
                ],
                "metallicFactor" : 0
            }
        },
        {
            "extensions" : {
                "KHR_materials_specular" : {
                    "specularColorFactor" : [
                        0,
                        0,
                        0
                    ]
                },
                "KHR_materials_ior" : {
                    "ior" : 1.4500000476837158
                }
            },
            "name" : "Space Star Clover",
            "pbrMetallicRoughness" : {
                "baseColorFactor" : [
                    0.800000011920929,
                    0.800000011920929,
                    0.800000011920929,
                    1
                ],
                "metallicFactor" : 0
            }
        },
        {
            "extensions" : {
                "KHR_materials_specular" : {
                    "specularColorFactor" : [
                        0,
                        0,
                        0
                    ]
                },
                "KHR_materials_ior" : {
                    "ior" : 1.4500000476837158
                }
            },
            "name" : "Space Gold Trim",
            "pbrMetallicRoughness" : {
                "baseColorFactor" : [
                    0.800000011920929,
                    0.800000011920929,
                    0.800000011920929,
                    1
                ],
                "metallicFactor" : 0
            }
        }
    ],
    "meshes" : [
        {
            "name" : "stg071_k23_Mesh_0000",
            "primitives" : [
                {
                    "attributes" : {
                        "POSITION" : 0,
                        "NORMAL" : 1,
                        "TEXCOORD_0" : 2,
                        "COLOR_0" : 3
                    },
                    "indices" : 4,
                    "material" : 0
                }
            ]
        },
        {
            "name" : "stg071_k23_Mesh_0001",
            "primitives" : [
                {
                    "attributes" : {
                        "POSITION" : 5,
                        "NORMAL" : 6,
                        "TEXCOORD_0" : 7,
                        "COLOR_0" : 8
                    },
                    "indices" : 9,
                    "material" : 1
                }
            ]
        },
        {
            "name" : "stg071_k23_Mesh_0005",
            "primitives" : [
                {
                    "attributes" : {
                        "POSITION" : 10,
                        "NORMAL" : 11,
                        "TEXCOORD_0" : 12,
                        "COLOR_0" : 13
                    },
                    "indices" : 14,
                    "material" : 2
                }
            ]
        },
        {
            "name" : "stg071_k23_Mesh_0008",
            "primitives" : [
                {
                    "attributes" : {
                        "POSITION" : 15,
                        "NORMAL" : 16,
                        "COLOR_0" : 17
                    },
                    "indices" : 18,
                    "material" : 3
                }
            ]
        },
        {
            "name" : "stg071_k23_Mesh_0011",
            "primitives" : [
                {
                    "attributes" : {
                        "POSITION" : 19,
                        "NORMAL" : 20,
                        "TEXCOORD_0" : 21,
                        "COLOR_0" : 22
                    },
                    "indices" : 23,
                    "material" : 4
                }
            ]
        },
        {
            "name" : "stg071_k23_Mesh_0013",
            "primitives" : [
                {
                    "attributes" : {
                        "POSITION" : 24,
                        "NORMAL" : 25,
                        "TEXCOORD_0" : 26,
                        "COLOR_0" : 27
                    },
                    "indices" : 28,
                    "material" : 5
                }
            ]
        },
        {
            "name" : "stg071_k23_Mesh_0016",
            "primitives" : [
                {
                    "attributes" : {
                        "POSITION" : 29,
                        "NORMAL" : 30,
                        "TEXCOORD_0" : 31,
                        "COLOR_0" : 32
                    },
                    "indices" : 33,
                    "material" : 6
                }
            ]
        },
        {
            "name" : "stg071_k23_Mesh_0018",
            "primitives" : [
                {
                    "attributes" : {
                        "POSITION" : 34,
                        "NORMAL" : 35,
                        "TEXCOORD_0" : 36,
                        "COLOR_0" : 37
                    },
                    "indices" : 38,
                    "material" : 7
                }
            ]
        },
        {
            "name" : "stg071_k23_Mesh_0019",
            "primitives" : [
                {
                    "attributes" : {
                        "POSITION" : 39,
                        "NORMAL" : 40,
                        "TEXCOORD_0" : 41,
                        "COLOR_0" : 42
                    },
                    "indices" : 43,
                    "material" : 8
                }
            ]
        },
        {
            "name" : "stg071_k23_Mesh_0020",
            "primitives" : [
                {
                    "attributes" : {
                        "POSITION" : 44,
                        "NORMAL" : 45,
                        "TEXCOORD_0" : 46,
                        "COLOR_0" : 47
                    },
                    "indices" : 48,
                    "material" : 9
                }
            ]
        },
        {
            "name" : "stg071_k23_Mesh_0024",
            "primitives" : [
                {
                    "attributes" : {
                        "POSITION" : 49,
                        "NORMAL" : 50,
                        "TEXCOORD_0" : 51,
                        "COLOR_0" : 52
                    },
                    "indices" : 53,
                    "material" : 10
                }
            ]
        },
        {
            "name" : "stg071_k23_Mesh_0026",
            "primitives" : [
                {
                    "attributes" : {
                        "POSITION" : 54,
                        "NORMAL" : 55,
                        "TEXCOORD_0" : 56,
                        "COLOR_0" : 57
                    },
                    "indices" : 58,
                    "material" : 11
                }
            ]
        },
        {
            "name" : "stg071_k23_Mesh_0030",
            "primitives" : [
                {
                    "attributes" : {
                        "POSITION" : 59,
                        "NORMAL" : 60,
                        "TEXCOORD_0" : 61,
                        "COLOR_0" : 62
                    },
                    "indices" : 63,
                    "material" : 12
                }
            ]
        },
        {
            "name" : "stg071_k23_Mesh_0032",
            "primitives" : [
                {
                    "attributes" : {
                        "POSITION" : 64,
                        "NORMAL" : 65,
                        "TEXCOORD_0" : 66,
                        "COLOR_0" : 67
                    },
                    "indices" : 68,
                    "material" : 13
                }
            ]
        },
        {
            "name" : "stg071_k23_Mesh_0035",
            "primitives" : [
                {
                    "attributes" : {
                        "POSITION" : 69,
                        "NORMAL" : 70,
                        "TEXCOORD_0" : 71,
                        "COLOR_0" : 72
                    },
                    "indices" : 73,
                    "material" : 14
                }
            ]
        },
        {
            "name" : "stg071_o23_Mesh_0000",
            "primitives" : [
                {
                    "attributes" : {
                        "POSITION" : 74,
                        "NORMAL" : 75,
                        "TEXCOORD_0" : 76,
                        "COLOR_0" : 77
                    },
                    "indices" : 78,
                    "material" : 15
                }
            ]
        }
    ],
    "accessors" : [
        {
            "bufferView" : 0,
            "componentType" : 5126,
            "count" : 1504,
            "max" : [
                1023.9522094726562,
                0.00284924847073853,
                -772.9129638671875
            ],
            "min" : [
                792.29150390625,
                -0.49720218777656555,
                -787.0873413085938
            ],
            "type" : "VEC3"
        },
        {
            "bufferView" : 1,
            "componentType" : 5126,
            "count" : 1504,
            "type" : "VEC3"
        },
        {
            "bufferView" : 2,
            "componentType" : 5126,
            "count" : 1504,
            "type" : "VEC2"
        },
        {
            "bufferView" : 3,
            "componentType" : 5123,
            "count" : 1504,
            "normalized" : true,
            "type" : "VEC4"
        },
        {
            "bufferView" : 4,
            "componentType" : 5123,
            "count" : 3768,
            "type" : "SCALAR"
        },
        {
            "bufferView" : 5,
            "componentType" : 5126,
            "count" : 176,
            "max" : [
                1092.673583984375,
                25.055814743041992,
                -678.0106811523438
            ],
            "min" : [
                777.2172241210938,
                -0.015873409807682037,
                -787.0872192382812
            ],
            "type" : "VEC3"
        },
        {
            "bufferView" : 6,
            "componentType" : 5126,
            "count" : 176,
            "type" : "VEC3"
        },
        {
            "bufferView" : 7,
            "componentType" : 5126,
            "count" : 176,
            "type" : "VEC2"
        },
        {
            "bufferView" : 8,
            "componentType" : 5123,
            "count" : 176,
            "normalized" : true,
            "type" : "VEC4"
        },
        {
            "bufferView" : 9,
            "componentType" : 5123,
            "count" : 504,
            "type" : "SCALAR"
        },
        {
            "bufferView" : 10,
            "componentType" : 5126,
            "count" : 648,
            "max" : [
                1017.0322875976562,
                41.00263595581055,
                -722.364990234375
            ],
            "min" : [
                792.9491577148438,
                -19.24721336364746,
                -791.974365234375
            ],
            "type" : "VEC3"
        },
        {
            "bufferView" : 11,
            "componentType" : 5126,
            "count" : 648,
            "type" : "VEC3"
        },
        {
            "bufferView" : 12,
            "componentType" : 5126,
            "count" : 648,
            "type" : "VEC2"
        },
        {
            "bufferView" : 13,
            "componentType" : 5123,
            "count" : 648,
            "normalized" : true,
            "type" : "VEC4"
        },
        {
            "bufferView" : 14,
            "componentType" : 5123,
            "count" : 2664,
            "type" : "SCALAR"
        },
        {
            "bufferView" : 15,
            "componentType" : 5126,
            "count" : 2738,
            "max" : [
                1019.1685180664062,
                44.802635192871094,
                -721.7644653320312
            ],
            "min" : [
                792.371826171875,
                -25.99721336364746,
                -792.474365234375
            ],
            "type" : "VEC3"
        },
        {
            "bufferView" : 16,
            "componentType" : 5126,
            "count" : 2738,
            "type" : "VEC3"
        },
        {
            "bufferView" : 17,
            "componentType" : 5123,
            "count" : 2738,
            "normalized" : true,
            "type" : "VEC4"
        },
        {
            "bufferView" : 18,
            "componentType" : 5123,
            "count" : 14472,
            "type" : "SCALAR"
        },
        {
            "bufferView" : 19,
            "componentType" : 5126,
            "count" : 560,
            "max" : [
                1005.927490234375,
                62.25252151489258,
                -722.3638305664062
            ],
            "min" : [
                792.9481811523438,
                11.1597900390625,
                -793.3571166992188
            ],
            "type" : "VEC3"
        },
        {
            "bufferView" : 20,
            "componentType" : 5126,
            "count" : 560,
            "type" : "VEC3"
        },
        {
            "bufferView" : 21,
            "componentType" : 5126,
            "count" : 560,
            "type" : "VEC2"
        },
        {
            "bufferView" : 22,
            "componentType" : 5123,
            "count" : 560,
            "normalized" : true,
            "type" : "VEC4"
        },
        {
            "bufferView" : 23,
            "componentType" : 5123,
            "count" : 1392,
            "type" : "SCALAR"
        },
        {
            "bufferView" : 24,
            "componentType" : 5126,
            "count" : 1560,
            "max" : [
                1017.7251586914062,
                44.802635192871094,
                -721.7644653320312
            ],
            "min" : [
                792.371826171875,
                -21.497215270996094,
                -792.474365234375
            ],
            "type" : "VEC3"
        },
        {
            "bufferView" : 25,
            "componentType" : 5126,
            "count" : 1560,
            "type" : "VEC3"
        },
        {
            "bufferView" : 26,
            "componentType" : 5126,
            "count" : 1560,
            "type" : "VEC2"
        },
        {
            "bufferView" : 27,
            "componentType" : 5123,
            "count" : 1560,
            "normalized" : true,
            "type" : "VEC4"
        },
        {
            "bufferView" : 28,
            "componentType" : 5123,
            "count" : 6840,
            "type" : "SCALAR"
        },
        {
            "bufferView" : 29,
            "componentType" : 5126,
            "count" : 144,
            "max" : [
                1002.830322265625,
                58.00263595581055,
                -722.949462890625
            ],
            "min" : [
                793.5111694335938,
                19.92555809020996,
                -790.379150390625
            ],
            "type" : "VEC3"
        },
        {
            "bufferView" : 30,
            "componentType" : 5126,
            "count" : 144,
            "type" : "VEC3"
        },
        {
            "bufferView" : 31,
            "componentType" : 5126,
            "count" : 144,
            "type" : "VEC2"
        },
        {
            "bufferView" : 32,
            "componentType" : 5123,
            "count" : 144,
            "normalized" : true,
            "type" : "VEC4"
        },
        {
            "bufferView" : 33,
            "componentType" : 5123,
            "count" : 408,
            "type" : "SCALAR"
        },
        {
            "bufferView" : 34,
            "componentType" : 5126,
            "count" : 280,
            "max" : [
                1096.2657470703125,
                25.479042053222656,
                -674.4058227539062
            ],
            "min" : [
                985.5742797851562,
                -0.15013916790485382,
                -786.3624877929688
            ],
            "type" : "VEC3"
        },
        {
            "bufferView" : 35,
            "componentType" : 5126,
            "count" : 280,
            "type" : "VEC3"
        },
        {
            "bufferView" : 36,
            "componentType" : 5126,
            "count" : 280,
            "type" : "VEC2"
        },
        {
            "bufferView" : 37,
            "componentType" : 5123,
            "count" : 280,
            "normalized" : true,
            "type" : "VEC4"
        },
        {
            "bufferView" : 38,
            "componentType" : 5123,
            "count" : 828,
            "type" : "SCALAR"
        },
        {
            "bufferView" : 39,
            "componentType" : 5126,
            "count" : 600,
            "max" : [
                1016.6859130859375,
                27.402860641479492,
                -770.17578125
            ],
            "min" : [
                810.2486572265625,
                -25.99721336364746,
                -789.8244018554688
            ],
            "type" : "VEC3"
        },
        {
            "bufferView" : 40,
            "componentType" : 5126,
            "count" : 600,
            "type" : "VEC3"
        },
        {
            "bufferView" : 41,
            "componentType" : 5126,
            "count" : 600,
            "type" : "VEC2"
        },
        {
            "bufferView" : 42,
            "componentType" : 5123,
            "count" : 600,
            "normalized" : true,
            "type" : "VEC4"
        },
        {
            "bufferView" : 43,
            "componentType" : 5123,
            "count" : 3120,
            "type" : "SCALAR"
        },
        {
            "bufferView" : 44,
            "componentType" : 5126,
            "count" : 1260,
            "max" : [
                1097.6234130859375,
                26.136104583740234,
                -673.051025390625
            ],
            "min" : [
                776.4802856445312,
                -1.1936849355697632,
                -787.8241577148438
            ],
            "type" : "VEC3"
        },
        {
            "bufferView" : 45,
            "componentType" : 5126,
            "count" : 1260,
            "type" : "VEC3"
        },
        {
            "bufferView" : 46,
            "componentType" : 5126,
            "count" : 1260,
            "type" : "VEC2"
        },
        {
            "bufferView" : 47,
            "componentType" : 5123,
            "count" : 1260,
            "normalized" : true,
            "type" : "VEC4"
        },
        {
            "bufferView" : 48,
            "componentType" : 5123,
            "count" : 4038,
            "type" : "SCALAR"
        },
        {
            "bufferView" : 49,
            "componentType" : 5126,
            "count" : 64,
            "max" : [
                1002.4632568359375,
                43.42539596557617,
                -722.949462890625
            ],
            "min" : [
                793.5111694335938,
                11.735790252685547,
                -790.026123046875
            ],
            "type" : "VEC3"
        },
        {
            "bufferView" : 50,
            "componentType" : 5126,
            "count" : 64,
            "type" : "VEC3"
        },
        {
            "bufferView" : 51,
            "componentType" : 5126,
            "count" : 64,
            "type" : "VEC2"
        },
        {
            "bufferView" : 52,
            "componentType" : 5123,
            "count" : 64,
            "normalized" : true,
            "type" : "VEC4"
        },
        {
            "bufferView" : 53,
            "componentType" : 5123,
            "count" : 144,
            "type" : "SCALAR"
        },
        {
            "bufferView" : 54,
            "componentType" : 5126,
            "count" : 510,
            "max" : [
                1039.063232421875,
                24.502685546875,
                -726.0540771484375
            ],
            "min" : [
                777.2172241210938,
                -0.49720218777656555,
                -787.42578125
            ],
            "type" : "VEC3"
        },
        {
            "bufferView" : 55,
            "componentType" : 5126,
            "count" : 510,
            "type" : "VEC3"
        },
        {
            "bufferView" : 56,
            "componentType" : 5126,
            "count" : 510,
            "type" : "VEC2"
        },
        {
            "bufferView" : 57,
            "componentType" : 5123,
            "count" : 510,
            "normalized" : true,
            "type" : "VEC4"
        },
        {
            "bufferView" : 58,
            "componentType" : 5123,
            "count" : 978,
            "type" : "SCALAR"
        },
        {
            "bufferView" : 59,
            "componentType" : 5126,
            "count" : 496,
            "max" : [
                1002.4632568359375,
                50.65044021606445,
                -722.949462890625
            ],
            "min" : [
                793.5111694335938,
                -3.386500358581543,
                -790.0261840820312
            ],
            "type" : "VEC3"
        },
        {
            "bufferView" : 60,
            "componentType" : 5126,
            "count" : 496,
            "type" : "VEC3"
        },
        {
            "bufferView" : 61,
            "componentType" : 5126,
            "count" : 496,
            "type" : "VEC2"
        },
        {
            "bufferView" : 62,
            "componentType" : 5123,
            "count" : 496,
            "normalized" : true,
            "type" : "VEC4"
        },
        {
            "bufferView" : 63,
            "componentType" : 5123,
            "count" : 1440,
            "type" : "SCALAR"
        },
        {
            "bufferView" : 64,
            "componentType" : 5126,
            "count" : 384,
            "max" : [
                1019.1685180664062,
                44.802635192871094,
                -721.7644653320312
            ],
            "min" : [
                792.371826171875,
                19.802783966064453,
                -792.474365234375
            ],
            "type" : "VEC3"
        },
        {
            "bufferView" : 65,
            "componentType" : 5126,
            "count" : 384,
            "type" : "VEC3"
        },
        {
            "bufferView" : 66,
            "componentType" : 5126,
            "count" : 384,
            "type" : "VEC2"
        },
        {
            "bufferView" : 67,
            "componentType" : 5123,
            "count" : 384,
            "normalized" : true,
            "type" : "VEC4"
        },
        {
            "bufferView" : 68,
            "componentType" : 5123,
            "count" : 1488,
            "type" : "SCALAR"
        },
        {
            "bufferView" : 69,
            "componentType" : 5126,
            "count" : 60,
            "max" : [
                1039.063232421875,
                25.002685546875,
                -726.0540771484375
            ],
            "min" : [
                777.2172241210938,
                0.0027979379519820213,
                -787.0872192382812
            ],
            "type" : "VEC3"
        },
        {
            "bufferView" : 70,
            "componentType" : 5126,
            "count" : 60,
            "type" : "VEC3"
        },
        {
            "bufferView" : 71,
            "componentType" : 5126,
            "count" : 60,
            "type" : "VEC2"
        },
        {
            "bufferView" : 72,
            "componentType" : 5123,
            "count" : 60,
            "normalized" : true,
            "type" : "VEC4"
        },
        {
            "bufferView" : 73,
            "componentType" : 5123,
            "count" : 108,
            "type" : "SCALAR"
        },
        {
            "bufferView" : 74,
            "componentType" : 5126,
            "count" : 4096,
            "max" : [
                1092.848876953125,
                62.80263900756836,
                -677.8347778320312
            ],
            "min" : [
                776.480224609375,
                -4.697223663330078,
                -793.6571044921875
            ],
            "type" : "VEC3"
        },
        {
            "bufferView" : 75,
            "componentType" : 5126,
            "count" : 4096,
            "type" : "VEC3"
        },
        {
            "bufferView" : 76,
            "componentType" : 5126,
            "count" : 4096,
            "type" : "VEC2"
        },
        {
            "bufferView" : 77,
            "componentType" : 5123,
            "count" : 4096,
            "normalized" : true,
            "type" : "VEC4"
        },
        {
            "bufferView" : 78,
            "componentType" : 5123,
            "count" : 10788,
            "type" : "SCALAR"
        }
    ],
    "bufferViews" : [
        {
            "buffer" : 0,
            "byteLength" : 18048,
            "byteOffset" : 0,
            "target" : 34962
        },
        {
            "buffer" : 0,
            "byteLength" : 18048,
            "byteOffset" : 18048,
            "target" : 34962
        },
        {
            "buffer" : 0,
            "byteLength" : 12032,
            "byteOffset" : 36096,
            "target" : 34962
        },
        {
            "buffer" : 0,
            "byteLength" : 12032,
            "byteOffset" : 48128,
            "target" : 34962
        },
        {
            "buffer" : 0,
            "byteLength" : 7536,
            "byteOffset" : 60160,
            "target" : 34963
        },
        {
            "buffer" : 0,
            "byteLength" : 2112,
            "byteOffset" : 67696,
            "target" : 34962
        },
        {
            "buffer" : 0,
            "byteLength" : 2112,
            "byteOffset" : 69808,
            "target" : 34962
        },
        {
            "buffer" : 0,
            "byteLength" : 1408,
            "byteOffset" : 71920,
            "target" : 34962
        },
        {
            "buffer" : 0,
            "byteLength" : 1408,
            "byteOffset" : 73328,
            "target" : 34962
        },
        {
            "buffer" : 0,
            "byteLength" : 1008,
            "byteOffset" : 74736,
            "target" : 34963
        },
        {
            "buffer" : 0,
            "byteLength" : 7776,
            "byteOffset" : 75744,
            "target" : 34962
        },
        {
            "buffer" : 0,
            "byteLength" : 7776,
            "byteOffset" : 83520,
            "target" : 34962
        },
        {
            "buffer" : 0,
            "byteLength" : 5184,
            "byteOffset" : 91296,
            "target" : 34962
        },
        {
            "buffer" : 0,
            "byteLength" : 5184,
            "byteOffset" : 96480,
            "target" : 34962
        },
        {
            "buffer" : 0,
            "byteLength" : 5328,
            "byteOffset" : 101664,
            "target" : 34963
        },
        {
            "buffer" : 0,
            "byteLength" : 32856,
            "byteOffset" : 106992,
            "target" : 34962
        },
        {
            "buffer" : 0,
            "byteLength" : 32856,
            "byteOffset" : 139848,
            "target" : 34962
        },
        {
            "buffer" : 0,
            "byteLength" : 21904,
            "byteOffset" : 172704,
            "target" : 34962
        },
        {
            "buffer" : 0,
            "byteLength" : 28944,
            "byteOffset" : 194608,
            "target" : 34963
        },
        {
            "buffer" : 0,
            "byteLength" : 6720,
            "byteOffset" : 223552,
            "target" : 34962
        },
        {
            "buffer" : 0,
            "byteLength" : 6720,
            "byteOffset" : 230272,
            "target" : 34962
        },
        {
            "buffer" : 0,
            "byteLength" : 4480,
            "byteOffset" : 236992,
            "target" : 34962
        },
        {
            "buffer" : 0,
            "byteLength" : 4480,
            "byteOffset" : 241472,
            "target" : 34962
        },
        {
            "buffer" : 0,
            "byteLength" : 2784,
            "byteOffset" : 245952,
            "target" : 34963
        },
        {
            "buffer" : 0,
            "byteLength" : 18720,
            "byteOffset" : 248736,
            "target" : 34962
        },
        {
            "buffer" : 0,
            "byteLength" : 18720,
            "byteOffset" : 267456,
            "target" : 34962
        },
        {
            "buffer" : 0,
            "byteLength" : 12480,
            "byteOffset" : 286176,
            "target" : 34962
        },
        {
            "buffer" : 0,
            "byteLength" : 12480,
            "byteOffset" : 298656,
            "target" : 34962
        },
        {
            "buffer" : 0,
            "byteLength" : 13680,
            "byteOffset" : 311136,
            "target" : 34963
        },
        {
            "buffer" : 0,
            "byteLength" : 1728,
            "byteOffset" : 324816,
            "target" : 34962
        },
        {
            "buffer" : 0,
            "byteLength" : 1728,
            "byteOffset" : 326544,
            "target" : 34962
        },
        {
            "buffer" : 0,
            "byteLength" : 1152,
            "byteOffset" : 328272,
            "target" : 34962
        },
        {
            "buffer" : 0,
            "byteLength" : 1152,
            "byteOffset" : 329424,
            "target" : 34962
        },
        {
            "buffer" : 0,
            "byteLength" : 816,
            "byteOffset" : 330576,
            "target" : 34963
        },
        {
            "buffer" : 0,
            "byteLength" : 3360,
            "byteOffset" : 331392,
            "target" : 34962
        },
        {
            "buffer" : 0,
            "byteLength" : 3360,
            "byteOffset" : 334752,
            "target" : 34962
        },
        {
            "buffer" : 0,
            "byteLength" : 2240,
            "byteOffset" : 338112,
            "target" : 34962
        },
        {
            "buffer" : 0,
            "byteLength" : 2240,
            "byteOffset" : 340352,
            "target" : 34962
        },
        {
            "buffer" : 0,
            "byteLength" : 1656,
            "byteOffset" : 342592,
            "target" : 34963
        },
        {
            "buffer" : 0,
            "byteLength" : 7200,
            "byteOffset" : 344248,
            "target" : 34962
        },
        {
            "buffer" : 0,
            "byteLength" : 7200,
            "byteOffset" : 351448,
            "target" : 34962
        },
        {
            "buffer" : 0,
            "byteLength" : 4800,
            "byteOffset" : 358648,
            "target" : 34962
        },
        {
            "buffer" : 0,
            "byteLength" : 4800,
            "byteOffset" : 363448,
            "target" : 34962
        },
        {
            "buffer" : 0,
            "byteLength" : 6240,
            "byteOffset" : 368248,
            "target" : 34963
        },
        {
            "buffer" : 0,
            "byteLength" : 15120,
            "byteOffset" : 374488,
            "target" : 34962
        },
        {
            "buffer" : 0,
            "byteLength" : 15120,
            "byteOffset" : 389608,
            "target" : 34962
        },
        {
            "buffer" : 0,
            "byteLength" : 10080,
            "byteOffset" : 404728,
            "target" : 34962
        },
        {
            "buffer" : 0,
            "byteLength" : 10080,
            "byteOffset" : 414808,
            "target" : 34962
        },
        {
            "buffer" : 0,
            "byteLength" : 8076,
            "byteOffset" : 424888,
            "target" : 34963
        },
        {
            "buffer" : 0,
            "byteLength" : 768,
            "byteOffset" : 432964,
            "target" : 34962
        },
        {
            "buffer" : 0,
            "byteLength" : 768,
            "byteOffset" : 433732,
            "target" : 34962
        },
        {
            "buffer" : 0,
            "byteLength" : 512,
            "byteOffset" : 434500,
            "target" : 34962
        },
        {
            "buffer" : 0,
            "byteLength" : 512,
            "byteOffset" : 435012,
            "target" : 34962
        },
        {
            "buffer" : 0,
            "byteLength" : 288,
            "byteOffset" : 435524,
            "target" : 34963
        },
        {
            "buffer" : 0,
            "byteLength" : 6120,
            "byteOffset" : 435812,
            "target" : 34962
        },
        {
            "buffer" : 0,
            "byteLength" : 6120,
            "byteOffset" : 441932,
            "target" : 34962
        },
        {
            "buffer" : 0,
            "byteLength" : 4080,
            "byteOffset" : 448052,
            "target" : 34962
        },
        {
            "buffer" : 0,
            "byteLength" : 4080,
            "byteOffset" : 452132,
            "target" : 34962
        },
        {
            "buffer" : 0,
            "byteLength" : 1956,
            "byteOffset" : 456212,
            "target" : 34963
        },
        {
            "buffer" : 0,
            "byteLength" : 5952,
            "byteOffset" : 458168,
            "target" : 34962
        },
        {
            "buffer" : 0,
            "byteLength" : 5952,
            "byteOffset" : 464120,
            "target" : 34962
        },
        {
            "buffer" : 0,
            "byteLength" : 3968,
            "byteOffset" : 470072,
            "target" : 34962
        },
        {
            "buffer" : 0,
            "byteLength" : 3968,
            "byteOffset" : 474040,
            "target" : 34962
        },
        {
            "buffer" : 0,
            "byteLength" : 2880,
            "byteOffset" : 478008,
            "target" : 34963
        },
        {
            "buffer" : 0,
            "byteLength" : 4608,
            "byteOffset" : 480888,
            "target" : 34962
        },
        {
            "buffer" : 0,
            "byteLength" : 4608,
            "byteOffset" : 485496,
            "target" : 34962
        },
        {
            "buffer" : 0,
            "byteLength" : 3072,
            "byteOffset" : 490104,
            "target" : 34962
        },
        {
            "buffer" : 0,
            "byteLength" : 3072,
            "byteOffset" : 493176,
            "target" : 34962
        },
        {
            "buffer" : 0,
            "byteLength" : 2976,
            "byteOffset" : 496248,
            "target" : 34963
        },
        {
            "buffer" : 0,
            "byteLength" : 720,
            "byteOffset" : 499224,
            "target" : 34962
        },
        {
            "buffer" : 0,
            "byteLength" : 720,
            "byteOffset" : 499944,
            "target" : 34962
        },
        {
            "buffer" : 0,
            "byteLength" : 480,
            "byteOffset" : 500664,
            "target" : 34962
        },
        {
            "buffer" : 0,
            "byteLength" : 480,
            "byteOffset" : 501144,
            "target" : 34962
        },
        {
            "buffer" : 0,
            "byteLength" : 216,
            "byteOffset" : 501624,
            "target" : 34963
        },
        {
            "buffer" : 0,
            "byteLength" : 49152,
            "byteOffset" : 501840,
            "target" : 34962
        },
        {
            "buffer" : 0,
            "byteLength" : 49152,
            "byteOffset" : 550992,
            "target" : 34962
        },
        {
            "buffer" : 0,
            "byteLength" : 32768,
            "byteOffset" : 600144,
            "target" : 34962
        },
        {
            "buffer" : 0,
            "byteLength" : 32768,
            "byteOffset" : 632912,
            "target" : 34962
        },
        {
            "buffer" : 0,
            "byteLength" : 21576,
            "byteOffset" : 665680,
            "target" : 34963
        }
    ],
    "buffers" : [
        {
            "byteLength" : 687256,
            "uri" : "data:application/octet-stream;base64,"
        }
    ]
}
