{
    "asset" : {
        "generator" : "Khronos glTF Blender I/O v3.3.36",
        "version" : "2.0"
    },
    "extensionsUsed" : [
        "KHR_materials_specular",
        "KHR_materials_ior"
    ],
    "scene" : 0,
    "scenes" : [
        {
            "name" : "Scene",
            "nodes" : [
                0,
                1,
                2,
                3,
                4,
                5,
                6,
                7,
                8,
                9,
                10,
                11,
                12,
                13,
                14
            ]
        }
    ],
    "nodes" : [
        {
            "mesh" : 0,
            "name" : "stg071_k22_Mesh_0000"
        },
        {
            "mesh" : 1,
            "name" : "stg071_k22_Mesh_0001"
        },
        {
            "mesh" : 2,
            "name" : "stg071_k22_Mesh_0005"
        },
        {
            "mesh" : 3,
            "name" : "stg071_k22_Mesh_0007"
        },
        {
            "mesh" : 4,
            "name" : "stg071_k22_Mesh_0010"
        },
        {
            "mesh" : 5,
            "name" : "stg071_k22_Mesh_0013"
        },
        {
            "mesh" : 6,
            "name" : "stg071_k22_Mesh_0015"
        },
        {
            "mesh" : 7,
            "name" : "stg071_k22_Mesh_0018"
        },
        {
            "mesh" : 8,
            "name" : "stg071_k22_Mesh_0019"
        },
        {
            "mesh" : 9,
            "name" : "stg071_k22_Mesh_0021"
        },
        {
            "mesh" : 10,
            "name" : "stg071_k22_Mesh_0025"
        },
        {
            "mesh" : 11,
            "name" : "stg071_k22_Mesh_0027"
        },
        {
            "mesh" : 12,
            "name" : "stg071_k22_Mesh_0031"
        },
        {
            "mesh" : 13,
            "name" : "stg071_k22_Mesh_0034"
        },
        {
            "mesh" : 14,
            "name" : "stg071_o22_Mesh_0000"
        }
    ],
    "materials" : [
        {
            "extensions" : {
                "KHR_materials_specular" : {
                    "specularColorFactor" : [
                        0,
                        0,
                        0
                    ]
                },
                "KHR_materials_ior" : {
                    "ior" : 1.4500000476837158
                }
            },
            "name" : "Space Panel",
            "pbrMetallicRoughness" : {
                "baseColorFactor" : [
                    0.800000011920929,
                    0.800000011920929,
                    0.800000011920929,
                    1
                ],
                "metallicFactor" : 0
            }
        },
        {
            "extensions" : {
                "KHR_materials_specular" : {
                    "specularColorFactor" : [
                        0,
                        0,
                        0
                    ]
                },
                "KHR_materials_ior" : {
                    "ior" : 1.4500000476837158
                }
            },
            "name" : "Space Eight Square",
            "pbrMetallicRoughness" : {
                "baseColorFactor" : [
                    0.800000011920929,
                    0.800000011920929,
                    0.800000011920929,
                    1
                ],
                "metallicFactor" : 0
            }
        },
        {
            "extensions" : {
                "KHR_materials_specular" : {
                    "specularColorFactor" : [
                        0,
                        0,
                        0
                    ]
                },
                "KHR_materials_ior" : {
                    "ior" : 1.4500000476837158
                }
            },
            "name" : "Space Gate Trim",
            "pbrMetallicRoughness" : {
                "baseColorFactor" : [
                    0.800000011920929,
                    0.800000011920929,
                    0.800000011920929,
                    1
                ],
                "metallicFactor" : 0
            }
        },
        {
            "extensions" : {
                "KHR_materials_specular" : {
                    "specularColorFactor" : [
                        0,
                        0,
                        0
                    ]
                },
                "KHR_materials_ior" : {
                    "ior" : 1.4500000476837158
                }
            },
            "name" : "Space Specular",
            "pbrMetallicRoughness" : {
                "baseColorFactor" : [
                    0.800000011920929,
                    0.800000011920929,
                    0.800000011920929,
                    1
                ],
                "metallicFactor" : 0
            }
        },
        {
            "extensions" : {
                "KHR_materials_specular" : {
                    "specularColorFactor" : [
                        0,
                        0,
                        0
                    ]
                },
                "KHR_materials_ior" : {
                    "ior" : 1.4500000476837158
                }
            },
            "name" : "Space Pillar",
            "pbrMetallicRoughness" : {
                "baseColorFactor" : [
                    0.800000011920929,
                    0.800000011920929,
                    0.800000011920929,
                    1
                ],
                "metallicFactor" : 0
            }
        },
        {
            "extensions" : {
                "KHR_materials_specular" : {
                    "specularColorFactor" : [
                        0,
                        0,
                        0
                    ]
                },
                "KHR_materials_ior" : {
                    "ior" : 1.4500000476837158
                }
            },
            "name" : "Space Gate Pattern",
            "pbrMetallicRoughness" : {
                "baseColorFactor" : [
                    0.800000011920929,
                    0.800000011920929,
                    0.800000011920929,
                    1
                ],
                "metallicFactor" : 0
            }
        },
        {
            "extensions" : {
                "KHR_materials_specular" : {
                    "specularColorFactor" : [
                        0,
                        0,
                        0
                    ]
                },
                "KHR_materials_ior" : {
                    "ior" : 1.4500000476837158
                }
            },
            "name" : "Space Pillar Trim",
            "pbrMetallicRoughness" : {
                "baseColorFactor" : [
                    0.800000011920929,
                    0.800000011920929,
                    0.800000011920929,
                    1
                ],
                "metallicFactor" : 0
            }
        },
        {
            "extensions" : {
                "KHR_materials_specular" : {
                    "specularColorFactor" : [
                        0,
                        0,
                        0
                    ]
                },
                "KHR_materials_ior" : {
                    "ior" : 1.4500000476837158
                }
            },
            "name" : "Space Pillar Tip",
            "pbrMetallicRoughness" : {
                "baseColorFactor" : [
                    0.800000011920929,
                    0.800000011920929,
                    0.800000011920929,
                    1
                ],
                "metallicFactor" : 0
            }
        },
        {
            "extensions" : {
                "KHR_materials_specular" : {
                    "specularColorFactor" : [
                        0,
                        0,
                        0
                    ]
                },
                "KHR_materials_ior" : {
                    "ior" : 1.4500000476837158
                }
            },
            "name" : "Space Window",
            "pbrMetallicRoughness" : {
                "baseColorFactor" : [
                    0.800000011920929,
                    0.800000011920929,
                    0.800000011920929,
                    1
                ],
                "metallicFactor" : 0
            }
        },
        {
            "extensions" : {
                "KHR_materials_specular" : {
                    "specularColorFactor" : [
                        0,
                        0,
                        0
                    ]
                },
                "KHR_materials_ior" : {
                    "ior" : 1.4500000476837158
                }
            },
            "name" : "Space Clear Trim",
            "pbrMetallicRoughness" : {
                "baseColorFactor" : [
                    0.800000011920929,
                    0.800000011920929,
                    0.800000011920929,
                    1
                ],
                "metallicFactor" : 0
            }
        },
        {
            "extensions" : {
                "KHR_materials_specular" : {
                    "specularColorFactor" : [
                        0,
                        0,
                        0
                    ]
                },
                "KHR_materials_ior" : {
                    "ior" : 1.4500000476837158
                }
            },
            "name" : "Space Brick",
            "pbrMetallicRoughness" : {
                "baseColorFactor" : [
                    0.800000011920929,
                    0.800000011920929,
                    0.800000011920929,
                    1
                ],
                "metallicFactor" : 0
            }
        },
        {
            "extensions" : {
                "KHR_materials_specular" : {
                    "specularColorFactor" : [
                        0,
                        0,
                        0
                    ]
                },
                "KHR_materials_ior" : {
                    "ior" : 1.4500000476837158
                }
            },
            "name" : "Space Gate",
            "pbrMetallicRoughness" : {
                "baseColorFactor" : [
                    0.800000011920929,
                    0.800000011920929,
                    0.800000011920929,
                    1
                ],
                "metallicFactor" : 0
            }
        },
        {
            "extensions" : {
                "KHR_materials_specular" : {
                    "specularColorFactor" : [
                        0,
                        0,
                        0
                    ]
                },
                "KHR_materials_ior" : {
                    "ior" : 1.4500000476837158
                }
            },
            "name" : "Space Pillar Dish",
            "pbrMetallicRoughness" : {
                "baseColorFactor" : [
                    0.800000011920929,
                    0.800000011920929,
                    0.800000011920929,
                    1
                ],
                "metallicFactor" : 0
            }
        },
        {
            "extensions" : {
                "KHR_materials_specular" : {
                    "specularColorFactor" : [
                        0,
                        0,
                        0
                    ]
                },
                "KHR_materials_ior" : {
                    "ior" : 1.4500000476837158
                }
            },
            "name" : "Space Star Clover",
            "pbrMetallicRoughness" : {
                "baseColorFactor" : [
                    0.800000011920929,
                    0.800000011920929,
                    0.800000011920929,
                    1
                ],
                "metallicFactor" : 0
            }
        },
        {
            "extensions" : {
                "KHR_materials_specular" : {
                    "specularColorFactor" : [
                        0,
                        0,
                        0
                    ]
                },
                "KHR_materials_ior" : {
                    "ior" : 1.4500000476837158
                }
            },
            "name" : "Space Gold Trim",
            "pbrMetallicRoughness" : {
                "baseColorFactor" : [
                    0.800000011920929,
                    0.800000011920929,
                    0.800000011920929,
                    1
                ],
                "metallicFactor" : 0
            }
        }
    ],
    "meshes" : [
        {
            "name" : "stg071_k22_Mesh_0000",
            "primitives" : [
                {
                    "attributes" : {
                        "POSITION" : 0,
                        "NORMAL" : 1,
                        "TEXCOORD_0" : 2,
                        "COLOR_0" : 3
                    },
                    "indices" : 4,
                    "material" : 0
                }
            ]
        },
        {
            "name" : "stg071_k22_Mesh_0001",
            "primitives" : [
                {
                    "attributes" : {
                        "POSITION" : 5,
                        "NORMAL" : 6,
                        "TEXCOORD_0" : 7,
                        "COLOR_0" : 8
                    },
                    "indices" : 9,
                    "material" : 1
                }
            ]
        },
        {
            "name" : "stg071_k22_Mesh_0005",
            "primitives" : [
                {
                    "attributes" : {
                        "POSITION" : 10,
                        "NORMAL" : 11,
                        "TEXCOORD_0" : 12,
                        "COLOR_0" : 13
                    },
                    "indices" : 14,
                    "material" : 2
                }
            ]
        },
        {
            "name" : "stg071_k22_Mesh_0007",
            "primitives" : [
                {
                    "attributes" : {
                        "POSITION" : 15,
                        "NORMAL" : 16,
                        "COLOR_0" : 17
                    },
                    "indices" : 18,
                    "material" : 3
                }
            ]
        },
        {
            "name" : "stg071_k22_Mesh_0010",
            "primitives" : [
                {
                    "attributes" : {
                        "POSITION" : 19,
                        "NORMAL" : 20,
                        "TEXCOORD_0" : 21,
                        "COLOR_0" : 22
                    },
                    "indices" : 23,
                    "material" : 4
                }
            ]
        },
        {
            "name" : "stg071_k22_Mesh_0013",
            "primitives" : [
                {
                    "attributes" : {
                        "POSITION" : 24,
                        "NORMAL" : 25,
                        "TEXCOORD_0" : 26,
                        "COLOR_0" : 27
                    },
                    "indices" : 28,
                    "material" : 5
                }
            ]
        },
        {
            "name" : "stg071_k22_Mesh_0015",
            "primitives" : [
                {
                    "attributes" : {
                        "POSITION" : 29,
                        "NORMAL" : 30,
                        "TEXCOORD_0" : 31,
                        "COLOR_0" : 32
                    },
                    "indices" : 33,
                    "material" : 6
                }
            ]
        },
        {
            "name" : "stg071_k22_Mesh_0018",
            "primitives" : [
                {
                    "attributes" : {
                        "POSITION" : 34,
                        "NORMAL" : 35,
                        "TEXCOORD_0" : 36,
                        "COLOR_0" : 37
                    },
                    "indices" : 38,
                    "material" : 7
                }
            ]
        },
        {
            "name" : "stg071_k22_Mesh_0019",
            "primitives" : [
                {
                    "attributes" : {
                        "POSITION" : 39,
                        "NORMAL" : 40,
                        "TEXCOORD_0" : 41,
                        "COLOR_0" : 42
                    },
                    "indices" : 43,
                    "material" : 8
                }
            ]
        },
        {
            "name" : "stg071_k22_Mesh_0021",
            "primitives" : [
                {
                    "attributes" : {
                        "POSITION" : 44,
                        "NORMAL" : 45,
                        "TEXCOORD_0" : 46,
                        "COLOR_0" : 47
                    },
                    "indices" : 48,
                    "material" : 9
                }
            ]
        },
        {
            "name" : "stg071_k22_Mesh_0025",
            "primitives" : [
                {
                    "attributes" : {
                        "POSITION" : 49,
                        "NORMAL" : 50,
                        "TEXCOORD_0" : 51,
                        "COLOR_0" : 52
                    },
                    "indices" : 53,
                    "material" : 10
                }
            ]
        },
        {
            "name" : "stg071_k22_Mesh_0027",
            "primitives" : [
                {
                    "attributes" : {
                        "POSITION" : 54,
                        "NORMAL" : 55,
                        "TEXCOORD_0" : 56,
                        "COLOR_0" : 57
                    },
                    "indices" : 58,
                    "material" : 11
                }
            ]
        },
        {
            "name" : "stg071_k22_Mesh_0031",
            "primitives" : [
                {
                    "attributes" : {
                        "POSITION" : 59,
                        "NORMAL" : 60,
                        "TEXCOORD_0" : 61,
                        "COLOR_0" : 62
                    },
                    "indices" : 63,
                    "material" : 12
                }
            ]
        },
        {
            "name" : "stg071_k22_Mesh_0034",
            "primitives" : [
                {
                    "attributes" : {
                        "POSITION" : 64,
                        "NORMAL" : 65,
                        "TEXCOORD_0" : 66,
                        "COLOR_0" : 67
                    },
                    "indices" : 68,
                    "material" : 13
                }
            ]
        },
        {
            "name" : "stg071_o22_Mesh_0000",
            "primitives" : [
                {
                    "attributes" : {
                        "POSITION" : 69,
                        "NORMAL" : 70,
                        "TEXCOORD_0" : 71,
                        "COLOR_0" : 72
                    },
                    "indices" : 73,
                    "material" : 14
                }
            ]
        }
    ],
    "accessors" : [
        {
            "bufferView" : 0,
            "componentType" : 5126,
            "count" : 782,
            "max" : [
                924.022216796875,
                0.0011116538662463427,
                -292.9132385253906
            ],
            "min" : [
                795.7178344726562,
                -0.49893978238105774,
                -307.0875549316406
            ],
            "type" : "VEC3"
        },
        {
            "bufferView" : 1,
            "componentType" : 5126,
            "count" : 782,
            "type" : "VEC3"
        },
        {
            "bufferView" : 2,
            "componentType" : 5126,
            "count" : 782,
            "type" : "VEC2"
        },
        {
            "bufferView" : 3,
            "componentType" : 5123,
            "count" : 782,
            "normalized" : true,
            "type" : "VEC4"
        },
        {
            "bufferView" : 4,
            "componentType" : 5123,
            "count" : 1944,
            "type" : "SCALAR"
        },
        {
            "bufferView" : 5,
            "componentType" : 5126,
            "count" : 236,
            "max" : [
                985.394287109375,
                0.30406713485717773,
                -280.9898681640625
            ],
            "min" : [
                780.7061767578125,
                -5.998957633972168,
                -313.6825866699219
            ],
            "type" : "VEC3"
        },
        {
            "bufferView" : 6,
            "componentType" : 5126,
            "count" : 236,
            "type" : "VEC3"
        },
        {
            "bufferView" : 7,
            "componentType" : 5126,
            "count" : 236,
            "type" : "VEC2"
        },
        {
            "bufferView" : 8,
            "componentType" : 5123,
            "count" : 236,
            "normalized" : true,
            "type" : "VEC4"
        },
        {
            "bufferView" : 9,
            "componentType" : 5123,
            "count" : 684,
            "type" : "SCALAR"
        },
        {
            "bufferView" : 10,
            "componentType" : 5126,
            "count" : 560,
            "max" : [
                969.8272094726562,
                37.250980377197266,
                -282.1239929199219
            ],
            "min" : [
                796.3742065429688,
                5.158034324645996,
                -313.35699462890625
            ],
            "type" : "VEC3"
        },
        {
            "bufferView" : 11,
            "componentType" : 5126,
            "count" : 560,
            "type" : "VEC3"
        },
        {
            "bufferView" : 12,
            "componentType" : 5126,
            "count" : 560,
            "type" : "VEC2"
        },
        {
            "bufferView" : 13,
            "componentType" : 5123,
            "count" : 560,
            "normalized" : true,
            "type" : "VEC4"
        },
        {
            "bufferView" : 14,
            "componentType" : 5123,
            "count" : 1392,
            "type" : "SCALAR"
        },
        {
            "bufferView" : 15,
            "componentType" : 5126,
            "count" : 2268,
            "max" : [
                970.403564453125,
                27.401123046875,
                -283.0067443847656
            ],
            "min" : [
                795.7978515625,
                -25.998950958251953,
                -312.4742736816406
            ],
            "type" : "VEC3"
        },
        {
            "bufferView" : 16,
            "componentType" : 5126,
            "count" : 2268,
            "type" : "VEC3"
        },
        {
            "bufferView" : 17,
            "componentType" : 5123,
            "count" : 2268,
            "normalized" : true,
            "type" : "VEC4"
        },
        {
            "bufferView" : 18,
            "componentType" : 5123,
            "count" : 11976,
            "type" : "SCALAR"
        },
        {
            "bufferView" : 19,
            "componentType" : 5126,
            "count" : 528,
            "max" : [
                969.8262329101562,
                17.20112419128418,
                -283.50677490234375
            ],
            "min" : [
                796.3751831054688,
                -19.248950958251953,
                -311.9742736816406
            ],
            "type" : "VEC3"
        },
        {
            "bufferView" : 20,
            "componentType" : 5126,
            "count" : 528,
            "type" : "VEC3"
        },
        {
            "bufferView" : 21,
            "componentType" : 5126,
            "count" : 528,
            "type" : "VEC2"
        },
        {
            "bufferView" : 22,
            "componentType" : 5123,
            "count" : 528,
            "normalized" : true,
            "type" : "VEC4"
        },
        {
            "bufferView" : 23,
            "componentType" : 5123,
            "count" : 2160,
            "type" : "SCALAR"
        },
        {
            "bufferView" : 24,
            "componentType" : 5126,
            "count" : 144,
            "max" : [
                969.2642211914062,
                33.001094818115234,
                -285.1020202636719
            ],
            "min" : [
                796.9371948242188,
                13.923802375793457,
                -310.3789978027344
            ],
            "type" : "VEC3"
        },
        {
            "bufferView" : 25,
            "componentType" : 5126,
            "count" : 144,
            "type" : "VEC3"
        },
        {
            "bufferView" : 26,
            "componentType" : 5126,
            "count" : 144,
            "type" : "VEC2"
        },
        {
            "bufferView" : 27,
            "componentType" : 5123,
            "count" : 144,
            "normalized" : true,
            "type" : "VEC4"
        },
        {
            "bufferView" : 28,
            "componentType" : 5123,
            "count" : 408,
            "type" : "SCALAR"
        },
        {
            "bufferView" : 29,
            "componentType" : 5126,
            "count" : 1332,
            "max" : [
                970.403564453125,
                23.6511287689209,
                -283.0067443847656
            ],
            "min" : [
                795.7978515625,
                -21.498952865600586,
                -312.4742736816406
            ],
            "type" : "VEC3"
        },
        {
            "bufferView" : 30,
            "componentType" : 5126,
            "count" : 1332,
            "type" : "VEC3"
        },
        {
            "bufferView" : 31,
            "componentType" : 5126,
            "count" : 1332,
            "type" : "VEC2"
        },
        {
            "bufferView" : 32,
            "componentType" : 5123,
            "count" : 1332,
            "normalized" : true,
            "type" : "VEC4"
        },
        {
            "bufferView" : 33,
            "componentType" : 5123,
            "count" : 5832,
            "type" : "SCALAR"
        },
        {
            "bufferView" : 34,
            "componentType" : 5126,
            "count" : 480,
            "max" : [
                920.32080078125,
                27.401123046875,
                -290.1756896972656
            ],
            "min" : [
                845.5745239257812,
                -25.998950958251953,
                -309.82427978515625
            ],
            "type" : "VEC3"
        },
        {
            "bufferView" : 35,
            "componentType" : 5126,
            "count" : 480,
            "type" : "VEC3"
        },
        {
            "bufferView" : 36,
            "componentType" : 5126,
            "count" : 480,
            "type" : "VEC2"
        },
        {
            "bufferView" : 37,
            "componentType" : 5123,
            "count" : 480,
            "normalized" : true,
            "type" : "VEC4"
        },
        {
            "bufferView" : 38,
            "componentType" : 5123,
            "count" : 2496,
            "type" : "SCALAR"
        },
        {
            "bufferView" : 39,
            "componentType" : 5126,
            "count" : 64,
            "max" : [
                969.2642211914062,
                18.423891067504883,
                -285.4550476074219
            ],
            "min" : [
                796.9371948242188,
                5.734035015106201,
                -310.0260314941406
            ],
            "type" : "VEC3"
        },
        {
            "bufferView" : 40,
            "componentType" : 5126,
            "count" : 64,
            "type" : "VEC3"
        },
        {
            "bufferView" : 41,
            "componentType" : 5126,
            "count" : 64,
            "type" : "VEC2"
        },
        {
            "bufferView" : 42,
            "componentType" : 5123,
            "count" : 64,
            "normalized" : true,
            "type" : "VEC4"
        },
        {
            "bufferView" : 43,
            "componentType" : 5123,
            "count" : 144,
            "type" : "SCALAR"
        },
        {
            "bufferView" : 44,
            "componentType" : 5126,
            "count" : 2140,
            "max" : [
                986.1312866210938,
                1.3800323009490967,
                -278.7288513183594
            ],
            "min" : [
                779.96923828125,
                -7.239135265350342,
                -316.0027770996094
            ],
            "type" : "VEC3"
        },
        {
            "bufferView" : 45,
            "componentType" : 5126,
            "count" : 2140,
            "type" : "VEC3"
        },
        {
            "bufferView" : 46,
            "componentType" : 5126,
            "count" : 2140,
            "type" : "VEC2"
        },
        {
            "bufferView" : 47,
            "componentType" : 5123,
            "count" : 2140,
            "normalized" : true,
            "type" : "VEC4"
        },
        {
            "bufferView" : 48,
            "componentType" : 5123,
            "count" : 6846,
            "type" : "SCALAR"
        },
        {
            "bufferView" : 49,
            "componentType" : 5126,
            "count" : 496,
            "max" : [
                969.2642211914062,
                25.648900985717773,
                -285.45501708984375
            ],
            "min" : [
                796.9371948242188,
                -9.38825511932373,
                -310.02606201171875
            ],
            "type" : "VEC3"
        },
        {
            "bufferView" : 50,
            "componentType" : 5126,
            "count" : 496,
            "type" : "VEC3"
        },
        {
            "bufferView" : 51,
            "componentType" : 5126,
            "count" : 496,
            "type" : "VEC2"
        },
        {
            "bufferView" : 52,
            "componentType" : 5123,
            "count" : 496,
            "normalized" : true,
            "type" : "VEC4"
        },
        {
            "bufferView" : 53,
            "componentType" : 5123,
            "count" : 1440,
            "type" : "SCALAR"
        },
        {
            "bufferView" : 54,
            "componentType" : 5126,
            "count" : 432,
            "max" : [
                985.394287109375,
                22.001117706298828,
                -288.39410400390625
            ],
            "min" : [
                780.7061767578125,
                -6.498957633972168,
                -307.4257507324219
            ],
            "type" : "VEC3"
        },
        {
            "bufferView" : 55,
            "componentType" : 5126,
            "count" : 432,
            "type" : "VEC3"
        },
        {
            "bufferView" : 56,
            "componentType" : 5126,
            "count" : 432,
            "type" : "VEC2"
        },
        {
            "bufferView" : 57,
            "componentType" : 5123,
            "count" : 432,
            "normalized" : true,
            "type" : "VEC4"
        },
        {
            "bufferView" : 58,
            "componentType" : 5123,
            "count" : 822,
            "type" : "SCALAR"
        },
        {
            "bufferView" : 59,
            "componentType" : 5126,
            "count" : 312,
            "max" : [
                970.403564453125,
                22.30113410949707,
                -283.0067443847656
            ],
            "min" : [
                795.7978515625,
                13.801027297973633,
                -312.4742736816406
            ],
            "type" : "VEC3"
        },
        {
            "bufferView" : 60,
            "componentType" : 5126,
            "count" : 312,
            "type" : "VEC3"
        },
        {
            "bufferView" : 61,
            "componentType" : 5126,
            "count" : 312,
            "type" : "VEC2"
        },
        {
            "bufferView" : 62,
            "componentType" : 5123,
            "count" : 312,
            "normalized" : true,
            "type" : "VEC4"
        },
        {
            "bufferView" : 63,
            "componentType" : 5123,
            "count" : 1200,
            "type" : "SCALAR"
        },
        {
            "bufferView" : 64,
            "componentType" : 5126,
            "count" : 60,
            "max" : [
                985.394287109375,
                0.0011116521200165153,
                -288.39410400390625
            ],
            "min" : [
                780.7061767578125,
                -5.998957633972168,
                -307.0870666503906
            ],
            "type" : "VEC3"
        },
        {
            "bufferView" : 65,
            "componentType" : 5126,
            "count" : 60,
            "type" : "VEC3"
        },
        {
            "bufferView" : 66,
            "componentType" : 5126,
            "count" : 60,
            "type" : "VEC2"
        },
        {
            "bufferView" : 67,
            "componentType" : 5123,
            "count" : 60,
            "normalized" : true,
            "type" : "VEC4"
        },
        {
            "bufferView" : 68,
            "componentType" : 5123,
            "count" : 108,
            "type" : "SCALAR"
        },
        {
            "bufferView" : 69,
            "componentType" : 5126,
            "count" : 4010,
            "max" : [
                986.1312866210938,
                37.80109786987305,
                -280.79376220703125
            ],
            "min" : [
                779.9691772460938,
                -10.698979377746582,
                -313.86895751953125
            ],
            "type" : "VEC3"
        },
        {
            "bufferView" : 70,
            "componentType" : 5126,
            "count" : 4010,
            "type" : "VEC3"
        },
        {
            "bufferView" : 71,
            "componentType" : 5126,
            "count" : 4010,
            "type" : "VEC2"
        },
        {
            "bufferView" : 72,
            "componentType" : 5123,
            "count" : 4010,
            "normalized" : true,
            "type" : "VEC4"
        },
        {
            "bufferView" : 73,
            "componentType" : 5123,
            "count" : 10524,
            "type" : "SCALAR"
        }
    ],
    "bufferViews" : [
        {
            "buffer" : 0,
            "byteLength" : 9384,
            "byteOffset" : 0,
            "target" : 34962
        },
        {
            "buffer" : 0,
            "byteLength" : 9384,
            "byteOffset" : 9384,
            "target" : 34962
        },
        {
            "buffer" : 0,
            "byteLength" : 6256,
            "byteOffset" : 18768,
            "target" : 34962
        },
        {
            "buffer" : 0,
            "byteLength" : 6256,
            "byteOffset" : 25024,
            "target" : 34962
        },
        {
            "buffer" : 0,
            "byteLength" : 3888,
            "byteOffset" : 31280,
            "target" : 34963
        },
        {
            "buffer" : 0,
            "byteLength" : 2832,
            "byteOffset" : 35168,
            "target" : 34962
        },
        {
            "buffer" : 0,
            "byteLength" : 2832,
            "byteOffset" : 38000,
            "target" : 34962
        },
        {
            "buffer" : 0,
            "byteLength" : 1888,
            "byteOffset" : 40832,
            "target" : 34962
        },
        {
            "buffer" : 0,
            "byteLength" : 1888,
            "byteOffset" : 42720,
            "target" : 34962
        },
        {
            "buffer" : 0,
            "byteLength" : 1368,
            "byteOffset" : 44608,
            "target" : 34963
        },
        {
            "buffer" : 0,
            "byteLength" : 6720,
            "byteOffset" : 45976,
            "target" : 34962
        },
        {
            "buffer" : 0,
            "byteLength" : 6720,
            "byteOffset" : 52696,
            "target" : 34962
        },
        {
            "buffer" : 0,
            "byteLength" : 4480,
            "byteOffset" : 59416,
            "target" : 34962
        },
        {
            "buffer" : 0,
            "byteLength" : 4480,
            "byteOffset" : 63896,
            "target" : 34962
        },
        {
            "buffer" : 0,
            "byteLength" : 2784,
            "byteOffset" : 68376,
            "target" : 34963
        },
        {
            "buffer" : 0,
            "byteLength" : 27216,
            "byteOffset" : 71160,
            "target" : 34962
        },
        {
            "buffer" : 0,
            "byteLength" : 27216,
            "byteOffset" : 98376,
            "target" : 34962
        },
        {
            "buffer" : 0,
            "byteLength" : 18144,
            "byteOffset" : 125592,
            "target" : 34962
        },
        {
            "buffer" : 0,
            "byteLength" : 23952,
            "byteOffset" : 143736,
            "target" : 34963
        },
        {
            "buffer" : 0,
            "byteLength" : 6336,
            "byteOffset" : 167688,
            "target" : 34962
        },
        {
            "buffer" : 0,
            "byteLength" : 6336,
            "byteOffset" : 174024,
            "target" : 34962
        },
        {
            "buffer" : 0,
            "byteLength" : 4224,
            "byteOffset" : 180360,
            "target" : 34962
        },
        {
            "buffer" : 0,
            "byteLength" : 4224,
            "byteOffset" : 184584,
            "target" : 34962
        },
        {
            "buffer" : 0,
            "byteLength" : 4320,
            "byteOffset" : 188808,
            "target" : 34963
        },
        {
            "buffer" : 0,
            "byteLength" : 1728,
            "byteOffset" : 193128,
            "target" : 34962
        },
        {
            "buffer" : 0,
            "byteLength" : 1728,
            "byteOffset" : 194856,
            "target" : 34962
        },
        {
            "buffer" : 0,
            "byteLength" : 1152,
            "byteOffset" : 196584,
            "target" : 34962
        },
        {
            "buffer" : 0,
            "byteLength" : 1152,
            "byteOffset" : 197736,
            "target" : 34962
        },
        {
            "buffer" : 0,
            "byteLength" : 816,
            "byteOffset" : 198888,
            "target" : 34963
        },
        {
            "buffer" : 0,
            "byteLength" : 15984,
            "byteOffset" : 199704,
            "target" : 34962
        },
        {
            "buffer" : 0,
            "byteLength" : 15984,
            "byteOffset" : 215688,
            "target" : 34962
        },
        {
            "buffer" : 0,
            "byteLength" : 10656,
            "byteOffset" : 231672,
            "target" : 34962
        },
        {
            "buffer" : 0,
            "byteLength" : 10656,
            "byteOffset" : 242328,
            "target" : 34962
        },
        {
            "buffer" : 0,
            "byteLength" : 11664,
            "byteOffset" : 252984,
            "target" : 34963
        },
        {
            "buffer" : 0,
            "byteLength" : 5760,
            "byteOffset" : 264648,
            "target" : 34962
        },
        {
            "buffer" : 0,
            "byteLength" : 5760,
            "byteOffset" : 270408,
            "target" : 34962
        },
        {
            "buffer" : 0,
            "byteLength" : 3840,
            "byteOffset" : 276168,
            "target" : 34962
        },
        {
            "buffer" : 0,
            "byteLength" : 3840,
            "byteOffset" : 280008,
            "target" : 34962
        },
        {
            "buffer" : 0,
            "byteLength" : 4992,
            "byteOffset" : 283848,
            "target" : 34963
        },
        {
            "buffer" : 0,
            "byteLength" : 768,
            "byteOffset" : 288840,
            "target" : 34962
        },
        {
            "buffer" : 0,
            "byteLength" : 768,
            "byteOffset" : 289608,
            "target" : 34962
        },
        {
            "buffer" : 0,
            "byteLength" : 512,
            "byteOffset" : 290376,
            "target" : 34962
        },
        {
            "buffer" : 0,
            "byteLength" : 512,
            "byteOffset" : 290888,
            "target" : 34962
        },
        {
            "buffer" : 0,
            "byteLength" : 288,
            "byteOffset" : 291400,
            "target" : 34963
        },
        {
            "buffer" : 0,
            "byteLength" : 25680,
            "byteOffset" : 291688,
            "target" : 34962
        },
        {
            "buffer" : 0,
            "byteLength" : 25680,
            "byteOffset" : 317368,
            "target" : 34962
        },
        {
            "buffer" : 0,
            "byteLength" : 17120,
            "byteOffset" : 343048,
            "target" : 34962
        },
        {
            "buffer" : 0,
            "byteLength" : 17120,
            "byteOffset" : 360168,
            "target" : 34962
        },
        {
            "buffer" : 0,
            "byteLength" : 13692,
            "byteOffset" : 377288,
            "target" : 34963
        },
        {
            "buffer" : 0,
            "byteLength" : 5952,
            "byteOffset" : 390980,
            "target" : 34962
        },
        {
            "buffer" : 0,
            "byteLength" : 5952,
            "byteOffset" : 396932,
            "target" : 34962
        },
        {
            "buffer" : 0,
            "byteLength" : 3968,
            "byteOffset" : 402884,
            "target" : 34962
        },
        {
            "buffer" : 0,
            "byteLength" : 3968,
            "byteOffset" : 406852,
            "target" : 34962
        },
        {
            "buffer" : 0,
            "byteLength" : 2880,
            "byteOffset" : 410820,
            "target" : 34963
        },
        {
            "buffer" : 0,
            "byteLength" : 5184,
            "byteOffset" : 413700,
            "target" : 34962
        },
        {
            "buffer" : 0,
            "byteLength" : 5184,
            "byteOffset" : 418884,
            "target" : 34962
        },
        {
            "buffer" : 0,
            "byteLength" : 3456,
            "byteOffset" : 424068,
            "target" : 34962
        },
        {
            "buffer" : 0,
            "byteLength" : 3456,
            "byteOffset" : 427524,
            "target" : 34962
        },
        {
            "buffer" : 0,
            "byteLength" : 1644,
            "byteOffset" : 430980,
            "target" : 34963
        },
        {
            "buffer" : 0,
            "byteLength" : 3744,
            "byteOffset" : 432624,
            "target" : 34962
        },
        {
            "buffer" : 0,
            "byteLength" : 3744,
            "byteOffset" : 436368,
            "target" : 34962
        },
        {
            "buffer" : 0,
            "byteLength" : 2496,
            "byteOffset" : 440112,
            "target" : 34962
        },
        {
            "buffer" : 0,
            "byteLength" : 2496,
            "byteOffset" : 442608,
            "target" : 34962
        },
        {
            "buffer" : 0,
            "byteLength" : 2400,
            "byteOffset" : 445104,
            "target" : 34963
        },
        {
            "buffer" : 0,
            "byteLength" : 720,
            "byteOffset" : 447504,
            "target" : 34962
        },
        {
            "buffer" : 0,
            "byteLength" : 720,
            "byteOffset" : 448224,
            "target" : 34962
        },
        {
            "buffer" : 0,
            "byteLength" : 480,
            "byteOffset" : 448944,
            "target" : 34962
        },
        {
            "buffer" : 0,
            "byteLength" : 480,
            "byteOffset" : 449424,
            "target" : 34962
        },
        {
            "buffer" : 0,
            "byteLength" : 216,
            "byteOffset" : 449904,
            "target" : 34963
        },
        {
            "buffer" : 0,
            "byteLength" : 48120,
            "byteOffset" : 450120,
            "target" : 34962
        },
        {
            "buffer" : 0,
            "byteLength" : 48120,
            "byteOffset" : 498240,
            "target" : 34962
        },
        {
            "buffer" : 0,
            "byteLength" : 32080,
            "byteOffset" : 546360,
            "target" : 34962
        },
        {
            "buffer" : 0,
            "byteLength" : 32080,
            "byteOffset" : 578440,
            "target" : 34962
        },
        {
            "buffer" : 0,
            "byteLength" : 21048,
            "byteOffset" : 610520,
            "target" : 34963
        }
    ],
    "buffers" : [
        {
            "byteLength" : 631568,
            "uri" : "data:application/octet-stream;base64,"
        }
    ]
}
