{
    "asset" : {
        "generator" : "Khronos glTF Blender I/O v3.3.36",
        "version" : "2.0"
    },
    "extensionsUsed" : [
        "KHR_materials_specular",
        "KHR_materials_ior"
    ],
    "scene" : 0,
    "scenes" : [
        {
            "name" : "Scene",
            "nodes" : [
                0,
                1
            ]
        }
    ],
    "nodes" : [
        {
            "mesh" : 0,
            "name" : "SkyRoad05"
        },
        {
            "mesh" : 1,
            "name" : "SkyRoadWall05"
        }
    ],
    "materials" : [
        {
            "extensions" : {
                "KHR_materials_specular" : {
                    "specularColorFactor" : [
                        0,
                        0,
                        0
                    ]
                },
                "KHR_materials_ior" : {
                    "ior" : 1.4500000476837158
                }
            },
            "name" : "Sky Road",
            "pbrMetallicRoughness" : {
                "baseColorFactor" : [
                    1,
                    0.9459218978881836,
                    0.0945345088839531,
                    0.45454543828964233
                ],
                "metallicFactor" : 0
            }
        }
    ],
    "meshes" : [
        {
            "name" : "SkyRoad05",
            "primitives" : [
                {
                    "attributes" : {
                        "POSITION" : 0,
                        "NORMAL" : 1,
                        "TEXCOORD_0" : 2,
                        "COLOR_0" : 3
                    },
                    "indices" : 4,
                    "material" : 0
                }
            ]
        },
        {
            "name" : "SkyRoadWall05",
            "primitives" : [
                {
                    "attributes" : {
                        "POSITION" : 5,
                        "NORMAL" : 6
                    },
                    "indices" : 7
                }
            ]
        }
    ],
    "accessors" : [
        {
            "bufferView" : 0,
            "componentType" : 5126,
            "count" : 2508,
            "max" : [
                489.2100830078125,
                29.21333122253418,
                -1040.584716796875
            ],
            "min" : [
                192.7535858154297,
                -37.88439178466797,
                -1210.4217529296875
            ],
            "type" : "VEC3"
        },
        {
            "bufferView" : 1,
            "componentType" : 5126,
            "count" : 2508,
            "type" : "VEC3"
        },
        {
            "bufferView" : 2,
            "componentType" : 5126,
            "count" : 2508,
            "type" : "VEC2"
        },
        {
            "bufferView" : 3,
            "componentType" : 5123,
            "count" : 2508,
            "normalized" : true,
            "type" : "VEC4"
        },
        {
            "bufferView" : 4,
            "componentType" : 5123,
            "count" : 3762,
            "type" : "SCALAR"
        },
        {
            "bufferView" : 5,
            "componentType" : 5126,
            "count" : 4548,
            "max" : [
                328.9565124511719,
                35.8990592956543,
                -1040.584716796875
            ],
            "min" : [
                192.7535858154297,
                -37.88439178466797,
                -1210.4217529296875
            ],
            "type" : "VEC3"
        },
        {
            "bufferView" : 6,
            "componentType" : 5126,
            "count" : 4548,
            "type" : "VEC3"
        },
        {
            "bufferView" : 7,
            "componentType" : 5123,
            "count" : 6822,
            "type" : "SCALAR"
        }
    ],
    "bufferViews" : [
        {
            "buffer" : 0,
            "byteLength" : 30096,
            "byteOffset" : 0,
            "target" : 34962
        },
        {
            "buffer" : 0,
            "byteLength" : 30096,
            "byteOffset" : 30096,
            "target" : 34962
        },
        {
            "buffer" : 0,
            "byteLength" : 20064,
            "byteOffset" : 60192,
            "target" : 34962
        },
        {
            "buffer" : 0,
            "byteLength" : 20064,
            "byteOffset" : 80256,
            "target" : 34962
        },
        {
            "buffer" : 0,
            "byteLength" : 7524,
            "byteOffset" : 100320,
            "target" : 34963
        },
        {
            "buffer" : 0,
            "byteLength" : 54576,
            "byteOffset" : 107844,
            "target" : 34962
        },
        {
            "buffer" : 0,
            "byteLength" : 54576,
            "byteOffset" : 162420,
            "target" : 34962
        },
        {
            "buffer" : 0,
            "byteLength" : 13644,
            "byteOffset" : 216996,
            "target" : 34963
        }
    ],
    "buffers" : [
        {
            "byteLength" : 230640,
            "uri" : "data:application/octet-stream;base64,"
        }
    ]
}
