{
    "asset" : {
        "generator" : "Khronos glTF Blender I/O v3.3.36",
        "version" : "2.0"
    },
    "scene" : 0,
    "scenes" : [
        {
            "name" : "Scene",
            "nodes" : [
                0,
                1
            ]
        }
    ],
    "nodes" : [
        {
            "mesh" : 0,
            "name" : "Floor"
        },
        {
            "mesh" : 1,
            "name" : "Wall"
        }
    ],
    "meshes" : [
        {
            "name" : "Floor",
            "primitives" : [
                {
                    "attributes" : {
                        "POSITION" : 0,
                        "NORMAL" : 1
                    },
                    "indices" : 2
                }
            ]
        },
        {
            "name" : "Wall",
            "primitives" : [
                {
                    "attributes" : {
                        "POSITION" : 3,
                        "NORMAL" : 4
                    },
                    "indices" : 5
                }
            ]
        }
    ],
    "accessors" : [
        {
            "bufferView" : 0,
            "componentType" : 5126,
            "count" : 3388,
            "max" : [
                315.2174072265625,
                13.565475463867188,
                218.77809143066406
            ],
            "min" : [
                -115.99298095703125,
                -20.114490509033203,
                -81.96273803710938
            ],
            "type" : "VEC3"
        },
        {
            "bufferView" : 1,
            "componentType" : 5126,
            "count" : 3388,
            "type" : "VEC3"
        },
        {
            "bufferView" : 2,
            "componentType" : 5123,
            "count" : 4908,
            "type" : "SCALAR"
        },
        {
            "bufferView" : 3,
            "componentType" : 5126,
            "count" : 5424,
            "max" : [
                320.21728515625,
                37.800662994384766,
                227.82557678222656
            ],
            "min" : [
                -125.73405456542969,
                -45.99921798706055,
                -90.12835693359375
            ],
            "type" : "VEC3"
        },
        {
            "bufferView" : 4,
            "componentType" : 5126,
            "count" : 5424,
            "type" : "VEC3"
        },
        {
            "bufferView" : 5,
            "componentType" : 5123,
            "count" : 9564,
            "type" : "SCALAR"
        }
    ],
    "bufferViews" : [
        {
            "buffer" : 0,
            "byteLength" : 40656,
            "byteOffset" : 0,
            "target" : 34962
        },
        {
            "buffer" : 0,
            "byteLength" : 40656,
            "byteOffset" : 40656,
            "target" : 34962
        },
        {
            "buffer" : 0,
            "byteLength" : 9816,
            "byteOffset" : 81312,
            "target" : 34963
        },
        {
            "buffer" : 0,
            "byteLength" : 65088,
            "byteOffset" : 91128,
            "target" : 34962
        },
        {
            "buffer" : 0,
            "byteLength" : 65088,
            "byteOffset" : 156216,
            "target" : 34962
        },
        {
            "buffer" : 0,
            "byteLength" : 19128,
            "byteOffset" : 221304,
            "target" : 34963
        }
    ],
    "buffers" : [
        {
            "byteLength" : 240432,
            "uri" : "data:application/octet-stream;base64,"
        }
    ]
}
