{
    "asset" : {
        "generator" : "Khronos glTF Blender I/O v3.3.36",
        "version" : "2.0"
    },
    "scene" : 0,
    "scenes" : [
        {
            "name" : "Scene",
            "nodes" : [
                0,
                1,
                2,
                3,
                4,
                5,
                6,
                7,
                8,
                9
            ]
        }
    ],
    "nodes" : [
        {
            "mesh" : 0,
            "name" : "FloorPavement"
        },
        {
            "mesh" : 1,
            "name" : "Wall"
        },
        {
            "mesh" : 2,
            "name" : "Ceiling"
        },
        {
            "mesh" : 3,
            "name" : "IslandOneWay"
        },
        {
            "mesh" : 4,
            "name" : "FloorSand"
        },
        {
            "mesh" : 5,
            "name" : "FloorWater"
        },
        {
            "mesh" : 6,
            "name" : "HallOneWay"
        },
        {
            "mesh" : 7,
            "name" : "UTurnOneWay"
        },
        {
            "mesh" : 8,
            "name" : "SpikeBallCollision"
        },
        {
            "mesh" : 9,
            "name" : "IslandSpringOneWay"
        }
    ],
    "meshes" : [
        {
            "name" : "FloorPavement",
            "primitives" : [
                {
                    "attributes" : {
                        "POSITION" : 0,
                        "NORMAL" : 1,
                        "TEXCOORD_0" : 2
                    },
                    "indices" : 3
                }
            ]
        },
        {
            "name" : "Wall",
            "primitives" : [
                {
                    "attributes" : {
                        "POSITION" : 4,
                        "NORMAL" : 5
                    },
                    "indices" : 6
                }
            ]
        },
        {
            "name" : "Ceiling",
            "primitives" : [
                {
                    "attributes" : {
                        "POSITION" : 7,
                        "NORMAL" : 8
                    },
                    "indices" : 9
                }
            ]
        },
        {
            "name" : "IslandOneWay",
            "primitives" : [
                {
                    "attributes" : {
                        "POSITION" : 10,
                        "NORMAL" : 11
                    },
                    "indices" : 12
                }
            ]
        },
        {
            "name" : "FloorSand",
            "primitives" : [
                {
                    "attributes" : {
                        "POSITION" : 13,
                        "NORMAL" : 14
                    },
                    "indices" : 15
                }
            ]
        },
        {
            "name" : "FloorWater",
            "primitives" : [
                {
                    "attributes" : {
                        "POSITION" : 16,
                        "NORMAL" : 17,
                        "TEXCOORD_0" : 18
                    },
                    "indices" : 19
                }
            ]
        },
        {
            "name" : "HallOneWay",
            "primitives" : [
                {
                    "attributes" : {
                        "POSITION" : 20,
                        "NORMAL" : 21
                    },
                    "indices" : 22
                }
            ]
        },
        {
            "name" : "UTurnOneWay",
            "primitives" : [
                {
                    "attributes" : {
                        "POSITION" : 23,
                        "NORMAL" : 24
                    },
                    "indices" : 22
                }
            ]
        },
        {
            "name" : "SpikeBallCollision",
            "primitives" : [
                {
                    "attributes" : {
                        "POSITION" : 25,
                        "NORMAL" : 26,
                        "TEXCOORD_0" : 27
                    },
                    "indices" : 28
                }
            ]
        },
        {
            "name" : "IslandSpringOneWay",
            "primitives" : [
                {
                    "attributes" : {
                        "POSITION" : 29,
                        "NORMAL" : 30
                    },
                    "indices" : 31
                }
            ]
        }
    ],
    "accessors" : [
        {
            "bufferView" : 0,
            "componentType" : 5126,
            "count" : 471,
            "max" : [
                92.30782318115234,
                110.00244140625,
                32.19236755371094
            ],
            "min" : [
                -669.0001831054688,
                -65.0184097290039,
                -1368.910400390625
            ],
            "type" : "VEC3"
        },
        {
            "bufferView" : 1,
            "componentType" : 5126,
            "count" : 471,
            "type" : "VEC3"
        },
        {
            "bufferView" : 2,
            "componentType" : 5126,
            "count" : 471,
            "type" : "VEC2"
        },
        {
            "bufferView" : 3,
            "componentType" : 5123,
            "count" : 693,
            "type" : "SCALAR"
        },
        {
            "bufferView" : 4,
            "componentType" : 5126,
            "count" : 5527,
            "max" : [
                121.92916870117188,
                119.59088897705078,
                5.15582275390625
            ],
            "min" : [
                -664.000244140625,
                -101.0951919555664,
                -1368.910400390625
            ],
            "type" : "VEC3"
        },
        {
            "bufferView" : 5,
            "componentType" : 5126,
            "count" : 5527,
            "type" : "VEC3"
        },
        {
            "bufferView" : 6,
            "componentType" : 5123,
            "count" : 8193,
            "type" : "SCALAR"
        },
        {
            "bufferView" : 7,
            "componentType" : 5126,
            "count" : 913,
            "max" : [
                67.19783020019531,
                119.99391174316406,
                -60.100494384765625
            ],
            "min" : [
                -386.7657470703125,
                -55.018531799316406,
                -450.7281799316406
            ],
            "type" : "VEC3"
        },
        {
            "bufferView" : 8,
            "componentType" : 5126,
            "count" : 913,
            "type" : "VEC3"
        },
        {
            "bufferView" : 9,
            "componentType" : 5123,
            "count" : 1359,
            "type" : "SCALAR"
        },
        {
            "bufferView" : 10,
            "componentType" : 5126,
            "count" : 4,
            "max" : [
                62.13890075683594,
                -28.066648483276367,
                -352.320556640625
            ],
            "min" : [
                58.13633728027344,
                -56.80434799194336,
                -357.68115234375
            ],
            "type" : "VEC3"
        },
        {
            "bufferView" : 11,
            "componentType" : 5126,
            "count" : 4,
            "type" : "VEC3"
        },
        {
            "bufferView" : 12,
            "componentType" : 5123,
            "count" : 6,
            "type" : "SCALAR"
        },
        {
            "bufferView" : 13,
            "componentType" : 5126,
            "count" : 1554,
            "max" : [
                80.66537475585938,
                -29.996957778930664,
                -53.54578399658203
            ],
            "min" : [
                -659.8792114257812,
                -64.85760498046875,
                -842.5204467773438
            ],
            "type" : "VEC3"
        },
        {
            "bufferView" : 14,
            "componentType" : 5126,
            "count" : 1554,
            "type" : "VEC3"
        },
        {
            "bufferView" : 15,
            "componentType" : 5123,
            "count" : 4038,
            "type" : "SCALAR"
        },
        {
            "bufferView" : 16,
            "componentType" : 5126,
            "count" : 136,
            "max" : [
                -307.93878173828125,
                -50.147735595703125,
                -466.71173095703125
            ],
            "min" : [
                -454.45440673828125,
                -53.319732666015625,
                -631.9060668945312
            ],
            "type" : "VEC3"
        },
        {
            "bufferView" : 17,
            "componentType" : 5126,
            "count" : 136,
            "type" : "VEC3"
        },
        {
            "bufferView" : 18,
            "componentType" : 5126,
            "count" : 136,
            "type" : "VEC2"
        },
        {
            "bufferView" : 19,
            "componentType" : 5123,
            "count" : 390,
            "type" : "SCALAR"
        },
        {
            "bufferView" : 20,
            "componentType" : 5126,
            "count" : 4,
            "max" : [
                -0.17669677734375,
                -24.97809600830078,
                -431.72723388671875
            ],
            "min" : [
                -0.17669677734375,
                -44.97809600830078,
                -439.1366271972656
            ],
            "type" : "VEC3"
        },
        {
            "bufferView" : 21,
            "componentType" : 5126,
            "count" : 4,
            "type" : "VEC3"
        },
        {
            "bufferView" : 22,
            "componentType" : 5123,
            "count" : 6,
            "type" : "SCALAR"
        },
        {
            "bufferView" : 23,
            "componentType" : 5126,
            "count" : 4,
            "max" : [
                -84.599365234375,
                -19.781394958496094,
                -299.4717102050781
            ],
            "min" : [
                -90.32301330566406,
                -39.781402587890625,
                -300.4368591308594
            ],
            "type" : "VEC3"
        },
        {
            "bufferView" : 24,
            "componentType" : 5126,
            "count" : 4,
            "type" : "VEC3"
        },
        {
            "bufferView" : 25,
            "componentType" : 5126,
            "count" : 272,
            "max" : [
                -285.4257507324219,
                -40.261993408203125,
                -400.1925354003906
            ],
            "min" : [
                -335.4800720214844,
                -65.0184097290039,
                -446.8260803222656
            ],
            "type" : "VEC3"
        },
        {
            "bufferView" : 26,
            "componentType" : 5126,
            "count" : 272,
            "type" : "VEC3"
        },
        {
            "bufferView" : 27,
            "componentType" : 5126,
            "count" : 272,
            "type" : "VEC2"
        },
        {
            "bufferView" : 28,
            "componentType" : 5123,
            "count" : 378,
            "type" : "SCALAR"
        },
        {
            "bufferView" : 29,
            "componentType" : 5126,
            "count" : 4,
            "max" : [
                121.92916870117188,
                -28.066648483276367,
                -426.4639892578125
            ],
            "min" : [
                113.49879455566406,
                -67.61546325683594,
                -445.5703430175781
            ],
            "type" : "VEC3"
        },
        {
            "bufferView" : 30,
            "componentType" : 5126,
            "count" : 4,
            "type" : "VEC3"
        },
        {
            "bufferView" : 31,
            "componentType" : 5123,
            "count" : 6,
            "type" : "SCALAR"
        }
    ],
    "bufferViews" : [
        {
            "buffer" : 0,
            "byteLength" : 5652,
            "byteOffset" : 0,
            "target" : 34962
        },
        {
            "buffer" : 0,
            "byteLength" : 5652,
            "byteOffset" : 5652,
            "target" : 34962
        },
        {
            "buffer" : 0,
            "byteLength" : 3768,
            "byteOffset" : 11304,
            "target" : 34962
        },
        {
            "buffer" : 0,
            "byteLength" : 1386,
            "byteOffset" : 15072,
            "target" : 34963
        },
        {
            "buffer" : 0,
            "byteLength" : 66324,
            "byteOffset" : 16460,
            "target" : 34962
        },
        {
            "buffer" : 0,
            "byteLength" : 66324,
            "byteOffset" : 82784,
            "target" : 34962
        },
        {
            "buffer" : 0,
            "byteLength" : 16386,
            "byteOffset" : 149108,
            "target" : 34963
        },
        {
            "buffer" : 0,
            "byteLength" : 10956,
            "byteOffset" : 165496,
            "target" : 34962
        },
        {
            "buffer" : 0,
            "byteLength" : 10956,
            "byteOffset" : 176452,
            "target" : 34962
        },
        {
            "buffer" : 0,
            "byteLength" : 2718,
            "byteOffset" : 187408,
            "target" : 34963
        },
        {
            "buffer" : 0,
            "byteLength" : 48,
            "byteOffset" : 190128,
            "target" : 34962
        },
        {
            "buffer" : 0,
            "byteLength" : 48,
            "byteOffset" : 190176,
            "target" : 34962
        },
        {
            "buffer" : 0,
            "byteLength" : 12,
            "byteOffset" : 190224,
            "target" : 34963
        },
        {
            "buffer" : 0,
            "byteLength" : 18648,
            "byteOffset" : 190236,
            "target" : 34962
        },
        {
            "buffer" : 0,
            "byteLength" : 18648,
            "byteOffset" : 208884,
            "target" : 34962
        },
        {
            "buffer" : 0,
            "byteLength" : 8076,
            "byteOffset" : 227532,
            "target" : 34963
        },
        {
            "buffer" : 0,
            "byteLength" : 1632,
            "byteOffset" : 235608,
            "target" : 34962
        },
        {
            "buffer" : 0,
            "byteLength" : 1632,
            "byteOffset" : 237240,
            "target" : 34962
        },
        {
            "buffer" : 0,
            "byteLength" : 1088,
            "byteOffset" : 238872,
            "target" : 34962
        },
        {
            "buffer" : 0,
            "byteLength" : 780,
            "byteOffset" : 239960,
            "target" : 34963
        },
        {
            "buffer" : 0,
            "byteLength" : 48,
            "byteOffset" : 240740,
            "target" : 34962
        },
        {
            "buffer" : 0,
            "byteLength" : 48,
            "byteOffset" : 240788,
            "target" : 34962
        },
        {
            "buffer" : 0,
            "byteLength" : 12,
            "byteOffset" : 240836,
            "target" : 34963
        },
        {
            "buffer" : 0,
            "byteLength" : 48,
            "byteOffset" : 240848,
            "target" : 34962
        },
        {
            "buffer" : 0,
            "byteLength" : 48,
            "byteOffset" : 240896,
            "target" : 34962
        },
        {
            "buffer" : 0,
            "byteLength" : 3264,
            "byteOffset" : 240944,
            "target" : 34962
        },
        {
            "buffer" : 0,
            "byteLength" : 3264,
            "byteOffset" : 244208,
            "target" : 34962
        },
        {
            "buffer" : 0,
            "byteLength" : 2176,
            "byteOffset" : 247472,
            "target" : 34962
        },
        {
            "buffer" : 0,
            "byteLength" : 756,
            "byteOffset" : 249648,
            "target" : 34963
        },
        {
            "buffer" : 0,
            "byteLength" : 48,
            "byteOffset" : 250404,
            "target" : 34962
        },
        {
            "buffer" : 0,
            "byteLength" : 48,
            "byteOffset" : 250452,
            "target" : 34962
        },
        {
            "buffer" : 0,
            "byteLength" : 12,
            "byteOffset" : 250500,
            "target" : 34963
        }
    ],
    "buffers" : [
        {
            "byteLength" : 250512,
            "uri" : "data:application/octet-stream;base64,"
        }
    ]
}
